<?xml version="1.0" encoding="utf-8" standalone="no"?>
<!DOCTYPE svg PUBLIC "-//W3C//DTD SVG 1.1//EN"
  "http://www.w3.org/Graphics/SVG/1.1/DTD/svg11.dtd">
<svg xmlns:xlink="http://www.w3.org/1999/xlink" width="1144.46125pt" height="423.034375pt" viewBox="0 0 1144.46125 423.034375" xmlns="http://www.w3.org/2000/svg" version="1.1">
 <metadata>
  <rdf:RDF xmlns:dc="http://purl.org/dc/elements/1.1/" xmlns:cc="http://creativecommons.org/ns#" xmlns:rdf="http://www.w3.org/1999/02/22-rdf-syntax-ns#">
   <cc:Work>
    <dc:type rdf:resource="http://purl.org/dc/dcmitype/StillImage"/>
    <dc:date>2026-07-15T18:24:24.864761</dc:date>
    <dc:format>image/svg+xml</dc:format>
    <dc:creator>
     <cc:Agent>
      <dc:title>Matplotlib v3.10.9, https://matplotlib.org/</dc:title>
     </cc:Agent>
    </dc:creator>
   </cc:Work>
  </rdf:RDF>
 </metadata>
 <defs>
  <style type="text/css">*{stroke-linejoin: round; stroke-linecap: butt}</style>
 </defs>
 <g id="figure_1">
  <g id="patch_1">
   <path d="M 0 423.034375 
L 1144.46125 423.034375 
L 1144.46125 0 
L 0 0 
z
" style="fill: #ffffff"/>
  </g>
  <g id="axes_1">
   <g id="patch_2">
    <path d="M 43.78125 385.478125 
L 1137.26125 385.478125 
L 1137.26125 22.318125 
L 43.78125 22.318125 
z
" style="fill: #ffffff"/>
   </g>
   <g id="matplotlib.axis_1">
    <g id="xtick_1">
     <g id="line2d_1">
      <path d="M 93.484886 385.478125 
L 93.484886 22.318125 
" clip-path="url(#p1ce95dc402)" style="fill: none; stroke: #b0b0b0; stroke-opacity: 0.3; stroke-width: 0.8; stroke-linecap: square"/>
     </g>
     <g id="line2d_2">
      <defs>
       <path id="maeb14a8f4c" d="M 0 0 
L 0 3.5 
" style="stroke: #000000; stroke-width: 0.8"/>
      </defs>
      <g>
       <use xlink:href="#maeb14a8f4c" x="93.484886" y="385.478125" style="stroke: #000000; stroke-width: 0.8"/>
      </g>
     </g>
     <g id="text_1">
      <!-- 0 -->
      <g transform="translate(90.303636 400.076562) scale(0.1 -0.1)">
       <defs>
        <path id="DejaVuSans-30" d="M 2034 4250 
Q 1547 4250 1301 3770 
Q 1056 3291 1056 2328 
Q 1056 1369 1301 889 
Q 1547 409 2034 409 
Q 2525 409 2770 889 
Q 3016 1369 3016 2328 
Q 3016 3291 2770 3770 
Q 2525 4250 2034 4250 
z
M 2034 4750 
Q 2819 4750 3233 4129 
Q 3647 3509 3647 2328 
Q 3647 1150 3233 529 
Q 2819 -91 2034 -91 
Q 1250 -91 836 529 
Q 422 1150 422 2328 
Q 422 3509 836 4129 
Q 1250 4750 2034 4750 
z
" transform="scale(0.015625)"/>
       </defs>
       <use xlink:href="#DejaVuSans-30"/>
      </g>
     </g>
    </g>
    <g id="xtick_2">
     <g id="line2d_3">
      <path d="M 224.283929 385.478125 
L 224.283929 22.318125 
" clip-path="url(#p1ce95dc402)" style="fill: none; stroke: #b0b0b0; stroke-opacity: 0.3; stroke-width: 0.8; stroke-linecap: square"/>
     </g>
     <g id="line2d_4">
      <g>
       <use xlink:href="#maeb14a8f4c" x="224.283929" y="385.478125" style="stroke: #000000; stroke-width: 0.8"/>
      </g>
     </g>
     <g id="text_2">
      <!-- 20 -->
      <g transform="translate(217.921429 400.076562) scale(0.1 -0.1)">
       <defs>
        <path id="DejaVuSans-32" d="M 1228 531 
L 3431 531 
L 3431 0 
L 469 0 
L 469 531 
Q 828 903 1448 1529 
Q 2069 2156 2228 2338 
Q 2531 2678 2651 2914 
Q 2772 3150 2772 3378 
Q 2772 3750 2511 3984 
Q 2250 4219 1831 4219 
Q 1534 4219 1204 4116 
Q 875 4013 500 3803 
L 500 4441 
Q 881 4594 1212 4672 
Q 1544 4750 1819 4750 
Q 2544 4750 2975 4387 
Q 3406 4025 3406 3419 
Q 3406 3131 3298 2873 
Q 3191 2616 2906 2266 
Q 2828 2175 2409 1742 
Q 1991 1309 1228 531 
z
" transform="scale(0.015625)"/>
       </defs>
       <use xlink:href="#DejaVuSans-32"/>
       <use xlink:href="#DejaVuSans-30" transform="translate(63.623047 0)"/>
      </g>
     </g>
    </g>
    <g id="xtick_3">
     <g id="line2d_5">
      <path d="M 355.082972 385.478125 
L 355.082972 22.318125 
" clip-path="url(#p1ce95dc402)" style="fill: none; stroke: #b0b0b0; stroke-opacity: 0.3; stroke-width: 0.8; stroke-linecap: square"/>
     </g>
     <g id="line2d_6">
      <g>
       <use xlink:href="#maeb14a8f4c" x="355.082972" y="385.478125" style="stroke: #000000; stroke-width: 0.8"/>
      </g>
     </g>
     <g id="text_3">
      <!-- 40 -->
      <g transform="translate(348.720472 400.076562) scale(0.1 -0.1)">
       <defs>
        <path id="DejaVuSans-34" d="M 2419 4116 
L 825 1625 
L 2419 1625 
L 2419 4116 
z
M 2253 4666 
L 3047 4666 
L 3047 1625 
L 3713 1625 
L 3713 1100 
L 3047 1100 
L 3047 0 
L 2419 0 
L 2419 1100 
L 313 1100 
L 313 1709 
L 2253 4666 
z
" transform="scale(0.015625)"/>
       </defs>
       <use xlink:href="#DejaVuSans-34"/>
       <use xlink:href="#DejaVuSans-30" transform="translate(63.623047 0)"/>
      </g>
     </g>
    </g>
    <g id="xtick_4">
     <g id="line2d_7">
      <path d="M 485.882016 385.478125 
L 485.882016 22.318125 
" clip-path="url(#p1ce95dc402)" style="fill: none; stroke: #b0b0b0; stroke-opacity: 0.3; stroke-width: 0.8; stroke-linecap: square"/>
     </g>
     <g id="line2d_8">
      <g>
       <use xlink:href="#maeb14a8f4c" x="485.882016" y="385.478125" style="stroke: #000000; stroke-width: 0.8"/>
      </g>
     </g>
     <g id="text_4">
      <!-- 60 -->
      <g transform="translate(479.519516 400.076562) scale(0.1 -0.1)">
       <defs>
        <path id="DejaVuSans-36" d="M 2113 2584 
Q 1688 2584 1439 2293 
Q 1191 2003 1191 1497 
Q 1191 994 1439 701 
Q 1688 409 2113 409 
Q 2538 409 2786 701 
Q 3034 994 3034 1497 
Q 3034 2003 2786 2293 
Q 2538 2584 2113 2584 
z
M 3366 4563 
L 3366 3988 
Q 3128 4100 2886 4159 
Q 2644 4219 2406 4219 
Q 1781 4219 1451 3797 
Q 1122 3375 1075 2522 
Q 1259 2794 1537 2939 
Q 1816 3084 2150 3084 
Q 2853 3084 3261 2657 
Q 3669 2231 3669 1497 
Q 3669 778 3244 343 
Q 2819 -91 2113 -91 
Q 1303 -91 875 529 
Q 447 1150 447 2328 
Q 447 3434 972 4092 
Q 1497 4750 2381 4750 
Q 2619 4750 2861 4703 
Q 3103 4656 3366 4563 
z
" transform="scale(0.015625)"/>
       </defs>
       <use xlink:href="#DejaVuSans-36"/>
       <use xlink:href="#DejaVuSans-30" transform="translate(63.623047 0)"/>
      </g>
     </g>
    </g>
    <g id="xtick_5">
     <g id="line2d_9">
      <path d="M 616.681059 385.478125 
L 616.681059 22.318125 
" clip-path="url(#p1ce95dc402)" style="fill: none; stroke: #b0b0b0; stroke-opacity: 0.3; stroke-width: 0.8; stroke-linecap: square"/>
     </g>
     <g id="line2d_10">
      <g>
       <use xlink:href="#maeb14a8f4c" x="616.681059" y="385.478125" style="stroke: #000000; stroke-width: 0.8"/>
      </g>
     </g>
     <g id="text_5">
      <!-- 80 -->
      <g transform="translate(610.318559 400.076562) scale(0.1 -0.1)">
       <defs>
        <path id="DejaVuSans-38" d="M 2034 2216 
Q 1584 2216 1326 1975 
Q 1069 1734 1069 1313 
Q 1069 891 1326 650 
Q 1584 409 2034 409 
Q 2484 409 2743 651 
Q 3003 894 3003 1313 
Q 3003 1734 2745 1975 
Q 2488 2216 2034 2216 
z
M 1403 2484 
Q 997 2584 770 2862 
Q 544 3141 544 3541 
Q 544 4100 942 4425 
Q 1341 4750 2034 4750 
Q 2731 4750 3128 4425 
Q 3525 4100 3525 3541 
Q 3525 3141 3298 2862 
Q 3072 2584 2669 2484 
Q 3125 2378 3379 2068 
Q 3634 1759 3634 1313 
Q 3634 634 3220 271 
Q 2806 -91 2034 -91 
Q 1263 -91 848 271 
Q 434 634 434 1313 
Q 434 1759 690 2068 
Q 947 2378 1403 2484 
z
M 1172 3481 
Q 1172 3119 1398 2916 
Q 1625 2713 2034 2713 
Q 2441 2713 2670 2916 
Q 2900 3119 2900 3481 
Q 2900 3844 2670 4047 
Q 2441 4250 2034 4250 
Q 1625 4250 1398 4047 
Q 1172 3844 1172 3481 
z
" transform="scale(0.015625)"/>
       </defs>
       <use xlink:href="#DejaVuSans-38"/>
       <use xlink:href="#DejaVuSans-30" transform="translate(63.623047 0)"/>
      </g>
     </g>
    </g>
    <g id="xtick_6">
     <g id="line2d_11">
      <path d="M 747.480102 385.478125 
L 747.480102 22.318125 
" clip-path="url(#p1ce95dc402)" style="fill: none; stroke: #b0b0b0; stroke-opacity: 0.3; stroke-width: 0.8; stroke-linecap: square"/>
     </g>
     <g id="line2d_12">
      <g>
       <use xlink:href="#maeb14a8f4c" x="747.480102" y="385.478125" style="stroke: #000000; stroke-width: 0.8"/>
      </g>
     </g>
     <g id="text_6">
      <!-- 100 -->
      <g transform="translate(737.936352 400.076562) scale(0.1 -0.1)">
       <defs>
        <path id="DejaVuSans-31" d="M 794 531 
L 1825 531 
L 1825 4091 
L 703 3866 
L 703 4441 
L 1819 4666 
L 2450 4666 
L 2450 531 
L 3481 531 
L 3481 0 
L 794 0 
L 794 531 
z
" transform="scale(0.015625)"/>
       </defs>
       <use xlink:href="#DejaVuSans-31"/>
       <use xlink:href="#DejaVuSans-30" transform="translate(63.623047 0)"/>
       <use xlink:href="#DejaVuSans-30" transform="translate(127.246094 0)"/>
      </g>
     </g>
    </g>
    <g id="xtick_7">
     <g id="line2d_13">
      <path d="M 878.279145 385.478125 
L 878.279145 22.318125 
" clip-path="url(#p1ce95dc402)" style="fill: none; stroke: #b0b0b0; stroke-opacity: 0.3; stroke-width: 0.8; stroke-linecap: square"/>
     </g>
     <g id="line2d_14">
      <g>
       <use xlink:href="#maeb14a8f4c" x="878.279145" y="385.478125" style="stroke: #000000; stroke-width: 0.8"/>
      </g>
     </g>
     <g id="text_7">
      <!-- 120 -->
      <g transform="translate(868.735395 400.076562) scale(0.1 -0.1)">
       <use xlink:href="#DejaVuSans-31"/>
       <use xlink:href="#DejaVuSans-32" transform="translate(63.623047 0)"/>
       <use xlink:href="#DejaVuSans-30" transform="translate(127.246094 0)"/>
      </g>
     </g>
    </g>
    <g id="xtick_8">
     <g id="line2d_15">
      <path d="M 1009.078188 385.478125 
L 1009.078188 22.318125 
" clip-path="url(#p1ce95dc402)" style="fill: none; stroke: #b0b0b0; stroke-opacity: 0.3; stroke-width: 0.8; stroke-linecap: square"/>
     </g>
     <g id="line2d_16">
      <g>
       <use xlink:href="#maeb14a8f4c" x="1009.078188" y="385.478125" style="stroke: #000000; stroke-width: 0.8"/>
      </g>
     </g>
     <g id="text_8">
      <!-- 140 -->
      <g transform="translate(999.534438 400.076562) scale(0.1 -0.1)">
       <use xlink:href="#DejaVuSans-31"/>
       <use xlink:href="#DejaVuSans-34" transform="translate(63.623047 0)"/>
       <use xlink:href="#DejaVuSans-30" transform="translate(127.246094 0)"/>
      </g>
     </g>
    </g>
    <g id="text_9">
     <!-- Time Step -->
     <g transform="translate(565.313437 413.754687) scale(0.1 -0.1)">
      <defs>
       <path id="DejaVuSans-54" d="M -19 4666 
L 3928 4666 
L 3928 4134 
L 2272 4134 
L 2272 0 
L 1638 0 
L 1638 4134 
L -19 4134 
L -19 4666 
z
" transform="scale(0.015625)"/>
       <path id="DejaVuSans-69" d="M 603 3500 
L 1178 3500 
L 1178 0 
L 603 0 
L 603 3500 
z
M 603 4863 
L 1178 4863 
L 1178 4134 
L 603 4134 
L 603 4863 
z
" transform="scale(0.015625)"/>
       <path id="DejaVuSans-6d" d="M 3328 2828 
Q 3544 3216 3844 3400 
Q 4144 3584 4550 3584 
Q 5097 3584 5394 3201 
Q 5691 2819 5691 2113 
L 5691 0 
L 5113 0 
L 5113 2094 
Q 5113 2597 4934 2840 
Q 4756 3084 4391 3084 
Q 3944 3084 3684 2787 
Q 3425 2491 3425 1978 
L 3425 0 
L 2847 0 
L 2847 2094 
Q 2847 2600 2669 2842 
Q 2491 3084 2119 3084 
Q 1678 3084 1418 2786 
Q 1159 2488 1159 1978 
L 1159 0 
L 581 0 
L 581 3500 
L 1159 3500 
L 1159 2956 
Q 1356 3278 1631 3431 
Q 1906 3584 2284 3584 
Q 2666 3584 2933 3390 
Q 3200 3197 3328 2828 
z
" transform="scale(0.015625)"/>
       <path id="DejaVuSans-65" d="M 3597 1894 
L 3597 1613 
L 953 1613 
Q 991 1019 1311 708 
Q 1631 397 2203 397 
Q 2534 397 2845 478 
Q 3156 559 3463 722 
L 3463 178 
Q 3153 47 2828 -22 
Q 2503 -91 2169 -91 
Q 1331 -91 842 396 
Q 353 884 353 1716 
Q 353 2575 817 3079 
Q 1281 3584 2069 3584 
Q 2775 3584 3186 3129 
Q 3597 2675 3597 1894 
z
M 3022 2063 
Q 3016 2534 2758 2815 
Q 2500 3097 2075 3097 
Q 1594 3097 1305 2825 
Q 1016 2553 972 2059 
L 3022 2063 
z
" transform="scale(0.015625)"/>
       <path id="DejaVuSans-20" transform="scale(0.015625)"/>
       <path id="DejaVuSans-53" d="M 3425 4513 
L 3425 3897 
Q 3066 4069 2747 4153 
Q 2428 4238 2131 4238 
Q 1616 4238 1336 4038 
Q 1056 3838 1056 3469 
Q 1056 3159 1242 3001 
Q 1428 2844 1947 2747 
L 2328 2669 
Q 3034 2534 3370 2195 
Q 3706 1856 3706 1288 
Q 3706 609 3251 259 
Q 2797 -91 1919 -91 
Q 1588 -91 1214 -16 
Q 841 59 441 206 
L 441 856 
Q 825 641 1194 531 
Q 1563 422 1919 422 
Q 2459 422 2753 634 
Q 3047 847 3047 1241 
Q 3047 1584 2836 1778 
Q 2625 1972 2144 2069 
L 1759 2144 
Q 1053 2284 737 2584 
Q 422 2884 422 3419 
Q 422 4038 858 4394 
Q 1294 4750 2059 4750 
Q 2388 4750 2728 4690 
Q 3069 4631 3425 4513 
z
" transform="scale(0.015625)"/>
       <path id="DejaVuSans-74" d="M 1172 4494 
L 1172 3500 
L 2356 3500 
L 2356 3053 
L 1172 3053 
L 1172 1153 
Q 1172 725 1289 603 
Q 1406 481 1766 481 
L 2356 481 
L 2356 0 
L 1766 0 
Q 1100 0 847 248 
Q 594 497 594 1153 
L 594 3053 
L 172 3053 
L 172 3500 
L 594 3500 
L 594 4494 
L 1172 4494 
z
" transform="scale(0.015625)"/>
       <path id="DejaVuSans-70" d="M 1159 525 
L 1159 -1331 
L 581 -1331 
L 581 3500 
L 1159 3500 
L 1159 2969 
Q 1341 3281 1617 3432 
Q 1894 3584 2278 3584 
Q 2916 3584 3314 3078 
Q 3713 2572 3713 1747 
Q 3713 922 3314 415 
Q 2916 -91 2278 -91 
Q 1894 -91 1617 61 
Q 1341 213 1159 525 
z
M 3116 1747 
Q 3116 2381 2855 2742 
Q 2594 3103 2138 3103 
Q 1681 3103 1420 2742 
Q 1159 2381 1159 1747 
Q 1159 1113 1420 752 
Q 1681 391 2138 391 
Q 2594 391 2855 752 
Q 3116 1113 3116 1747 
z
" transform="scale(0.015625)"/>
      </defs>
      <use xlink:href="#DejaVuSans-54"/>
      <use xlink:href="#DejaVuSans-69" transform="translate(57.958984 0)"/>
      <use xlink:href="#DejaVuSans-6d" transform="translate(85.742188 0)"/>
      <use xlink:href="#DejaVuSans-65" transform="translate(183.154297 0)"/>
      <use xlink:href="#DejaVuSans-20" transform="translate(244.677734 0)"/>
      <use xlink:href="#DejaVuSans-53" transform="translate(276.464844 0)"/>
      <use xlink:href="#DejaVuSans-74" transform="translate(339.941406 0)"/>
      <use xlink:href="#DejaVuSans-65" transform="translate(379.150391 0)"/>
      <use xlink:href="#DejaVuSans-70" transform="translate(440.673828 0)"/>
     </g>
    </g>
   </g>
   <g id="matplotlib.axis_2">
    <g id="ytick_1">
     <g id="line2d_17">
      <path d="M 43.78125 373.262846 
L 1137.26125 373.262846 
" clip-path="url(#p1ce95dc402)" style="fill: none; stroke: #b0b0b0; stroke-opacity: 0.3; stroke-width: 0.8; stroke-linecap: square"/>
     </g>
     <g id="line2d_18">
      <defs>
       <path id="m21f3339dd3" d="M 0 0 
L -3.5 0 
" style="stroke: #000000; stroke-width: 0.8"/>
      </defs>
      <g>
       <use xlink:href="#m21f3339dd3" x="43.78125" y="373.262846" style="stroke: #000000; stroke-width: 0.8"/>
      </g>
     </g>
     <g id="text_10">
      <!-- 3.5 -->
      <g transform="translate(20.878125 377.062064) scale(0.1 -0.1)">
       <defs>
        <path id="DejaVuSans-33" d="M 2597 2516 
Q 3050 2419 3304 2112 
Q 3559 1806 3559 1356 
Q 3559 666 3084 287 
Q 2609 -91 1734 -91 
Q 1441 -91 1130 -33 
Q 819 25 488 141 
L 488 750 
Q 750 597 1062 519 
Q 1375 441 1716 441 
Q 2309 441 2620 675 
Q 2931 909 2931 1356 
Q 2931 1769 2642 2001 
Q 2353 2234 1838 2234 
L 1294 2234 
L 1294 2753 
L 1863 2753 
Q 2328 2753 2575 2939 
Q 2822 3125 2822 3475 
Q 2822 3834 2567 4026 
Q 2313 4219 1838 4219 
Q 1578 4219 1281 4162 
Q 984 4106 628 3988 
L 628 4550 
Q 988 4650 1302 4700 
Q 1616 4750 1894 4750 
Q 2613 4750 3031 4423 
Q 3450 4097 3450 3541 
Q 3450 3153 3228 2886 
Q 3006 2619 2597 2516 
z
" transform="scale(0.015625)"/>
        <path id="DejaVuSans-2e" d="M 684 794 
L 1344 794 
L 1344 0 
L 684 0 
L 684 794 
z
" transform="scale(0.015625)"/>
        <path id="DejaVuSans-35" d="M 691 4666 
L 3169 4666 
L 3169 4134 
L 1269 4134 
L 1269 2991 
Q 1406 3038 1543 3061 
Q 1681 3084 1819 3084 
Q 2600 3084 3056 2656 
Q 3513 2228 3513 1497 
Q 3513 744 3044 326 
Q 2575 -91 1722 -91 
Q 1428 -91 1123 -41 
Q 819 9 494 109 
L 494 744 
Q 775 591 1075 516 
Q 1375 441 1709 441 
Q 2250 441 2565 725 
Q 2881 1009 2881 1497 
Q 2881 1984 2565 2268 
Q 2250 2553 1709 2553 
Q 1456 2553 1204 2497 
Q 953 2441 691 2322 
L 691 4666 
z
" transform="scale(0.015625)"/>
       </defs>
       <use xlink:href="#DejaVuSans-33"/>
       <use xlink:href="#DejaVuSans-2e" transform="translate(63.623047 0)"/>
       <use xlink:href="#DejaVuSans-35" transform="translate(95.410156 0)"/>
      </g>
     </g>
    </g>
    <g id="ytick_2">
     <g id="line2d_19">
      <path d="M 43.78125 312.319529 
L 1137.26125 312.319529 
" clip-path="url(#p1ce95dc402)" style="fill: none; stroke: #b0b0b0; stroke-opacity: 0.3; stroke-width: 0.8; stroke-linecap: square"/>
     </g>
     <g id="line2d_20">
      <g>
       <use xlink:href="#m21f3339dd3" x="43.78125" y="312.319529" style="stroke: #000000; stroke-width: 0.8"/>
      </g>
     </g>
     <g id="text_11">
      <!-- 4.0 -->
      <g transform="translate(20.878125 316.118747) scale(0.1 -0.1)">
       <use xlink:href="#DejaVuSans-34"/>
       <use xlink:href="#DejaVuSans-2e" transform="translate(63.623047 0)"/>
       <use xlink:href="#DejaVuSans-30" transform="translate(95.410156 0)"/>
      </g>
     </g>
    </g>
    <g id="ytick_3">
     <g id="line2d_21">
      <path d="M 43.78125 251.376212 
L 1137.26125 251.376212 
" clip-path="url(#p1ce95dc402)" style="fill: none; stroke: #b0b0b0; stroke-opacity: 0.3; stroke-width: 0.8; stroke-linecap: square"/>
     </g>
     <g id="line2d_22">
      <g>
       <use xlink:href="#m21f3339dd3" x="43.78125" y="251.376212" style="stroke: #000000; stroke-width: 0.8"/>
      </g>
     </g>
     <g id="text_12">
      <!-- 4.5 -->
      <g transform="translate(20.878125 255.17543) scale(0.1 -0.1)">
       <use xlink:href="#DejaVuSans-34"/>
       <use xlink:href="#DejaVuSans-2e" transform="translate(63.623047 0)"/>
       <use xlink:href="#DejaVuSans-35" transform="translate(95.410156 0)"/>
      </g>
     </g>
    </g>
    <g id="ytick_4">
     <g id="line2d_23">
      <path d="M 43.78125 190.432895 
L 1137.26125 190.432895 
" clip-path="url(#p1ce95dc402)" style="fill: none; stroke: #b0b0b0; stroke-opacity: 0.3; stroke-width: 0.8; stroke-linecap: square"/>
     </g>
     <g id="line2d_24">
      <g>
       <use xlink:href="#m21f3339dd3" x="43.78125" y="190.432895" style="stroke: #000000; stroke-width: 0.8"/>
      </g>
     </g>
     <g id="text_13">
      <!-- 5.0 -->
      <g transform="translate(20.878125 194.232114) scale(0.1 -0.1)">
       <use xlink:href="#DejaVuSans-35"/>
       <use xlink:href="#DejaVuSans-2e" transform="translate(63.623047 0)"/>
       <use xlink:href="#DejaVuSans-30" transform="translate(95.410156 0)"/>
      </g>
     </g>
    </g>
    <g id="ytick_5">
     <g id="line2d_25">
      <path d="M 43.78125 129.489578 
L 1137.26125 129.489578 
" clip-path="url(#p1ce95dc402)" style="fill: none; stroke: #b0b0b0; stroke-opacity: 0.3; stroke-width: 0.8; stroke-linecap: square"/>
     </g>
     <g id="line2d_26">
      <g>
       <use xlink:href="#m21f3339dd3" x="43.78125" y="129.489578" style="stroke: #000000; stroke-width: 0.8"/>
      </g>
     </g>
     <g id="text_14">
      <!-- 5.5 -->
      <g transform="translate(20.878125 133.288797) scale(0.1 -0.1)">
       <use xlink:href="#DejaVuSans-35"/>
       <use xlink:href="#DejaVuSans-2e" transform="translate(63.623047 0)"/>
       <use xlink:href="#DejaVuSans-35" transform="translate(95.410156 0)"/>
      </g>
     </g>
    </g>
    <g id="ytick_6">
     <g id="line2d_27">
      <path d="M 43.78125 68.546261 
L 1137.26125 68.546261 
" clip-path="url(#p1ce95dc402)" style="fill: none; stroke: #b0b0b0; stroke-opacity: 0.3; stroke-width: 0.8; stroke-linecap: square"/>
     </g>
     <g id="line2d_28">
      <g>
       <use xlink:href="#m21f3339dd3" x="43.78125" y="68.546261" style="stroke: #000000; stroke-width: 0.8"/>
      </g>
     </g>
     <g id="text_15">
      <!-- 6.0 -->
      <g transform="translate(20.878125 72.34548) scale(0.1 -0.1)">
       <use xlink:href="#DejaVuSans-36"/>
       <use xlink:href="#DejaVuSans-2e" transform="translate(63.623047 0)"/>
       <use xlink:href="#DejaVuSans-30" transform="translate(95.410156 0)"/>
      </g>
     </g>
    </g>
    <g id="text_16">
     <!-- Copper Price -->
     <g transform="translate(14.798438 235.716094) rotate(-90) scale(0.1 -0.1)">
      <defs>
       <path id="DejaVuSans-43" d="M 4122 4306 
L 4122 3641 
Q 3803 3938 3442 4084 
Q 3081 4231 2675 4231 
Q 1875 4231 1450 3742 
Q 1025 3253 1025 2328 
Q 1025 1406 1450 917 
Q 1875 428 2675 428 
Q 3081 428 3442 575 
Q 3803 722 4122 1019 
L 4122 359 
Q 3791 134 3420 21 
Q 3050 -91 2638 -91 
Q 1578 -91 968 557 
Q 359 1206 359 2328 
Q 359 3453 968 4101 
Q 1578 4750 2638 4750 
Q 3056 4750 3426 4639 
Q 3797 4528 4122 4306 
z
" transform="scale(0.015625)"/>
       <path id="DejaVuSans-6f" d="M 1959 3097 
Q 1497 3097 1228 2736 
Q 959 2375 959 1747 
Q 959 1119 1226 758 
Q 1494 397 1959 397 
Q 2419 397 2687 759 
Q 2956 1122 2956 1747 
Q 2956 2369 2687 2733 
Q 2419 3097 1959 3097 
z
M 1959 3584 
Q 2709 3584 3137 3096 
Q 3566 2609 3566 1747 
Q 3566 888 3137 398 
Q 2709 -91 1959 -91 
Q 1206 -91 779 398 
Q 353 888 353 1747 
Q 353 2609 779 3096 
Q 1206 3584 1959 3584 
z
" transform="scale(0.015625)"/>
       <path id="DejaVuSans-72" d="M 2631 2963 
Q 2534 3019 2420 3045 
Q 2306 3072 2169 3072 
Q 1681 3072 1420 2755 
Q 1159 2438 1159 1844 
L 1159 0 
L 581 0 
L 581 3500 
L 1159 3500 
L 1159 2956 
Q 1341 3275 1631 3429 
Q 1922 3584 2338 3584 
Q 2397 3584 2469 3576 
Q 2541 3569 2628 3553 
L 2631 2963 
z
" transform="scale(0.015625)"/>
       <path id="DejaVuSans-50" d="M 1259 4147 
L 1259 2394 
L 2053 2394 
Q 2494 2394 2734 2622 
Q 2975 2850 2975 3272 
Q 2975 3691 2734 3919 
Q 2494 4147 2053 4147 
L 1259 4147 
z
M 628 4666 
L 2053 4666 
Q 2838 4666 3239 4311 
Q 3641 3956 3641 3272 
Q 3641 2581 3239 2228 
Q 2838 1875 2053 1875 
L 1259 1875 
L 1259 0 
L 628 0 
L 628 4666 
z
" transform="scale(0.015625)"/>
       <path id="DejaVuSans-63" d="M 3122 3366 
L 3122 2828 
Q 2878 2963 2633 3030 
Q 2388 3097 2138 3097 
Q 1578 3097 1268 2742 
Q 959 2388 959 1747 
Q 959 1106 1268 751 
Q 1578 397 2138 397 
Q 2388 397 2633 464 
Q 2878 531 3122 666 
L 3122 134 
Q 2881 22 2623 -34 
Q 2366 -91 2075 -91 
Q 1284 -91 818 406 
Q 353 903 353 1747 
Q 353 2603 823 3093 
Q 1294 3584 2113 3584 
Q 2378 3584 2631 3529 
Q 2884 3475 3122 3366 
z
" transform="scale(0.015625)"/>
      </defs>
      <use xlink:href="#DejaVuSans-43"/>
      <use xlink:href="#DejaVuSans-6f" transform="translate(69.824219 0)"/>
      <use xlink:href="#DejaVuSans-70" transform="translate(131.005859 0)"/>
      <use xlink:href="#DejaVuSans-70" transform="translate(194.482422 0)"/>
      <use xlink:href="#DejaVuSans-65" transform="translate(257.958984 0)"/>
      <use xlink:href="#DejaVuSans-72" transform="translate(319.482422 0)"/>
      <use xlink:href="#DejaVuSans-20" transform="translate(360.595703 0)"/>
      <use xlink:href="#DejaVuSans-50" transform="translate(392.382812 0)"/>
      <use xlink:href="#DejaVuSans-72" transform="translate(450.935547 0)"/>
      <use xlink:href="#DejaVuSans-69" transform="translate(492.048828 0)"/>
      <use xlink:href="#DejaVuSans-63" transform="translate(519.832031 0)"/>
      <use xlink:href="#DejaVuSans-65" transform="translate(574.8125 0)"/>
     </g>
    </g>
   </g>
   <g id="line2d_29">
    <path d="M 93.484886 314.757259 
L 100.024839 328.164805 
L 106.564791 327.98193 
L 113.104743 346.874384 
L 119.644695 346.143059 
L 126.184647 352.115507 
L 132.724599 346.143059 
L 139.264551 338.037604 
L 145.804504 326.397432 
L 152.344456 335.965536 
L 158.884408 343.888174 
L 165.42436 340.719119 
L 171.964312 321.826723 
L 178.504264 336.331199 
L 185.044217 322.436112 
L 191.584169 331.211953 
L 198.124121 347.118169 
L 204.664073 349.00742 
L 211.204025 341.572351 
L 217.743977 335.173272 
L 224.283929 351.262304 
L 230.823882 341.145721 
L 237.363834 353.090617 
L 243.903786 345.716487 
L 250.443738 358.087955 
L 256.98369 363.511924 
L 263.523642 368.1436 
L 270.063594 356.930029 
L 276.603547 351.9936 
L 283.143499 363.085323 
L 289.683451 344.314805 
L 296.223403 337.123463 
L 302.763355 323.411222 
L 309.303307 334.259131 
L 315.84326 326.336493 
L 322.383212 325.056689 
L 328.923164 326.884972 
L 335.463116 337.367218 
L 342.003068 344.010052 
L 348.54302 338.281389 
L 355.082972 330.541538 
L 361.622925 334.076285 
L 368.162877 350.591918 
L 374.702829 332.065156 
L 381.242781 326.702184 
L 387.782733 329.993088 
L 394.322685 326.336493 
L 400.862638 298.607259 
L 407.40259 312.807069 
L 413.942542 311.892927 
L 420.482494 283.127674 
L 427.022446 280.9337 
L 433.562398 251.132456 
L 440.10235 242.966062 
L 446.642303 242.417525 
L 453.182255 227.791143 
L 459.722207 183.485337 
L 466.262159 217.430774 
L 472.802111 237.968666 
L 479.342063 252.046569 
L 485.882016 245.159979 
L 492.421968 252.107537 
L 498.96192 264.72279 
L 505.501872 232.057157 
L 512.041824 239.370406 
L 518.581776 285.626373 
L 525.121728 299.582398 
L 531.661681 302.081038 
L 538.201633 314.757259 
L 544.741585 296.778976 
L 551.281537 288.612582 
L 557.821489 294.645969 
L 564.361441 310.552155 
L 570.901394 290.989344 
L 577.441346 278.008458 
L 583.981298 246.378873 
L 590.52125 248.633758 
L 597.061202 257.287721 
L 603.601154 270.14673 
L 610.141106 270.939023 
L 616.681059 269.963942 
L 623.221011 277.399011 
L 629.760963 306.103296 
L 636.300915 303.299932 
L 642.840867 302.507639 
L 649.380819 295.438204 
L 655.920772 294.1584 
L 662.460724 307.32219 
L 669.000676 304.701614 
L 675.540628 307.504978 
L 682.08058 278.861661 
L 688.620532 271.182778 
L 695.160484 276.972409 
L 701.700437 280.38522 
L 708.240389 241.442445 
L 714.780341 232.30097 
L 721.320293 244.063021 
L 727.860245 249.608838 
L 734.400197 229.070947 
L 740.94015 206.339081 
L 747.480102 179.767803 
L 754.020054 176.720625 
L 760.560006 265.454115 
L 767.099958 250.462041 
L 773.63991 223.159438 
L 780.179862 210.483275 
L 786.719815 235.835659 
L 793.259767 237.846788 
L 799.799719 244.6115 
L 806.339671 214.017964 
L 812.879623 232.788481 
L 819.419575 211.153632 
L 825.959528 214.444565 
L 832.49948 211.641143 
L 839.039432 182.083655 
L 845.579384 188.17801 
L 852.119336 121.932631 
L 858.659288 119.982354 
L 865.19924 97.372424 
L 871.739193 262.041304 
L 878.279145 256.800152 
L 884.819097 254.057698 
L 891.359049 257.775232 
L 897.899001 249.121327 
L 904.438953 253.509219 
L 910.978906 240.589242 
L 917.518858 242.966062 
L 924.05881 225.109657 
L 930.598762 183.363401 
L 937.138714 208.898747 
L 943.678666 198.782134 
L 950.218618 179.036536 
L 956.758571 182.449347 
L 963.298523 197.989841 
L 969.838475 184.399508 
L 976.378427 189.396846 
L 982.918379 167.822907 
L 989.458331 143.872204 
L 995.998283 155.87801 
L 1002.538236 136.863795 
L 1009.078188 97.00679 
L 1015.61814 112.425465 
L 1022.158092 86.158853 
L 1028.698044 94.325305 
L 1035.237996 79.394199 
L 1041.777949 81.100604 
L 1048.317901 85.183772 
L 1054.857853 93.837735 
L 1061.397805 89.14512 
L 1067.937757 67.997782 
L 1074.477709 98.164717 
L 1081.017661 103.344901 
L 1087.557614 148.686697 
L 1087.557614 148.686697 
" clip-path="url(#p1ce95dc402)" style="fill: none; stroke: #000000; stroke-opacity: 0.9; stroke-width: 1.5; stroke-linecap: square"/>
   </g>
   <g id="line2d_30">
    <path d="M 93.484886 297.578011 
L 100.024839 313.442379 
L 106.564791 327.115127 
L 113.104743 327.276672 
L 119.644695 346.220068 
L 126.184647 345.33827 
L 132.724599 351.102416 
L 139.264551 345.209447 
L 145.804504 337.170336 
L 152.344456 325.557248 
L 158.884408 335.561456 
L 165.42436 343.741421 
L 171.964312 340.281243 
L 178.504264 321.120216 
L 185.044217 336.140943 
L 191.584169 321.634811 
L 198.124121 330.510822 
L 204.664073 346.576141 
L 211.204025 348.564981 
L 217.743977 341.021896 
L 224.283929 334.249483 
L 230.823882 350.390242 
L 237.363834 340.102727 
L 243.903786 352.156162 
L 250.443738 344.682618 
L 256.98369 357.076114 
L 263.523642 362.590808 
L 270.063594 367.019587 
L 276.603547 355.631946 
L 283.143499 350.674827 
L 289.683451 362.182311 
L 296.223403 343.238857 
L 302.763355 335.875566 
L 309.303307 322.177071 
L 315.84326 333.640036 
L 322.383212 325.234158 
L 328.923164 323.867552 
L 335.463116 325.752851 
L 342.003068 336.498701 
L 348.54302 342.880547 
L 355.082972 337.162897 
L 361.622925 329.37812 
L 368.162877 332.944658 
L 374.702829 349.754059 
L 381.242781 331.292188 
L 387.782733 325.49227 
L 394.322685 328.599369 
L 400.862638 324.680623 
L 407.40259 296.615077 
L 413.942542 311.045595 
L 420.482494 310.15938 
L 427.022446 281.078012 
L 433.562398 279.635762 
L 440.10235 249.76059 
L 446.642303 241.136268 
L 453.182255 241.173523 
L 459.722207 226.826292 
L 466.262159 182.685256 
L 472.802111 217.622396 
L 479.342063 237.814589 
L 485.882016 250.868707 
L 492.421968 242.105769 
L 498.96192 249.292142 
L 505.501872 261.790458 
L 512.041824 229.145748 
L 518.581776 237.494697 
L 525.121728 284.728243 
L 531.661681 299.103663 
L 538.201633 301.789217 
L 544.741585 314.183759 
L 551.281537 295.698407 
L 557.821489 287.709629 
L 564.361441 294.178044 
L 570.901394 311.171831 
L 577.441346 291.905375 
L 583.981298 279.471398 
L 590.52125 248.232032 
L 597.061202 250.569912 
L 603.601154 259.319947 
L 610.141106 272.411785 
L 616.681059 272.91063 
L 623.221011 271.46466 
L 629.760963 278.363397 
L 636.300915 307.255933 
L 642.840867 303.835392 
L 649.380819 302.686184 
L 655.920772 295.605648 
L 662.460724 294.611678 
L 669.000676 308.035788 
L 675.540628 305.395161 
L 682.08058 308.178706 
L 688.620532 279.48587 
L 695.160484 271.687667 
L 701.700437 277.522051 
L 708.240389 281.032446 
L 714.780341 241.779367 
L 721.320293 232.735767 
L 727.860245 244.636259 
L 734.400197 250.142846 
L 740.94015 229.722764 
L 747.480102 207.106092 
L 754.020054 180.154534 
L 760.560006 177.698379 
L 767.099958 266.322429 
L 773.63991 249.774016 
L 780.179862 220.894789 
L 786.719815 207.540714 
L 793.259767 233.330102 
L 799.799719 235.648629 
L 806.339671 242.589851 
L 812.879623 212.304874 
L 819.419575 232.741579 
L 825.959528 212.506028 
L 832.49948 216.138475 
L 839.039432 212.236641 
L 845.579384 182.772378 
L 852.119336 189.733943 
L 858.659288 124.07703 
L 865.19924 123.107587 
L 871.739193 101.193761 
L 878.279145 265.737508 
L 884.819097 258.957859 
L 891.359049 253.588959 
L 897.899001 255.868487 
L 904.438953 247.07829 
L 910.978906 252.387094 
L 917.518858 240.278648 
L 924.05881 244.119281 
L 930.598762 228.083196 
L 937.138714 187.992898 
L 943.678666 213.928517 
L 950.218618 203.652132 
L 956.758571 183.143184 
L 963.298523 186.706352 
L 969.838475 202.198549 
L 976.378427 188.765662 
L 982.918379 194.071502 
L 989.458331 171.846269 
L 995.998283 147.61938 
L 1002.538236 160.259509 
L 1009.078188 141.61238 
L 1015.61814 102.220684 
L 1022.158092 117.535848 
L 1028.698044 91.457137 
L 1035.237996 100.977554 
L 1041.777949 85.443859 
L 1048.317901 87.099759 
L 1054.857853 86.794105 
L 1061.397805 95.400584 
L 1067.937757 90.652058 
L 1074.477709 69.359361 
L 1081.017661 97.283791 
L 1087.557614 101.266353 
L 1087.557614 101.266353 
" clip-path="url(#p1ce95dc402)" style="fill: none; stroke: #ff5722; stroke-opacity: 0.7; stroke-linecap: square"/>
   </g>
   <g id="line2d_31">
    <path d="M 93.484886 294.19705 
L 100.024839 308.039741 
L 106.564791 324.027876 
L 113.104743 324.76295 
L 119.644695 341.369541 
L 126.184647 339.947285 
L 132.724599 345.138047 
L 145.804504 331.258653 
L 152.344456 326.374009 
L 158.884408 336.273108 
L 165.42436 341.193495 
L 171.964312 337.044361 
L 178.504264 320.538114 
L 185.044217 330.236844 
L 191.584169 316.461456 
L 198.124121 323.51703 
L 204.664073 338.401291 
L 211.204025 342.098192 
L 217.743977 333.99977 
L 224.283929 327.717455 
L 230.823882 344.654284 
L 237.363834 335.566658 
L 243.903786 346.06544 
L 250.443738 339.341819 
L 256.98369 354.699293 
L 263.523642 358.166621 
L 270.063594 359.986128 
L 276.603547 351.260241 
L 283.143499 348.978244 
L 289.683451 361.017323 
L 296.223403 347.268496 
L 302.763355 339.007367 
L 309.303307 324.818309 
L 315.84326 337.440101 
L 322.383212 330.186715 
L 328.923164 326.144522 
L 335.463116 326.39252 
L 342.003068 333.403574 
L 348.54302 338.088256 
L 355.082972 332.005118 
L 361.622925 324.797066 
L 368.162877 328.327745 
L 374.702829 344.018509 
L 381.242781 326.761903 
L 387.782733 322.815375 
L 394.322685 325.44156 
L 400.862638 323.565008 
L 407.40259 296.999425 
L 413.942542 308.263735 
L 420.482494 307.505559 
L 427.022446 281.672871 
L 433.562398 277.959405 
L 440.10235 254.26414 
L 446.642303 251.620607 
L 453.182255 254.879225 
L 459.722207 240.371466 
L 466.262159 202.245742 
L 472.802111 227.152171 
L 479.342063 239.40458 
L 485.882016 249.372464 
L 492.421968 240.939473 
L 498.96192 245.929256 
L 505.501872 257.396696 
L 512.041824 228.598373 
L 518.581776 234.01342 
L 525.121728 276.054287 
L 531.661681 289.655721 
L 538.201633 289.504958 
L 544.741585 299.995748 
L 551.281537 286.519969 
L 557.821489 284.268629 
L 564.361441 289.180183 
L 570.901394 304.479712 
L 577.441346 288.017723 
L 583.981298 275.679645 
L 590.52125 251.485129 
L 597.061202 250.14674 
L 603.601154 254.25362 
L 610.141106 263.493434 
L 616.681059 258.67063 
L 623.221011 257.920416 
L 629.760963 264.983923 
L 636.300915 291.15179 
L 642.840867 286.86433 
L 649.380819 288.818269 
L 655.920772 284.444036 
L 662.460724 284.376965 
L 669.000676 296.166855 
L 675.540628 294.305618 
L 682.08058 294.864501 
L 688.620532 271.113615 
L 695.160484 264.42783 
L 701.700437 272.953581 
L 708.240389 272.775443 
L 714.780341 243.2215 
L 721.320293 235.690998 
L 727.860245 242.877487 
L 734.400197 247.013138 
L 740.94015 230.322795 
L 747.480102 206.435037 
L 754.020054 184.612227 
L 760.560006 180.620889 
L 767.099958 259.223759 
L 773.63991 244.89251 
L 780.179862 213.341504 
L 786.719815 197.132396 
L 793.259767 221.215786 
L 799.799719 223.892681 
L 806.339671 227.784808 
L 812.879623 203.291264 
L 819.419575 218.341342 
L 825.959528 195.976795 
L 832.49948 200.026136 
L 839.039432 194.079407 
L 845.579384 175.273145 
L 852.119336 181.089395 
L 858.659288 124.447196 
L 865.19924 125.525905 
L 871.739193 110.473735 
L 878.279145 250.065372 
L 884.819097 240.553498 
L 891.359049 232.528568 
L 897.899001 231.412721 
L 904.438953 224.060008 
L 910.978906 230.160059 
L 917.518858 225.447567 
L 924.05881 227.197388 
L 930.598762 208.722062 
L 937.138714 176.748639 
L 943.678666 194.852287 
L 950.218618 186.751918 
L 956.758571 167.343183 
L 963.298523 168.11711 
L 969.838475 183.209441 
L 976.378427 165.061099 
L 982.918379 167.881375 
L 995.998283 122.851103 
L 1002.538236 128.696065 
L 1009.078188 113.51016 
L 1015.61814 73.818159 
L 1022.158092 89.28455 
L 1028.698044 64.384341 
L 1035.237996 66.278125 
L 1041.777949 50.26 
L 1048.317901 46.625054 
L 1054.857853 67.591929 
L 1061.397805 72.638321 
L 1067.937757 64.76462 
L 1074.477709 38.825398 
L 1081.017661 72.039859 
L 1087.557614 75.675735 
L 1087.557614 75.675735 
" clip-path="url(#p1ce95dc402)" style="fill: none; stroke: #4caf50; stroke-opacity: 0.7; stroke-linecap: square"/>
   </g>
   <g id="line2d_32">
    <path d="M 93.484886 302.160023 
L 100.024839 319.560941 
L 106.564791 330.308913 
L 113.104743 335.564479 
L 119.644695 346.803042 
L 126.184647 343.408306 
L 132.724599 352.823555 
L 139.264551 344.492943 
L 145.804504 339.872687 
L 152.344456 327.924478 
L 158.884408 335.708006 
L 165.42436 348.38539 
L 171.964312 344.598518 
L 178.504264 323.829803 
L 185.044217 336.333436 
L 191.584169 325.837677 
L 198.124121 334.119439 
L 204.664073 347.303659 
L 211.204025 351.351897 
L 217.743977 345.72843 
L 224.283929 335.294918 
L 230.823882 349.199565 
L 237.363834 343.669498 
L 243.903786 352.978067 
L 250.443738 349.879541 
L 256.98369 355.877649 
L 263.523642 364.996689 
L 270.063594 368.970852 
L 276.603547 358.086677 
L 283.143499 348.759712 
L 289.683451 359.145828 
L 296.223403 348.371673 
L 302.763355 341.261903 
L 309.303307 327.423048 
L 315.84326 341.619951 
L 322.383212 336.2378 
L 328.923164 329.380735 
L 335.463116 331.843457 
L 342.003068 340.938261 
L 348.54302 346.32884 
L 361.622925 333.929299 
L 368.162877 334.482021 
L 374.702829 344.870462 
L 381.242781 337.614897 
L 387.782733 326.997085 
L 394.322685 334.014068 
L 400.862638 335.480931 
L 407.40259 305.874768 
L 413.942542 315.708307 
L 420.482494 320.628578 
L 427.022446 295.053914 
L 433.562398 287.753858 
L 440.10235 260.000708 
L 446.642303 254.179924 
L 453.182255 253.330616 
L 459.722207 251.168839 
L 466.262159 197.291238 
L 472.802111 227.441376 
L 479.342063 244.503978 
L 485.882016 255.674017 
L 492.421968 237.513179 
L 498.96192 243.355351 
L 505.501872 256.273642 
L 512.041824 222.329425 
L 518.581776 234.175285 
L 525.121728 279.712364 
L 531.661681 297.619334 
L 538.201633 301.881919 
L 544.741585 311.266451 
L 551.281537 294.401342 
L 557.821489 286.953835 
L 564.361441 291.814824 
L 570.901394 312.829852 
L 577.441346 293.176461 
L 583.981298 278.381821 
L 590.52125 248.731923 
L 597.061202 252.577379 
L 603.601154 260.361982 
L 610.141106 272.890869 
L 616.681059 275.137036 
L 623.221011 271.344294 
L 629.760963 275.637043 
L 636.300915 304.093387 
L 642.840867 301.273983 
L 649.380819 299.927863 
L 655.920772 293.057838 
L 662.460724 287.940714 
L 669.000676 302.937205 
L 675.540628 303.276626 
L 682.08058 305.462638 
L 688.620532 280.704416 
L 695.160484 269.689441 
L 701.700437 279.772402 
L 708.240389 284.471585 
L 714.780341 245.96471 
L 721.320293 234.301056 
L 727.860245 246.185159 
L 734.400197 253.066344 
L 740.94015 232.725944 
L 747.480102 214.610207 
L 754.020054 186.469396 
L 760.560006 183.275407 
L 767.099958 266.724387 
L 773.63991 251.811531 
L 780.179862 228.016475 
L 786.719815 200.138134 
L 793.259767 228.038735 
L 799.799719 234.567421 
L 806.339671 241.335039 
L 812.879623 214.1739 
L 819.419575 230.689242 
L 825.959528 205.203763 
L 832.49948 215.338452 
L 839.039432 211.498633 
L 845.579384 186.63312 
L 852.119336 186.355597 
L 858.659288 129.066929 
L 865.19924 122.040502 
L 871.739193 101.513828 
L 878.279145 261.315035 
L 884.819097 259.166162 
L 891.359049 251.790957 
L 897.899001 251.921727 
L 904.438953 241.291332 
L 910.978906 246.810589 
L 917.518858 236.990098 
L 924.05881 236.154099 
L 930.598762 222.786133 
L 937.138714 174.512295 
L 943.678666 209.264323 
L 950.218618 198.846822 
L 956.758571 175.486562 
L 963.298523 179.390022 
L 969.838475 195.037865 
L 976.378427 184.41677 
L 982.918379 187.954422 
L 989.458331 168.407362 
L 995.998283 146.739675 
L 1002.538236 155.903932 
L 1009.078188 147.488842 
L 1015.61814 102.23783 
L 1022.158092 118.427816 
L 1028.698044 94.783407 
L 1035.237996 108.56885 
L 1041.777949 85.633912 
L 1048.317901 101.516792 
L 1054.857853 91.86235 
L 1061.397805 91.876938 
L 1067.937757 93.682671 
L 1074.477709 75.09372 
L 1081.017661 94.36936 
L 1087.557614 99.915293 
L 1087.557614 99.915293 
" clip-path="url(#p1ce95dc402)" style="fill: none; stroke: #999999; stroke-opacity: 0.7; stroke-linecap: square"/>
   </g>
   <g id="line2d_33">
    <path d="M 93.484886 301.102703 
L 100.024839 316.284277 
L 106.564791 329.790743 
L 113.104743 329.62205 
L 119.644695 347.88236 
L 126.184647 346.499045 
L 132.724599 351.824296 
L 139.264551 346.016938 
L 145.804504 337.649304 
L 152.344456 325.396052 
L 158.884408 334.398735 
L 165.42436 342.234978 
L 171.964312 338.668207 
L 178.504264 320.35707 
L 185.044217 334.572398 
L 191.584169 320.589318 
L 198.124121 329.657038 
L 204.664073 345.418825 
L 211.204025 347.301625 
L 217.743977 339.701524 
L 224.283929 333.851709 
L 230.823882 349.775942 
L 237.363834 340.196678 
L 243.903786 352.157354 
L 250.443738 344.857269 
L 256.98369 356.292277 
L 263.523642 362.097659 
L 270.063594 367.01671 
L 276.603547 355.98552 
L 283.143499 353.280117 
L 289.683451 364.930606 
L 296.223403 347.402521 
L 302.763355 340.450546 
L 309.303307 328.131212 
L 315.84326 337.362539 
L 322.383212 328.810025 
L 328.923164 326.995894 
L 335.463116 328.349801 
L 342.003068 337.275708 
L 348.54302 342.642516 
L 355.082972 336.964737 
L 361.622925 329.236801 
L 368.162877 333.152496 
L 374.702829 349.079285 
L 381.242781 330.645399 
L 387.782733 324.640084 
L 394.322685 328.656995 
L 400.862638 325.404915 
L 407.40259 298.135033 
L 413.942542 312.633697 
L 420.482494 311.947967 
L 427.022446 285.001756 
L 433.562398 283.169172 
L 440.10235 253.681777 
L 446.642303 244.56698 
L 453.182255 244.59633 
L 459.722207 230.240439 
L 466.262159 186.594413 
L 472.802111 220.426225 
L 479.342063 240.727626 
L 485.882016 254.442162 
L 492.421968 247.691225 
L 498.96192 254.976402 
L 505.501872 267.117104 
L 512.041824 234.923697 
L 518.581776 242.196146 
L 525.121728 287.668712 
L 531.661681 301.217374 
L 538.201633 303.560368 
L 544.741585 315.675963 
L 551.281537 297.73168 
L 557.821489 289.469156 
L 564.361441 295.518991 
L 570.901394 310.939758 
L 577.441346 291.044617 
L 583.981298 277.861705 
L 590.52125 246.949264 
L 597.061202 249.524332 
L 603.601154 258.819301 
L 610.141106 272.404404 
L 616.681059 272.245155 
L 623.221011 270.700381 
L 629.760963 276.541217 
L 636.300915 304.066071 
L 642.840867 301.19645 
L 649.380819 300.864585 
L 655.920772 293.841587 
L 662.460724 293.166813 
L 669.000676 305.211327 
L 675.540628 303.286565 
L 682.08058 306.670664 
L 688.620532 279.26298 
L 695.160484 273.206694 
L 701.700437 280.022784 
L 708.240389 285.069234 
L 714.780341 248.033377 
L 721.320293 238.22544 
L 727.860245 248.982943 
L 734.400197 253.097496 
L 740.94015 230.51587 
L 747.480102 207.086331 
L 754.020054 178.882343 
L 760.560006 176.491923 
L 767.099958 264.844144 
L 773.63991 249.77791 
L 780.179862 223.113697 
L 786.719815 210.713895 
L 793.259767 235.899417 
L 799.799719 237.900375 
L 806.339671 244.824917 
L 812.879623 214.490015 
L 819.419575 232.960808 
L 825.959528 211.521648 
L 832.49948 214.759401 
L 839.039432 211.682641 
L 845.579384 182.654336 
L 852.119336 188.652444 
L 858.659288 122.576195 
L 865.19924 120.591511 
L 871.739193 98.298393 
L 878.279145 262.491444 
L 884.819097 257.469404 
L 891.359049 254.766298 
L 897.899001 258.692425 
L 904.438953 250.063279 
L 910.978906 254.453089 
L 917.518858 241.720723 
L 924.05881 243.600966 
L 930.598762 225.672492 
L 937.138714 183.487197 
L 943.678666 208.643891 
L 950.218618 200.561887 
L 956.758571 183.067338 
L 963.298523 186.44516 
L 969.838475 202.056794 
L 976.378427 189.149139 
L 982.918379 192.165512 
L 989.458331 169.126714 
L 995.998283 143.543535 
L 1002.538236 154.896072 
L 1009.078188 134.650234 
L 1015.61814 93.85831 
L 1022.158092 108.874038 
L 1028.698044 82.298052 
L 1035.237996 90.852107 
L 1041.777949 75.679512 
L 1048.317901 77.503204 
L 1054.857853 81.470655 
L 1061.397805 90.500597 
L 1067.937757 85.313729 
L 1074.477709 64.004235 
L 1081.017661 94.033542 
L 1087.557614 99.240868 
L 1087.557614 99.240868 
" clip-path="url(#p1ce95dc402)" style="fill: none; stroke: #9c27b0; stroke-opacity: 0.7; stroke-linecap: square"/>
   </g>
   <g id="line2d_34">
    <path d="M 93.484886 299.216706 
L 100.024839 314.757259 
L 106.564791 328.164805 
L 113.104743 327.981959 
L 119.644695 346.874384 
L 126.184647 346.143059 
L 132.724599 352.115507 
L 139.264551 346.143059 
L 145.804504 338.037604 
L 152.344456 326.397432 
L 158.884408 335.965536 
L 165.42436 343.888174 
L 171.964312 340.719119 
L 178.504264 321.826694 
L 185.044217 336.331199 
L 191.584169 322.436112 
L 198.124121 331.211953 
L 204.664073 347.118169 
L 211.204025 349.00742 
L 217.743977 341.572322 
L 224.283929 335.173272 
L 230.823882 351.262304 
L 237.363834 341.145721 
L 243.903786 353.090617 
L 250.443738 345.716458 
L 256.98369 358.087955 
L 263.523642 363.511924 
L 270.063594 368.1436 
L 276.603547 356.930029 
L 283.143499 351.993629 
L 289.683451 363.085323 
L 296.223403 344.314776 
L 302.763355 337.123463 
L 309.303307 323.411222 
L 315.84326 334.259131 
L 322.383212 326.336493 
L 328.923164 325.056689 
L 335.463116 326.884972 
L 342.003068 337.367218 
L 348.54302 344.010052 
L 355.082972 338.281389 
L 361.622925 330.541567 
L 368.162877 334.076285 
L 374.702829 350.591918 
L 381.242781 332.065156 
L 387.782733 326.702155 
L 394.322685 329.993088 
L 400.862638 326.336493 
L 407.40259 298.607259 
L 413.942542 312.807069 
L 420.482494 311.892927 
L 427.022446 283.127674 
L 433.562398 280.9337 
L 440.10235 251.132456 
L 446.642303 242.966062 
L 453.182255 242.417525 
L 459.722207 227.791143 
L 466.262159 183.485337 
L 472.802111 217.430774 
L 479.342063 237.968666 
L 485.882016 252.046569 
L 492.421968 245.159979 
L 498.96192 252.107537 
L 505.501872 264.72279 
L 512.041824 232.057157 
L 518.581776 239.370406 
L 525.121728 285.626373 
L 531.661681 299.582398 
L 538.201633 302.081038 
L 544.741585 314.757259 
L 551.281537 296.778976 
L 557.821489 288.612582 
L 564.361441 294.645969 
L 570.901394 310.552155 
L 577.441346 290.989344 
L 583.981298 278.008458 
L 590.52125 246.378873 
L 597.061202 248.633758 
L 603.601154 257.287721 
L 610.141106 270.14673 
L 616.681059 270.939023 
L 623.221011 269.963942 
L 629.760963 277.399011 
L 636.300915 306.103296 
L 642.840867 303.299932 
L 649.380819 302.507639 
L 655.920772 295.438204 
L 662.460724 294.1584 
L 669.000676 307.32219 
L 675.540628 304.701614 
L 682.08058 307.504978 
L 688.620532 278.861661 
L 695.160484 271.182778 
L 701.700437 276.972409 
L 708.240389 280.38522 
L 714.780341 241.442445 
L 721.320293 232.30097 
L 727.860245 244.063021 
L 734.400197 249.608838 
L 740.94015 229.070947 
L 747.480102 206.339081 
L 754.020054 179.767803 
L 760.560006 176.720625 
L 767.099958 265.454115 
L 773.63991 250.462041 
L 780.179862 223.159438 
L 786.719815 210.483275 
L 793.259767 235.835659 
L 799.799719 237.846788 
L 806.339671 244.6115 
L 812.879623 214.017964 
L 819.419575 232.788481 
L 825.959528 211.153632 
L 832.49948 214.444565 
L 839.039432 211.641143 
L 845.579384 182.083655 
L 852.119336 188.17801 
L 858.659288 121.932631 
L 865.19924 119.982412 
L 871.739193 97.372424 
L 878.279145 262.041304 
L 884.819097 256.800152 
L 891.359049 254.057698 
L 897.899001 257.775232 
L 904.438953 249.121327 
L 910.978906 253.509219 
L 917.518858 240.589242 
L 924.05881 242.966062 
L 930.598762 225.109657 
L 937.138714 183.363459 
L 943.678666 208.898747 
L 950.218618 198.782134 
L 956.758571 179.036478 
L 963.298523 182.449347 
L 969.838475 197.989841 
L 976.378427 184.399508 
L 982.918379 189.396846 
L 989.458331 167.822907 
L 995.998283 143.872204 
L 1002.538236 155.87801 
L 1009.078188 136.863737 
L 1015.61814 97.00679 
L 1022.158092 112.425465 
L 1028.698044 86.158853 
L 1035.237996 94.325305 
L 1041.777949 79.394199 
L 1048.317901 81.100604 
L 1054.857853 85.183772 
L 1061.397805 93.837735 
L 1067.937757 89.14512 
L 1074.477709 67.997782 
L 1081.017661 98.164717 
L 1087.557614 103.344901 
L 1087.557614 103.344901 
" clip-path="url(#p1ce95dc402)" style="fill: none; stroke: #999999; stroke-opacity: 0.7; stroke-linecap: square"/>
   </g>
   <g id="patch_3">
    <path d="M 43.78125 385.478125 
L 43.78125 22.318125 
" style="fill: none; stroke: #000000; stroke-width: 0.8; stroke-linejoin: miter; stroke-linecap: square"/>
   </g>
   <g id="patch_4">
    <path d="M 1137.26125 385.478125 
L 1137.26125 22.318125 
" style="fill: none; stroke: #000000; stroke-width: 0.8; stroke-linejoin: miter; stroke-linecap: square"/>
   </g>
   <g id="patch_5">
    <path d="M 43.78125 385.478125 
L 1137.26125 385.478125 
" style="fill: none; stroke: #000000; stroke-width: 0.8; stroke-linejoin: miter; stroke-linecap: square"/>
   </g>
   <g id="patch_6">
    <path d="M 43.78125 22.318125 
L 1137.26125 22.318125 
" style="fill: none; stroke: #000000; stroke-width: 0.8; stroke-linejoin: miter; stroke-linecap: square"/>
   </g>
   <g id="text_17">
    <!-- All Models - Copper Price Prediction Comparison -->
    <g transform="translate(446.332813 16.318125) scale(0.12 -0.12)">
     <defs>
      <path id="DejaVuSans-41" d="M 2188 4044 
L 1331 1722 
L 3047 1722 
L 2188 4044 
z
M 1831 4666 
L 2547 4666 
L 4325 0 
L 3669 0 
L 3244 1197 
L 1141 1197 
L 716 0 
L 50 0 
L 1831 4666 
z
" transform="scale(0.015625)"/>
      <path id="DejaVuSans-6c" d="M 603 4863 
L 1178 4863 
L 1178 0 
L 603 0 
L 603 4863 
z
" transform="scale(0.015625)"/>
      <path id="DejaVuSans-4d" d="M 628 4666 
L 1569 4666 
L 2759 1491 
L 3956 4666 
L 4897 4666 
L 4897 0 
L 4281 0 
L 4281 4097 
L 3078 897 
L 2444 897 
L 1241 4097 
L 1241 0 
L 628 0 
L 628 4666 
z
" transform="scale(0.015625)"/>
      <path id="DejaVuSans-64" d="M 2906 2969 
L 2906 4863 
L 3481 4863 
L 3481 0 
L 2906 0 
L 2906 525 
Q 2725 213 2448 61 
Q 2172 -91 1784 -91 
Q 1150 -91 751 415 
Q 353 922 353 1747 
Q 353 2572 751 3078 
Q 1150 3584 1784 3584 
Q 2172 3584 2448 3432 
Q 2725 3281 2906 2969 
z
M 947 1747 
Q 947 1113 1208 752 
Q 1469 391 1925 391 
Q 2381 391 2643 752 
Q 2906 1113 2906 1747 
Q 2906 2381 2643 2742 
Q 2381 3103 1925 3103 
Q 1469 3103 1208 2742 
Q 947 2381 947 1747 
z
" transform="scale(0.015625)"/>
      <path id="DejaVuSans-73" d="M 2834 3397 
L 2834 2853 
Q 2591 2978 2328 3040 
Q 2066 3103 1784 3103 
Q 1356 3103 1142 2972 
Q 928 2841 928 2578 
Q 928 2378 1081 2264 
Q 1234 2150 1697 2047 
L 1894 2003 
Q 2506 1872 2764 1633 
Q 3022 1394 3022 966 
Q 3022 478 2636 193 
Q 2250 -91 1575 -91 
Q 1294 -91 989 -36 
Q 684 19 347 128 
L 347 722 
Q 666 556 975 473 
Q 1284 391 1588 391 
Q 1994 391 2212 530 
Q 2431 669 2431 922 
Q 2431 1156 2273 1281 
Q 2116 1406 1581 1522 
L 1381 1569 
Q 847 1681 609 1914 
Q 372 2147 372 2553 
Q 372 3047 722 3315 
Q 1072 3584 1716 3584 
Q 2034 3584 2315 3537 
Q 2597 3491 2834 3397 
z
" transform="scale(0.015625)"/>
      <path id="DejaVuSans-2d" d="M 313 2009 
L 1997 2009 
L 1997 1497 
L 313 1497 
L 313 2009 
z
" transform="scale(0.015625)"/>
      <path id="DejaVuSans-6e" d="M 3513 2113 
L 3513 0 
L 2938 0 
L 2938 2094 
Q 2938 2591 2744 2837 
Q 2550 3084 2163 3084 
Q 1697 3084 1428 2787 
Q 1159 2491 1159 1978 
L 1159 0 
L 581 0 
L 581 3500 
L 1159 3500 
L 1159 2956 
Q 1366 3272 1645 3428 
Q 1925 3584 2291 3584 
Q 2894 3584 3203 3211 
Q 3513 2838 3513 2113 
z
" transform="scale(0.015625)"/>
      <path id="DejaVuSans-61" d="M 2194 1759 
Q 1497 1759 1228 1600 
Q 959 1441 959 1056 
Q 959 750 1161 570 
Q 1363 391 1709 391 
Q 2188 391 2477 730 
Q 2766 1069 2766 1631 
L 2766 1759 
L 2194 1759 
z
M 3341 1997 
L 3341 0 
L 2766 0 
L 2766 531 
Q 2569 213 2275 61 
Q 1981 -91 1556 -91 
Q 1019 -91 701 211 
Q 384 513 384 1019 
Q 384 1609 779 1909 
Q 1175 2209 1959 2209 
L 2766 2209 
L 2766 2266 
Q 2766 2663 2505 2880 
Q 2244 3097 1772 3097 
Q 1472 3097 1187 3025 
Q 903 2953 641 2809 
L 641 3341 
Q 956 3463 1253 3523 
Q 1550 3584 1831 3584 
Q 2591 3584 2966 3190 
Q 3341 2797 3341 1997 
z
" transform="scale(0.015625)"/>
     </defs>
     <use xlink:href="#DejaVuSans-41"/>
     <use xlink:href="#DejaVuSans-6c" transform="translate(68.408203 0)"/>
     <use xlink:href="#DejaVuSans-6c" transform="translate(96.191406 0)"/>
     <use xlink:href="#DejaVuSans-20" transform="translate(123.974609 0)"/>
     <use xlink:href="#DejaVuSans-4d" transform="translate(155.761719 0)"/>
     <use xlink:href="#DejaVuSans-6f" transform="translate(242.041016 0)"/>
     <use xlink:href="#DejaVuSans-64" transform="translate(303.222656 0)"/>
     <use xlink:href="#DejaVuSans-65" transform="translate(366.699219 0)"/>
     <use xlink:href="#DejaVuSans-6c" transform="translate(428.222656 0)"/>
     <use xlink:href="#DejaVuSans-73" transform="translate(456.005859 0)"/>
     <use xlink:href="#DejaVuSans-20" transform="translate(508.105469 0)"/>
     <use xlink:href="#DejaVuSans-2d" transform="translate(539.892578 0)"/>
     <use xlink:href="#DejaVuSans-20" transform="translate(575.976562 0)"/>
     <use xlink:href="#DejaVuSans-43" transform="translate(607.763672 0)"/>
     <use xlink:href="#DejaVuSans-6f" transform="translate(677.587891 0)"/>
     <use xlink:href="#DejaVuSans-70" transform="translate(738.769531 0)"/>
     <use xlink:href="#DejaVuSans-70" transform="translate(802.246094 0)"/>
     <use xlink:href="#DejaVuSans-65" transform="translate(865.722656 0)"/>
     <use xlink:href="#DejaVuSans-72" transform="translate(927.246094 0)"/>
     <use xlink:href="#DejaVuSans-20" transform="translate(968.359375 0)"/>
     <use xlink:href="#DejaVuSans-50" transform="translate(1000.146484 0)"/>
     <use xlink:href="#DejaVuSans-72" transform="translate(1058.699219 0)"/>
     <use xlink:href="#DejaVuSans-69" transform="translate(1099.8125 0)"/>
     <use xlink:href="#DejaVuSans-63" transform="translate(1127.595703 0)"/>
     <use xlink:href="#DejaVuSans-65" transform="translate(1182.576172 0)"/>
     <use xlink:href="#DejaVuSans-20" transform="translate(1244.099609 0)"/>
     <use xlink:href="#DejaVuSans-50" transform="translate(1275.886719 0)"/>
     <use xlink:href="#DejaVuSans-72" transform="translate(1334.439453 0)"/>
     <use xlink:href="#DejaVuSans-65" transform="translate(1373.302734 0)"/>
     <use xlink:href="#DejaVuSans-64" transform="translate(1434.826172 0)"/>
     <use xlink:href="#DejaVuSans-69" transform="translate(1498.302734 0)"/>
     <use xlink:href="#DejaVuSans-63" transform="translate(1526.085938 0)"/>
     <use xlink:href="#DejaVuSans-74" transform="translate(1581.066406 0)"/>
     <use xlink:href="#DejaVuSans-69" transform="translate(1620.275391 0)"/>
     <use xlink:href="#DejaVuSans-6f" transform="translate(1648.058594 0)"/>
     <use xlink:href="#DejaVuSans-6e" transform="translate(1709.240234 0)"/>
     <use xlink:href="#DejaVuSans-20" transform="translate(1772.619141 0)"/>
     <use xlink:href="#DejaVuSans-43" transform="translate(1804.40625 0)"/>
     <use xlink:href="#DejaVuSans-6f" transform="translate(1874.230469 0)"/>
     <use xlink:href="#DejaVuSans-6d" transform="translate(1935.412109 0)"/>
     <use xlink:href="#DejaVuSans-70" transform="translate(2032.824219 0)"/>
     <use xlink:href="#DejaVuSans-61" transform="translate(2096.300781 0)"/>
     <use xlink:href="#DejaVuSans-72" transform="translate(2157.580078 0)"/>
     <use xlink:href="#DejaVuSans-69" transform="translate(2198.693359 0)"/>
     <use xlink:href="#DejaVuSans-73" transform="translate(2226.476562 0)"/>
     <use xlink:href="#DejaVuSans-6f" transform="translate(2278.576172 0)"/>
     <use xlink:href="#DejaVuSans-6e" transform="translate(2339.757812 0)"/>
    </g>
   </g>
   <g id="legend_1">
    <g id="patch_7">
     <path d="M 50.78125 118.386875 
L 142.779687 118.386875 
Q 144.779687 118.386875 144.779687 116.386875 
L 144.779687 29.318125 
Q 144.779687 27.318125 142.779687 27.318125 
L 50.78125 27.318125 
Q 48.78125 27.318125 48.78125 29.318125 
L 48.78125 116.386875 
Q 48.78125 118.386875 50.78125 118.386875 
z
" style="fill: #ffffff; opacity: 0.8; stroke: #cccccc; stroke-linejoin: miter"/>
    </g>
    <g id="line2d_35">
     <path d="M 52.78125 35.416563 
L 62.78125 35.416563 
L 72.78125 35.416563 
" style="fill: none; stroke: #000000; stroke-opacity: 0.9; stroke-width: 1.5; stroke-linecap: square"/>
    </g>
    <g id="text_18">
     <!-- True -->
     <g transform="translate(80.78125 38.916563) scale(0.1 -0.1)">
      <defs>
       <path id="DejaVuSans-75" d="M 544 1381 
L 544 3500 
L 1119 3500 
L 1119 1403 
Q 1119 906 1312 657 
Q 1506 409 1894 409 
Q 2359 409 2629 706 
Q 2900 1003 2900 1516 
L 2900 3500 
L 3475 3500 
L 3475 0 
L 2900 0 
L 2900 538 
Q 2691 219 2414 64 
Q 2138 -91 1772 -91 
Q 1169 -91 856 284 
Q 544 659 544 1381 
z
M 1991 3584 
L 1991 3584 
z
" transform="scale(0.015625)"/>
      </defs>
      <use xlink:href="#DejaVuSans-54"/>
      <use xlink:href="#DejaVuSans-72" transform="translate(46.333984 0)"/>
      <use xlink:href="#DejaVuSans-75" transform="translate(87.447266 0)"/>
      <use xlink:href="#DejaVuSans-65" transform="translate(150.826172 0)"/>
     </g>
    </g>
    <g id="line2d_36">
     <path d="M 52.78125 50.094688 
L 62.78125 50.094688 
L 72.78125 50.094688 
" style="fill: none; stroke: #ff5722; stroke-opacity: 0.7; stroke-linecap: square"/>
    </g>
    <g id="text_19">
     <!-- MDHGNN -->
     <g transform="translate(80.78125 53.594688) scale(0.1 -0.1)">
      <defs>
       <path id="DejaVuSans-44" d="M 1259 4147 
L 1259 519 
L 2022 519 
Q 2988 519 3436 956 
Q 3884 1394 3884 2338 
Q 3884 3275 3436 3711 
Q 2988 4147 2022 4147 
L 1259 4147 
z
M 628 4666 
L 1925 4666 
Q 3281 4666 3915 4102 
Q 4550 3538 4550 2338 
Q 4550 1131 3912 565 
Q 3275 0 1925 0 
L 628 0 
L 628 4666 
z
" transform="scale(0.015625)"/>
       <path id="DejaVuSans-48" d="M 628 4666 
L 1259 4666 
L 1259 2753 
L 3553 2753 
L 3553 4666 
L 4184 4666 
L 4184 0 
L 3553 0 
L 3553 2222 
L 1259 2222 
L 1259 0 
L 628 0 
L 628 4666 
z
" transform="scale(0.015625)"/>
       <path id="DejaVuSans-47" d="M 3809 666 
L 3809 1919 
L 2778 1919 
L 2778 2438 
L 4434 2438 
L 4434 434 
Q 4069 175 3628 42 
Q 3188 -91 2688 -91 
Q 1594 -91 976 548 
Q 359 1188 359 2328 
Q 359 3472 976 4111 
Q 1594 4750 2688 4750 
Q 3144 4750 3555 4637 
Q 3966 4525 4313 4306 
L 4313 3634 
Q 3963 3931 3569 4081 
Q 3175 4231 2741 4231 
Q 1884 4231 1454 3753 
Q 1025 3275 1025 2328 
Q 1025 1384 1454 906 
Q 1884 428 2741 428 
Q 3075 428 3337 486 
Q 3600 544 3809 666 
z
" transform="scale(0.015625)"/>
       <path id="DejaVuSans-4e" d="M 628 4666 
L 1478 4666 
L 3547 763 
L 3547 4666 
L 4159 4666 
L 4159 0 
L 3309 0 
L 1241 3903 
L 1241 0 
L 628 0 
L 628 4666 
z
" transform="scale(0.015625)"/>
      </defs>
      <use xlink:href="#DejaVuSans-4d"/>
      <use xlink:href="#DejaVuSans-44" transform="translate(86.279297 0)"/>
      <use xlink:href="#DejaVuSans-48" transform="translate(163.28125 0)"/>
      <use xlink:href="#DejaVuSans-47" transform="translate(238.476562 0)"/>
      <use xlink:href="#DejaVuSans-4e" transform="translate(315.966797 0)"/>
      <use xlink:href="#DejaVuSans-4e" transform="translate(390.771484 0)"/>
     </g>
    </g>
    <g id="line2d_37">
     <path d="M 52.78125 64.772813 
L 62.78125 64.772813 
L 72.78125 64.772813 
" style="fill: none; stroke: #4caf50; stroke-opacity: 0.7; stroke-linecap: square"/>
    </g>
    <g id="text_20">
     <!-- GRU -->
     <g transform="translate(80.78125 68.272813) scale(0.1 -0.1)">
      <defs>
       <path id="DejaVuSans-52" d="M 2841 2188 
Q 3044 2119 3236 1894 
Q 3428 1669 3622 1275 
L 4263 0 
L 3584 0 
L 2988 1197 
Q 2756 1666 2539 1819 
Q 2322 1972 1947 1972 
L 1259 1972 
L 1259 0 
L 628 0 
L 628 4666 
L 2053 4666 
Q 2853 4666 3247 4331 
Q 3641 3997 3641 3322 
Q 3641 2881 3436 2590 
Q 3231 2300 2841 2188 
z
M 1259 4147 
L 1259 2491 
L 2053 2491 
Q 2509 2491 2742 2702 
Q 2975 2913 2975 3322 
Q 2975 3731 2742 3939 
Q 2509 4147 2053 4147 
L 1259 4147 
z
" transform="scale(0.015625)"/>
       <path id="DejaVuSans-55" d="M 556 4666 
L 1191 4666 
L 1191 1831 
Q 1191 1081 1462 751 
Q 1734 422 2344 422 
Q 2950 422 3222 751 
Q 3494 1081 3494 1831 
L 3494 4666 
L 4128 4666 
L 4128 1753 
Q 4128 841 3676 375 
Q 3225 -91 2344 -91 
Q 1459 -91 1007 375 
Q 556 841 556 1753 
L 556 4666 
z
" transform="scale(0.015625)"/>
      </defs>
      <use xlink:href="#DejaVuSans-47"/>
      <use xlink:href="#DejaVuSans-52" transform="translate(77.490234 0)"/>
      <use xlink:href="#DejaVuSans-55" transform="translate(146.972656 0)"/>
     </g>
    </g>
    <g id="line2d_38">
     <path d="M 52.78125 79.450938 
L 62.78125 79.450938 
L 72.78125 79.450938 
" style="fill: none; stroke: #999999; stroke-opacity: 0.7; stroke-linecap: square"/>
    </g>
    <g id="text_21">
     <!-- MLP -->
     <g transform="translate(80.78125 82.950938) scale(0.1 -0.1)">
      <defs>
       <path id="DejaVuSans-4c" d="M 628 4666 
L 1259 4666 
L 1259 531 
L 3531 531 
L 3531 0 
L 628 0 
L 628 4666 
z
" transform="scale(0.015625)"/>
      </defs>
      <use xlink:href="#DejaVuSans-4d"/>
      <use xlink:href="#DejaVuSans-4c" transform="translate(86.279297 0)"/>
      <use xlink:href="#DejaVuSans-50" transform="translate(141.992188 0)"/>
     </g>
    </g>
    <g id="line2d_39">
     <path d="M 52.78125 94.129063 
L 62.78125 94.129063 
L 72.78125 94.129063 
" style="fill: none; stroke: #9c27b0; stroke-opacity: 0.7; stroke-linecap: square"/>
    </g>
    <g id="text_22">
     <!-- Transformer -->
     <g transform="translate(80.78125 97.629063) scale(0.1 -0.1)">
      <defs>
       <path id="DejaVuSans-66" d="M 2375 4863 
L 2375 4384 
L 1825 4384 
Q 1516 4384 1395 4259 
Q 1275 4134 1275 3809 
L 1275 3500 
L 2222 3500 
L 2222 3053 
L 1275 3053 
L 1275 0 
L 697 0 
L 697 3053 
L 147 3053 
L 147 3500 
L 697 3500 
L 697 3744 
Q 697 4328 969 4595 
Q 1241 4863 1831 4863 
L 2375 4863 
z
" transform="scale(0.015625)"/>
      </defs>
      <use xlink:href="#DejaVuSans-54"/>
      <use xlink:href="#DejaVuSans-72" transform="translate(46.333984 0)"/>
      <use xlink:href="#DejaVuSans-61" transform="translate(87.447266 0)"/>
      <use xlink:href="#DejaVuSans-6e" transform="translate(148.726562 0)"/>
      <use xlink:href="#DejaVuSans-73" transform="translate(212.105469 0)"/>
      <use xlink:href="#DejaVuSans-66" transform="translate(264.205078 0)"/>
      <use xlink:href="#DejaVuSans-6f" transform="translate(299.410156 0)"/>
      <use xlink:href="#DejaVuSans-72" transform="translate(360.591797 0)"/>
      <use xlink:href="#DejaVuSans-6d" transform="translate(399.955078 0)"/>
      <use xlink:href="#DejaVuSans-65" transform="translate(497.367188 0)"/>
      <use xlink:href="#DejaVuSans-72" transform="translate(558.890625 0)"/>
     </g>
    </g>
    <g id="line2d_40">
     <path d="M 52.78125 108.807188 
L 62.78125 108.807188 
L 72.78125 108.807188 
" style="fill: none; stroke: #999999; stroke-opacity: 0.7; stroke-linecap: square"/>
    </g>
    <g id="text_23">
     <!-- Naive -->
     <g transform="translate(80.78125 112.307188) scale(0.1 -0.1)">
      <defs>
       <path id="DejaVuSans-76" d="M 191 3500 
L 800 3500 
L 1894 563 
L 2988 3500 
L 3597 3500 
L 2284 0 
L 1503 0 
L 191 3500 
z
" transform="scale(0.015625)"/>
      </defs>
      <use xlink:href="#DejaVuSans-4e"/>
      <use xlink:href="#DejaVuSans-61" transform="translate(74.804688 0)"/>
      <use xlink:href="#DejaVuSans-69" transform="translate(136.083984 0)"/>
      <use xlink:href="#DejaVuSans-76" transform="translate(163.867188 0)"/>
      <use xlink:href="#DejaVuSans-65" transform="translate(223.046875 0)"/>
     </g>
    </g>
   </g>
  </g>
 </g>
 <defs>
  <clipPath id="p1ce95dc402">
   <rect x="43.78125" y="22.318125" width="1093.48" height="363.16"/>
  </clipPath>
 </defs>
</svg>
