<?xml version="1.0" encoding="utf-8" standalone="no"?>
<!DOCTYPE svg PUBLIC "-//W3C//DTD SVG 1.1//EN"
  "http://www.w3.org/Graphics/SVG/1.1/DTD/svg11.dtd">
<svg xmlns:xlink="http://www.w3.org/1999/xlink" width="1144.46125pt" height="423.034375pt" viewBox="0 0 1144.46125 423.034375" xmlns="http://www.w3.org/2000/svg" version="1.1">
 <metadata>
  <rdf:RDF xmlns:dc="http://purl.org/dc/elements/1.1/" xmlns:cc="http://creativecommons.org/ns#" xmlns:rdf="http://www.w3.org/1999/02/22-rdf-syntax-ns#">
   <cc:Work>
    <dc:type rdf:resource="http://purl.org/dc/dcmitype/StillImage"/>
    <dc:date>2026-07-15T18:31:42.089283</dc:date>
    <dc:format>image/svg+xml</dc:format>
    <dc:creator>
     <cc:Agent>
      <dc:title>Matplotlib v3.10.9, https://matplotlib.org/</dc:title>
     </cc:Agent>
    </dc:creator>
   </cc:Work>
  </rdf:RDF>
 </metadata>
 <defs>
  <style type="text/css">*{stroke-linejoin: round; stroke-linecap: butt}</style>
 </defs>
 <g id="figure_1">
  <g id="patch_1">
   <path d="M 0 423.034375 
L 1144.46125 423.034375 
L 1144.46125 0 
L 0 0 
z
" style="fill: #ffffff"/>
  </g>
  <g id="axes_1">
   <g id="patch_2">
    <path d="M 43.78125 385.478125 
L 1137.26125 385.478125 
L 1137.26125 22.318125 
L 43.78125 22.318125 
z
" style="fill: #ffffff"/>
   </g>
   <g id="matplotlib.axis_1">
    <g id="xtick_1">
     <g id="line2d_1">
      <path d="M 93.484886 385.478125 
L 93.484886 22.318125 
" clip-path="url(#p84ae7fc53b)" style="fill: none; stroke: #b0b0b0; stroke-opacity: 0.3; stroke-width: 0.8; stroke-linecap: square"/>
     </g>
     <g id="line2d_2">
      <defs>
       <path id="m25173c844a" d="M 0 0 
L 0 3.5 
" style="stroke: #000000; stroke-width: 0.8"/>
      </defs>
      <g>
       <use xlink:href="#m25173c844a" x="93.484886" y="385.478125" style="stroke: #000000; stroke-width: 0.8"/>
      </g>
     </g>
     <g id="text_1">
      <!-- 0 -->
      <g transform="translate(90.303636 400.076562) scale(0.1 -0.1)">
       <defs>
        <path id="DejaVuSans-30" d="M 2034 4250 
Q 1547 4250 1301 3770 
Q 1056 3291 1056 2328 
Q 1056 1369 1301 889 
Q 1547 409 2034 409 
Q 2525 409 2770 889 
Q 3016 1369 3016 2328 
Q 3016 3291 2770 3770 
Q 2525 4250 2034 4250 
z
M 2034 4750 
Q 2819 4750 3233 4129 
Q 3647 3509 3647 2328 
Q 3647 1150 3233 529 
Q 2819 -91 2034 -91 
Q 1250 -91 836 529 
Q 422 1150 422 2328 
Q 422 3509 836 4129 
Q 1250 4750 2034 4750 
z
" transform="scale(0.015625)"/>
       </defs>
       <use xlink:href="#DejaVuSans-30"/>
      </g>
     </g>
    </g>
    <g id="xtick_2">
     <g id="line2d_3">
      <path d="M 225.150148 385.478125 
L 225.150148 22.318125 
" clip-path="url(#p84ae7fc53b)" style="fill: none; stroke: #b0b0b0; stroke-opacity: 0.3; stroke-width: 0.8; stroke-linecap: square"/>
     </g>
     <g id="line2d_4">
      <g>
       <use xlink:href="#m25173c844a" x="225.150148" y="385.478125" style="stroke: #000000; stroke-width: 0.8"/>
      </g>
     </g>
     <g id="text_2">
      <!-- 20 -->
      <g transform="translate(218.787648 400.076562) scale(0.1 -0.1)">
       <defs>
        <path id="DejaVuSans-32" d="M 1228 531 
L 3431 531 
L 3431 0 
L 469 0 
L 469 531 
Q 828 903 1448 1529 
Q 2069 2156 2228 2338 
Q 2531 2678 2651 2914 
Q 2772 3150 2772 3378 
Q 2772 3750 2511 3984 
Q 2250 4219 1831 4219 
Q 1534 4219 1204 4116 
Q 875 4013 500 3803 
L 500 4441 
Q 881 4594 1212 4672 
Q 1544 4750 1819 4750 
Q 2544 4750 2975 4387 
Q 3406 4025 3406 3419 
Q 3406 3131 3298 2873 
Q 3191 2616 2906 2266 
Q 2828 2175 2409 1742 
Q 1991 1309 1228 531 
z
" transform="scale(0.015625)"/>
       </defs>
       <use xlink:href="#DejaVuSans-32"/>
       <use xlink:href="#DejaVuSans-30" transform="translate(63.623047 0)"/>
      </g>
     </g>
    </g>
    <g id="xtick_3">
     <g id="line2d_5">
      <path d="M 356.81541 385.478125 
L 356.81541 22.318125 
" clip-path="url(#p84ae7fc53b)" style="fill: none; stroke: #b0b0b0; stroke-opacity: 0.3; stroke-width: 0.8; stroke-linecap: square"/>
     </g>
     <g id="line2d_6">
      <g>
       <use xlink:href="#m25173c844a" x="356.81541" y="385.478125" style="stroke: #000000; stroke-width: 0.8"/>
      </g>
     </g>
     <g id="text_3">
      <!-- 40 -->
      <g transform="translate(350.45291 400.076562) scale(0.1 -0.1)">
       <defs>
        <path id="DejaVuSans-34" d="M 2419 4116 
L 825 1625 
L 2419 1625 
L 2419 4116 
z
M 2253 4666 
L 3047 4666 
L 3047 1625 
L 3713 1625 
L 3713 1100 
L 3047 1100 
L 3047 0 
L 2419 0 
L 2419 1100 
L 313 1100 
L 313 1709 
L 2253 4666 
z
" transform="scale(0.015625)"/>
       </defs>
       <use xlink:href="#DejaVuSans-34"/>
       <use xlink:href="#DejaVuSans-30" transform="translate(63.623047 0)"/>
      </g>
     </g>
    </g>
    <g id="xtick_4">
     <g id="line2d_7">
      <path d="M 488.480672 385.478125 
L 488.480672 22.318125 
" clip-path="url(#p84ae7fc53b)" style="fill: none; stroke: #b0b0b0; stroke-opacity: 0.3; stroke-width: 0.8; stroke-linecap: square"/>
     </g>
     <g id="line2d_8">
      <g>
       <use xlink:href="#m25173c844a" x="488.480672" y="385.478125" style="stroke: #000000; stroke-width: 0.8"/>
      </g>
     </g>
     <g id="text_4">
      <!-- 60 -->
      <g transform="translate(482.118172 400.076562) scale(0.1 -0.1)">
       <defs>
        <path id="DejaVuSans-36" d="M 2113 2584 
Q 1688 2584 1439 2293 
Q 1191 2003 1191 1497 
Q 1191 994 1439 701 
Q 1688 409 2113 409 
Q 2538 409 2786 701 
Q 3034 994 3034 1497 
Q 3034 2003 2786 2293 
Q 2538 2584 2113 2584 
z
M 3366 4563 
L 3366 3988 
Q 3128 4100 2886 4159 
Q 2644 4219 2406 4219 
Q 1781 4219 1451 3797 
Q 1122 3375 1075 2522 
Q 1259 2794 1537 2939 
Q 1816 3084 2150 3084 
Q 2853 3084 3261 2657 
Q 3669 2231 3669 1497 
Q 3669 778 3244 343 
Q 2819 -91 2113 -91 
Q 1303 -91 875 529 
Q 447 1150 447 2328 
Q 447 3434 972 4092 
Q 1497 4750 2381 4750 
Q 2619 4750 2861 4703 
Q 3103 4656 3366 4563 
z
" transform="scale(0.015625)"/>
       </defs>
       <use xlink:href="#DejaVuSans-36"/>
       <use xlink:href="#DejaVuSans-30" transform="translate(63.623047 0)"/>
      </g>
     </g>
    </g>
    <g id="xtick_5">
     <g id="line2d_9">
      <path d="M 620.145934 385.478125 
L 620.145934 22.318125 
" clip-path="url(#p84ae7fc53b)" style="fill: none; stroke: #b0b0b0; stroke-opacity: 0.3; stroke-width: 0.8; stroke-linecap: square"/>
     </g>
     <g id="line2d_10">
      <g>
       <use xlink:href="#m25173c844a" x="620.145934" y="385.478125" style="stroke: #000000; stroke-width: 0.8"/>
      </g>
     </g>
     <g id="text_5">
      <!-- 80 -->
      <g transform="translate(613.783434 400.076562) scale(0.1 -0.1)">
       <defs>
        <path id="DejaVuSans-38" d="M 2034 2216 
Q 1584 2216 1326 1975 
Q 1069 1734 1069 1313 
Q 1069 891 1326 650 
Q 1584 409 2034 409 
Q 2484 409 2743 651 
Q 3003 894 3003 1313 
Q 3003 1734 2745 1975 
Q 2488 2216 2034 2216 
z
M 1403 2484 
Q 997 2584 770 2862 
Q 544 3141 544 3541 
Q 544 4100 942 4425 
Q 1341 4750 2034 4750 
Q 2731 4750 3128 4425 
Q 3525 4100 3525 3541 
Q 3525 3141 3298 2862 
Q 3072 2584 2669 2484 
Q 3125 2378 3379 2068 
Q 3634 1759 3634 1313 
Q 3634 634 3220 271 
Q 2806 -91 2034 -91 
Q 1263 -91 848 271 
Q 434 634 434 1313 
Q 434 1759 690 2068 
Q 947 2378 1403 2484 
z
M 1172 3481 
Q 1172 3119 1398 2916 
Q 1625 2713 2034 2713 
Q 2441 2713 2670 2916 
Q 2900 3119 2900 3481 
Q 2900 3844 2670 4047 
Q 2441 4250 2034 4250 
Q 1625 4250 1398 4047 
Q 1172 3844 1172 3481 
z
" transform="scale(0.015625)"/>
       </defs>
       <use xlink:href="#DejaVuSans-38"/>
       <use xlink:href="#DejaVuSans-30" transform="translate(63.623047 0)"/>
      </g>
     </g>
    </g>
    <g id="xtick_6">
     <g id="line2d_11">
      <path d="M 751.811196 385.478125 
L 751.811196 22.318125 
" clip-path="url(#p84ae7fc53b)" style="fill: none; stroke: #b0b0b0; stroke-opacity: 0.3; stroke-width: 0.8; stroke-linecap: square"/>
     </g>
     <g id="line2d_12">
      <g>
       <use xlink:href="#m25173c844a" x="751.811196" y="385.478125" style="stroke: #000000; stroke-width: 0.8"/>
      </g>
     </g>
     <g id="text_6">
      <!-- 100 -->
      <g transform="translate(742.267446 400.076562) scale(0.1 -0.1)">
       <defs>
        <path id="DejaVuSans-31" d="M 794 531 
L 1825 531 
L 1825 4091 
L 703 3866 
L 703 4441 
L 1819 4666 
L 2450 4666 
L 2450 531 
L 3481 531 
L 3481 0 
L 794 0 
L 794 531 
z
" transform="scale(0.015625)"/>
       </defs>
       <use xlink:href="#DejaVuSans-31"/>
       <use xlink:href="#DejaVuSans-30" transform="translate(63.623047 0)"/>
       <use xlink:href="#DejaVuSans-30" transform="translate(127.246094 0)"/>
      </g>
     </g>
    </g>
    <g id="xtick_7">
     <g id="line2d_13">
      <path d="M 883.476458 385.478125 
L 883.476458 22.318125 
" clip-path="url(#p84ae7fc53b)" style="fill: none; stroke: #b0b0b0; stroke-opacity: 0.3; stroke-width: 0.8; stroke-linecap: square"/>
     </g>
     <g id="line2d_14">
      <g>
       <use xlink:href="#m25173c844a" x="883.476458" y="385.478125" style="stroke: #000000; stroke-width: 0.8"/>
      </g>
     </g>
     <g id="text_7">
      <!-- 120 -->
      <g transform="translate(873.932708 400.076562) scale(0.1 -0.1)">
       <use xlink:href="#DejaVuSans-31"/>
       <use xlink:href="#DejaVuSans-32" transform="translate(63.623047 0)"/>
       <use xlink:href="#DejaVuSans-30" transform="translate(127.246094 0)"/>
      </g>
     </g>
    </g>
    <g id="xtick_8">
     <g id="line2d_15">
      <path d="M 1015.14172 385.478125 
L 1015.14172 22.318125 
" clip-path="url(#p84ae7fc53b)" style="fill: none; stroke: #b0b0b0; stroke-opacity: 0.3; stroke-width: 0.8; stroke-linecap: square"/>
     </g>
     <g id="line2d_16">
      <g>
       <use xlink:href="#m25173c844a" x="1015.14172" y="385.478125" style="stroke: #000000; stroke-width: 0.8"/>
      </g>
     </g>
     <g id="text_8">
      <!-- 140 -->
      <g transform="translate(1005.59797 400.076562) scale(0.1 -0.1)">
       <use xlink:href="#DejaVuSans-31"/>
       <use xlink:href="#DejaVuSans-34" transform="translate(63.623047 0)"/>
       <use xlink:href="#DejaVuSans-30" transform="translate(127.246094 0)"/>
      </g>
     </g>
    </g>
    <g id="text_9">
     <!-- Time Step -->
     <g transform="translate(565.313437 413.754687) scale(0.1 -0.1)">
      <defs>
       <path id="DejaVuSans-54" d="M -19 4666 
L 3928 4666 
L 3928 4134 
L 2272 4134 
L 2272 0 
L 1638 0 
L 1638 4134 
L -19 4134 
L -19 4666 
z
" transform="scale(0.015625)"/>
       <path id="DejaVuSans-69" d="M 603 3500 
L 1178 3500 
L 1178 0 
L 603 0 
L 603 3500 
z
M 603 4863 
L 1178 4863 
L 1178 4134 
L 603 4134 
L 603 4863 
z
" transform="scale(0.015625)"/>
       <path id="DejaVuSans-6d" d="M 3328 2828 
Q 3544 3216 3844 3400 
Q 4144 3584 4550 3584 
Q 5097 3584 5394 3201 
Q 5691 2819 5691 2113 
L 5691 0 
L 5113 0 
L 5113 2094 
Q 5113 2597 4934 2840 
Q 4756 3084 4391 3084 
Q 3944 3084 3684 2787 
Q 3425 2491 3425 1978 
L 3425 0 
L 2847 0 
L 2847 2094 
Q 2847 2600 2669 2842 
Q 2491 3084 2119 3084 
Q 1678 3084 1418 2786 
Q 1159 2488 1159 1978 
L 1159 0 
L 581 0 
L 581 3500 
L 1159 3500 
L 1159 2956 
Q 1356 3278 1631 3431 
Q 1906 3584 2284 3584 
Q 2666 3584 2933 3390 
Q 3200 3197 3328 2828 
z
" transform="scale(0.015625)"/>
       <path id="DejaVuSans-65" d="M 3597 1894 
L 3597 1613 
L 953 1613 
Q 991 1019 1311 708 
Q 1631 397 2203 397 
Q 2534 397 2845 478 
Q 3156 559 3463 722 
L 3463 178 
Q 3153 47 2828 -22 
Q 2503 -91 2169 -91 
Q 1331 -91 842 396 
Q 353 884 353 1716 
Q 353 2575 817 3079 
Q 1281 3584 2069 3584 
Q 2775 3584 3186 3129 
Q 3597 2675 3597 1894 
z
M 3022 2063 
Q 3016 2534 2758 2815 
Q 2500 3097 2075 3097 
Q 1594 3097 1305 2825 
Q 1016 2553 972 2059 
L 3022 2063 
z
" transform="scale(0.015625)"/>
       <path id="DejaVuSans-20" transform="scale(0.015625)"/>
       <path id="DejaVuSans-53" d="M 3425 4513 
L 3425 3897 
Q 3066 4069 2747 4153 
Q 2428 4238 2131 4238 
Q 1616 4238 1336 4038 
Q 1056 3838 1056 3469 
Q 1056 3159 1242 3001 
Q 1428 2844 1947 2747 
L 2328 2669 
Q 3034 2534 3370 2195 
Q 3706 1856 3706 1288 
Q 3706 609 3251 259 
Q 2797 -91 1919 -91 
Q 1588 -91 1214 -16 
Q 841 59 441 206 
L 441 856 
Q 825 641 1194 531 
Q 1563 422 1919 422 
Q 2459 422 2753 634 
Q 3047 847 3047 1241 
Q 3047 1584 2836 1778 
Q 2625 1972 2144 2069 
L 1759 2144 
Q 1053 2284 737 2584 
Q 422 2884 422 3419 
Q 422 4038 858 4394 
Q 1294 4750 2059 4750 
Q 2388 4750 2728 4690 
Q 3069 4631 3425 4513 
z
" transform="scale(0.015625)"/>
       <path id="DejaVuSans-74" d="M 1172 4494 
L 1172 3500 
L 2356 3500 
L 2356 3053 
L 1172 3053 
L 1172 1153 
Q 1172 725 1289 603 
Q 1406 481 1766 481 
L 2356 481 
L 2356 0 
L 1766 0 
Q 1100 0 847 248 
Q 594 497 594 1153 
L 594 3053 
L 172 3053 
L 172 3500 
L 594 3500 
L 594 4494 
L 1172 4494 
z
" transform="scale(0.015625)"/>
       <path id="DejaVuSans-70" d="M 1159 525 
L 1159 -1331 
L 581 -1331 
L 581 3500 
L 1159 3500 
L 1159 2969 
Q 1341 3281 1617 3432 
Q 1894 3584 2278 3584 
Q 2916 3584 3314 3078 
Q 3713 2572 3713 1747 
Q 3713 922 3314 415 
Q 2916 -91 2278 -91 
Q 1894 -91 1617 61 
Q 1341 213 1159 525 
z
M 3116 1747 
Q 3116 2381 2855 2742 
Q 2594 3103 2138 3103 
Q 1681 3103 1420 2742 
Q 1159 2381 1159 1747 
Q 1159 1113 1420 752 
Q 1681 391 2138 391 
Q 2594 391 2855 752 
Q 3116 1113 3116 1747 
z
" transform="scale(0.015625)"/>
      </defs>
      <use xlink:href="#DejaVuSans-54"/>
      <use xlink:href="#DejaVuSans-69" transform="translate(57.958984 0)"/>
      <use xlink:href="#DejaVuSans-6d" transform="translate(85.742188 0)"/>
      <use xlink:href="#DejaVuSans-65" transform="translate(183.154297 0)"/>
      <use xlink:href="#DejaVuSans-20" transform="translate(244.677734 0)"/>
      <use xlink:href="#DejaVuSans-53" transform="translate(276.464844 0)"/>
      <use xlink:href="#DejaVuSans-74" transform="translate(339.941406 0)"/>
      <use xlink:href="#DejaVuSans-65" transform="translate(379.150391 0)"/>
      <use xlink:href="#DejaVuSans-70" transform="translate(440.673828 0)"/>
     </g>
    </g>
   </g>
   <g id="matplotlib.axis_2">
    <g id="ytick_1">
     <g id="line2d_17">
      <path d="M 43.78125 374.12073 
L 1137.26125 374.12073 
" clip-path="url(#p84ae7fc53b)" style="fill: none; stroke: #b0b0b0; stroke-opacity: 0.3; stroke-width: 0.8; stroke-linecap: square"/>
     </g>
     <g id="line2d_18">
      <defs>
       <path id="mf544fa0af1" d="M 0 0 
L -3.5 0 
" style="stroke: #000000; stroke-width: 0.8"/>
      </defs>
      <g>
       <use xlink:href="#mf544fa0af1" x="43.78125" y="374.12073" style="stroke: #000000; stroke-width: 0.8"/>
      </g>
     </g>
     <g id="text_10">
      <!-- 3.5 -->
      <g transform="translate(20.878125 377.919948) scale(0.1 -0.1)">
       <defs>
        <path id="DejaVuSans-33" d="M 2597 2516 
Q 3050 2419 3304 2112 
Q 3559 1806 3559 1356 
Q 3559 666 3084 287 
Q 2609 -91 1734 -91 
Q 1441 -91 1130 -33 
Q 819 25 488 141 
L 488 750 
Q 750 597 1062 519 
Q 1375 441 1716 441 
Q 2309 441 2620 675 
Q 2931 909 2931 1356 
Q 2931 1769 2642 2001 
Q 2353 2234 1838 2234 
L 1294 2234 
L 1294 2753 
L 1863 2753 
Q 2328 2753 2575 2939 
Q 2822 3125 2822 3475 
Q 2822 3834 2567 4026 
Q 2313 4219 1838 4219 
Q 1578 4219 1281 4162 
Q 984 4106 628 3988 
L 628 4550 
Q 988 4650 1302 4700 
Q 1616 4750 1894 4750 
Q 2613 4750 3031 4423 
Q 3450 4097 3450 3541 
Q 3450 3153 3228 2886 
Q 3006 2619 2597 2516 
z
" transform="scale(0.015625)"/>
        <path id="DejaVuSans-2e" d="M 684 794 
L 1344 794 
L 1344 0 
L 684 0 
L 684 794 
z
" transform="scale(0.015625)"/>
        <path id="DejaVuSans-35" d="M 691 4666 
L 3169 4666 
L 3169 4134 
L 1269 4134 
L 1269 2991 
Q 1406 3038 1543 3061 
Q 1681 3084 1819 3084 
Q 2600 3084 3056 2656 
Q 3513 2228 3513 1497 
Q 3513 744 3044 326 
Q 2575 -91 1722 -91 
Q 1428 -91 1123 -41 
Q 819 9 494 109 
L 494 744 
Q 775 591 1075 516 
Q 1375 441 1709 441 
Q 2250 441 2565 725 
Q 2881 1009 2881 1497 
Q 2881 1984 2565 2268 
Q 2250 2553 1709 2553 
Q 1456 2553 1204 2497 
Q 953 2441 691 2322 
L 691 4666 
z
" transform="scale(0.015625)"/>
       </defs>
       <use xlink:href="#DejaVuSans-33"/>
       <use xlink:href="#DejaVuSans-2e" transform="translate(63.623047 0)"/>
       <use xlink:href="#DejaVuSans-35" transform="translate(95.410156 0)"/>
      </g>
     </g>
    </g>
    <g id="ytick_2">
     <g id="line2d_19">
      <path d="M 43.78125 312.812748 
L 1137.26125 312.812748 
" clip-path="url(#p84ae7fc53b)" style="fill: none; stroke: #b0b0b0; stroke-opacity: 0.3; stroke-width: 0.8; stroke-linecap: square"/>
     </g>
     <g id="line2d_20">
      <g>
       <use xlink:href="#mf544fa0af1" x="43.78125" y="312.812748" style="stroke: #000000; stroke-width: 0.8"/>
      </g>
     </g>
     <g id="text_11">
      <!-- 4.0 -->
      <g transform="translate(20.878125 316.611967) scale(0.1 -0.1)">
       <use xlink:href="#DejaVuSans-34"/>
       <use xlink:href="#DejaVuSans-2e" transform="translate(63.623047 0)"/>
       <use xlink:href="#DejaVuSans-30" transform="translate(95.410156 0)"/>
      </g>
     </g>
    </g>
    <g id="ytick_3">
     <g id="line2d_21">
      <path d="M 43.78125 251.504766 
L 1137.26125 251.504766 
" clip-path="url(#p84ae7fc53b)" style="fill: none; stroke: #b0b0b0; stroke-opacity: 0.3; stroke-width: 0.8; stroke-linecap: square"/>
     </g>
     <g id="line2d_22">
      <g>
       <use xlink:href="#mf544fa0af1" x="43.78125" y="251.504766" style="stroke: #000000; stroke-width: 0.8"/>
      </g>
     </g>
     <g id="text_12">
      <!-- 4.5 -->
      <g transform="translate(20.878125 255.303985) scale(0.1 -0.1)">
       <use xlink:href="#DejaVuSans-34"/>
       <use xlink:href="#DejaVuSans-2e" transform="translate(63.623047 0)"/>
       <use xlink:href="#DejaVuSans-35" transform="translate(95.410156 0)"/>
      </g>
     </g>
    </g>
    <g id="ytick_4">
     <g id="line2d_23">
      <path d="M 43.78125 190.196784 
L 1137.26125 190.196784 
" clip-path="url(#p84ae7fc53b)" style="fill: none; stroke: #b0b0b0; stroke-opacity: 0.3; stroke-width: 0.8; stroke-linecap: square"/>
     </g>
     <g id="line2d_24">
      <g>
       <use xlink:href="#mf544fa0af1" x="43.78125" y="190.196784" style="stroke: #000000; stroke-width: 0.8"/>
      </g>
     </g>
     <g id="text_13">
      <!-- 5.0 -->
      <g transform="translate(20.878125 193.996003) scale(0.1 -0.1)">
       <use xlink:href="#DejaVuSans-35"/>
       <use xlink:href="#DejaVuSans-2e" transform="translate(63.623047 0)"/>
       <use xlink:href="#DejaVuSans-30" transform="translate(95.410156 0)"/>
      </g>
     </g>
    </g>
    <g id="ytick_5">
     <g id="line2d_25">
      <path d="M 43.78125 128.888802 
L 1137.26125 128.888802 
" clip-path="url(#p84ae7fc53b)" style="fill: none; stroke: #b0b0b0; stroke-opacity: 0.3; stroke-width: 0.8; stroke-linecap: square"/>
     </g>
     <g id="line2d_26">
      <g>
       <use xlink:href="#mf544fa0af1" x="43.78125" y="128.888802" style="stroke: #000000; stroke-width: 0.8"/>
      </g>
     </g>
     <g id="text_14">
      <!-- 5.5 -->
      <g transform="translate(20.878125 132.688021) scale(0.1 -0.1)">
       <use xlink:href="#DejaVuSans-35"/>
       <use xlink:href="#DejaVuSans-2e" transform="translate(63.623047 0)"/>
       <use xlink:href="#DejaVuSans-35" transform="translate(95.410156 0)"/>
      </g>
     </g>
    </g>
    <g id="ytick_6">
     <g id="line2d_27">
      <path d="M 43.78125 67.580821 
L 1137.26125 67.580821 
" clip-path="url(#p84ae7fc53b)" style="fill: none; stroke: #b0b0b0; stroke-opacity: 0.3; stroke-width: 0.8; stroke-linecap: square"/>
     </g>
     <g id="line2d_28">
      <g>
       <use xlink:href="#mf544fa0af1" x="43.78125" y="67.580821" style="stroke: #000000; stroke-width: 0.8"/>
      </g>
     </g>
     <g id="text_15">
      <!-- 6.0 -->
      <g transform="translate(20.878125 71.380039) scale(0.1 -0.1)">
       <use xlink:href="#DejaVuSans-36"/>
       <use xlink:href="#DejaVuSans-2e" transform="translate(63.623047 0)"/>
       <use xlink:href="#DejaVuSans-30" transform="translate(95.410156 0)"/>
      </g>
     </g>
    </g>
    <g id="text_16">
     <!-- Copper Price -->
     <g transform="translate(14.798438 235.716094) rotate(-90) scale(0.1 -0.1)">
      <defs>
       <path id="DejaVuSans-43" d="M 4122 4306 
L 4122 3641 
Q 3803 3938 3442 4084 
Q 3081 4231 2675 4231 
Q 1875 4231 1450 3742 
Q 1025 3253 1025 2328 
Q 1025 1406 1450 917 
Q 1875 428 2675 428 
Q 3081 428 3442 575 
Q 3803 722 4122 1019 
L 4122 359 
Q 3791 134 3420 21 
Q 3050 -91 2638 -91 
Q 1578 -91 968 557 
Q 359 1206 359 2328 
Q 359 3453 968 4101 
Q 1578 4750 2638 4750 
Q 3056 4750 3426 4639 
Q 3797 4528 4122 4306 
z
" transform="scale(0.015625)"/>
       <path id="DejaVuSans-6f" d="M 1959 3097 
Q 1497 3097 1228 2736 
Q 959 2375 959 1747 
Q 959 1119 1226 758 
Q 1494 397 1959 397 
Q 2419 397 2687 759 
Q 2956 1122 2956 1747 
Q 2956 2369 2687 2733 
Q 2419 3097 1959 3097 
z
M 1959 3584 
Q 2709 3584 3137 3096 
Q 3566 2609 3566 1747 
Q 3566 888 3137 398 
Q 2709 -91 1959 -91 
Q 1206 -91 779 398 
Q 353 888 353 1747 
Q 353 2609 779 3096 
Q 1206 3584 1959 3584 
z
" transform="scale(0.015625)"/>
       <path id="DejaVuSans-72" d="M 2631 2963 
Q 2534 3019 2420 3045 
Q 2306 3072 2169 3072 
Q 1681 3072 1420 2755 
Q 1159 2438 1159 1844 
L 1159 0 
L 581 0 
L 581 3500 
L 1159 3500 
L 1159 2956 
Q 1341 3275 1631 3429 
Q 1922 3584 2338 3584 
Q 2397 3584 2469 3576 
Q 2541 3569 2628 3553 
L 2631 2963 
z
" transform="scale(0.015625)"/>
       <path id="DejaVuSans-50" d="M 1259 4147 
L 1259 2394 
L 2053 2394 
Q 2494 2394 2734 2622 
Q 2975 2850 2975 3272 
Q 2975 3691 2734 3919 
Q 2494 4147 2053 4147 
L 1259 4147 
z
M 628 4666 
L 2053 4666 
Q 2838 4666 3239 4311 
Q 3641 3956 3641 3272 
Q 3641 2581 3239 2228 
Q 2838 1875 2053 1875 
L 1259 1875 
L 1259 0 
L 628 0 
L 628 4666 
z
" transform="scale(0.015625)"/>
       <path id="DejaVuSans-63" d="M 3122 3366 
L 3122 2828 
Q 2878 2963 2633 3030 
Q 2388 3097 2138 3097 
Q 1578 3097 1268 2742 
Q 959 2388 959 1747 
Q 959 1106 1268 751 
Q 1578 397 2138 397 
Q 2388 397 2633 464 
Q 2878 531 3122 666 
L 3122 134 
Q 2881 22 2623 -34 
Q 2366 -91 2075 -91 
Q 1284 -91 818 406 
Q 353 903 353 1747 
Q 353 2603 823 3093 
Q 1294 3584 2113 3584 
Q 2378 3584 2631 3529 
Q 2884 3475 3122 3366 
z
" transform="scale(0.015625)"/>
      </defs>
      <use xlink:href="#DejaVuSans-43"/>
      <use xlink:href="#DejaVuSans-6f" transform="translate(69.824219 0)"/>
      <use xlink:href="#DejaVuSans-70" transform="translate(131.005859 0)"/>
      <use xlink:href="#DejaVuSans-70" transform="translate(194.482422 0)"/>
      <use xlink:href="#DejaVuSans-65" transform="translate(257.958984 0)"/>
      <use xlink:href="#DejaVuSans-72" transform="translate(319.482422 0)"/>
      <use xlink:href="#DejaVuSans-20" transform="translate(360.595703 0)"/>
      <use xlink:href="#DejaVuSans-50" transform="translate(392.382812 0)"/>
      <use xlink:href="#DejaVuSans-72" transform="translate(450.935547 0)"/>
      <use xlink:href="#DejaVuSans-69" transform="translate(492.048828 0)"/>
      <use xlink:href="#DejaVuSans-63" transform="translate(519.832031 0)"/>
      <use xlink:href="#DejaVuSans-65" transform="translate(574.8125 0)"/>
     </g>
    </g>
   </g>
   <g id="line2d_29">
    <path d="M 93.484886 328.752837 
L 100.068149 328.568897 
L 106.651413 347.574368 
L 113.234676 346.838667 
L 119.817939 352.846852 
L 126.401202 346.838667 
L 132.984465 338.684683 
L 139.567728 326.974888 
L 146.150991 336.600245 
L 152.734254 344.57029 
L 159.317517 341.382272 
L 165.90078 322.376801 
L 172.484043 336.968096 
L 179.067307 322.989866 
L 185.65057 331.818219 
L 192.233833 347.819611 
L 198.817096 349.720167 
L 205.400359 342.240551 
L 211.983622 335.803241 
L 218.566885 351.988544 
L 225.150148 341.811426 
L 231.733411 353.827797 
L 238.316674 346.409513 
L 244.899938 358.855038 
L 251.483201 364.311462 
L 258.066464 368.970852 
L 264.649727 357.690212 
L 271.23299 352.724245 
L 277.816253 363.882308 
L 284.399516 344.999444 
L 290.982779 337.76513 
L 297.566042 323.97081 
L 304.149305 334.8836 
L 310.732568 326.913585 
L 317.315832 325.626123 
L 323.899095 327.465346 
L 330.482358 338.010314 
L 337.065621 344.692926 
L 343.648884 338.929955 
L 350.232147 331.14385 
L 356.81541 334.699719 
L 363.398673 351.314147 
L 369.981936 332.676556 
L 376.565199 327.281435 
L 383.148463 330.592089 
L 389.731726 326.913555 
L 396.314989 299.018428 
L 402.898252 313.303176 
L 409.481515 312.383594 
L 416.064778 283.446219 
L 422.648041 281.239116 
L 429.231304 251.259552 
L 435.814567 243.044293 
L 442.39783 242.492473 
L 448.981093 227.77863 
L 455.564357 183.207713 
L 462.14762 217.35621 
L 468.730883 238.016994 
L 475.314146 252.179134 
L 481.897409 245.251337 
L 488.480672 252.240467 
L 495.063935 264.931206 
L 501.647198 232.070112 
L 508.230461 239.427121 
L 514.813724 285.959869 
L 521.396988 299.999402 
L 527.980251 302.512993 
L 534.563514 315.265065 
L 541.146777 297.179205 
L 547.73004 288.963888 
L 554.313303 295.033435 
L 560.896566 311.034799 
L 567.479829 291.354931 
L 574.063092 278.296371 
L 580.646355 246.477525 
L 587.229618 248.745902 
L 593.812882 257.451648 
L 600.396145 270.387601 
L 606.979408 271.184634 
L 613.562671 270.203719 
L 620.145934 277.683277 
L 626.729197 306.559319 
L 633.31246 303.739181 
L 639.895723 302.942147 
L 646.478986 295.830411 
L 653.062249 294.542949 
L 659.645512 307.785507 
L 666.228776 305.14925 
L 672.812039 307.969388 
L 679.395302 279.154679 
L 685.978565 271.429848 
L 692.561828 277.254065 
L 699.145091 280.687355 
L 705.728354 241.511558 
L 712.311617 232.315385 
L 718.89488 244.147815 
L 725.478143 249.726817 
L 732.061407 229.066034 
L 738.64467 206.198206 
L 745.227933 179.467817 
L 751.811196 176.402465 
L 758.394459 265.666906 
L 764.977722 250.585125 
L 771.560985 223.119152 
L 778.144248 210.367139 
L 784.727511 235.871224 
L 791.310774 237.894387 
L 797.894037 244.699576 
L 804.477301 213.922978 
L 811.060564 232.805813 
L 817.643827 211.041507 
L 824.22709 214.352132 
L 830.810353 211.531936 
L 837.393616 181.797586 
L 843.976879 187.928407 
L 850.560142 121.286579 
L 857.143405 119.324749 
L 863.726668 96.57947 
L 870.309932 262.233674 
L 876.893195 256.961161 
L 883.476458 254.202297 
L 890.059721 257.942076 
L 896.642984 249.236389 
L 903.226247 253.650536 
L 909.80951 240.653192 
L 916.392773 243.044293 
L 922.976036 225.081041 
L 929.559299 183.085106 
L 936.142562 208.77313 
L 942.725826 198.595983 
L 949.309089 178.732175 
L 955.892352 182.165465 
L 962.475615 197.798949 
L 969.058878 184.127295 
L 975.642141 189.154536 
L 982.225404 167.451505 
L 988.808667 143.35749 
L 995.39193 155.435135 
L 1001.975193 136.307086 
L 1008.558457 96.211649 
L 1015.14172 111.722584 
L 1021.724983 85.2988 
L 1028.308246 93.514118 
L 1034.891509 78.493669 
L 1041.474772 80.210227 
L 1048.058035 84.317885 
L 1054.641298 93.023631 
L 1061.224561 88.302937 
L 1067.807824 67.02906 
L 1074.391087 97.376504 
L 1080.974351 102.587684 
L 1087.557614 148.200791 
L 1087.557614 148.200791 
" clip-path="url(#p84ae7fc53b)" style="fill: none; stroke: #000000; stroke-opacity: 0.9; stroke-width: 1.5; stroke-linecap: square"/>
   </g>
   <g id="line2d_30">
    <path d="M 93.484886 304.46009 
L 100.068149 319.539474 
L 106.651413 331.506643 
L 113.234676 332.14099 
L 119.817939 347.801399 
L 126.401202 344.765251 
L 132.984465 349.354334 
L 139.567728 343.524183 
L 146.150991 335.858376 
L 152.734254 324.761617 
L 159.317517 333.456868 
L 165.90078 340.806188 
L 172.484043 337.045478 
L 179.067307 318.191088 
L 185.65057 333.692172 
L 192.233833 320.318353 
L 198.817096 330.074035 
L 205.400359 345.239805 
L 211.983622 347.398964 
L 218.566885 341.023543 
L 225.150148 336.534089 
L 231.733411 352.718135 
L 238.316674 343.459956 
L 244.899938 355.149462 
L 251.483201 347.442991 
L 258.066464 359.301118 
L 264.649727 363.862312 
L 271.23299 368.63168 
L 277.816253 358.925404 
L 284.399516 355.648047 
L 290.982779 367.305688 
L 297.566042 349.820293 
L 304.149305 342.793803 
L 310.732568 331.420462 
L 317.315832 342.713117 
L 323.899095 334.049118 
L 330.482358 332.330835 
L 337.065621 333.695826 
L 343.648884 342.22836 
L 350.232147 346.939115 
L 356.81541 340.668701 
L 363.398673 333.167452 
L 369.981936 337.581014 
L 376.565199 352.987204 
L 383.148463 335.133726 
L 389.731726 329.696099 
L 396.314989 334.046662 
L 402.898252 332.166044 
L 409.481515 307.266254 
L 416.064778 322.036431 
L 422.648041 321.66861 
L 429.231304 294.972161 
L 435.814567 294.008494 
L 442.39783 266.608122 
L 448.981093 258.047552 
L 455.564357 257.848352 
L 462.14762 243.639145 
L 468.730883 200.695096 
L 475.314146 231.518585 
L 481.897409 247.170135 
L 488.480672 256.414603 
L 495.063935 243.732109 
L 501.647198 247.633668 
L 508.230461 259.103481 
L 514.813724 226.705511 
L 521.396988 235.054954 
L 527.980251 281.154455 
L 534.563514 293.882262 
L 541.146777 295.925245 
L 547.73004 308.346272 
L 554.313303 291.237644 
L 560.896566 284.389364 
L 567.479829 290.869414 
L 574.063092 306.949358 
L 580.646355 287.372744 
L 587.229618 274.630495 
L 593.812882 246.200797 
L 600.396145 248.356272 
L 606.979408 255.061833 
L 613.562671 266.878887 
L 620.145934 266.140321 
L 626.729197 264.119555 
L 633.31246 270.74823 
L 639.895723 299.183776 
L 646.478986 296.276228 
L 653.062249 296.01131 
L 659.645512 289.740692 
L 666.228776 289.239681 
L 672.812039 301.949422 
L 679.395302 299.399054 
L 685.978565 301.813133 
L 692.561828 273.808145 
L 699.145091 267.34546 
L 705.728354 274.345114 
L 712.311617 278.814396 
L 718.89488 242.858599 
L 725.478143 234.979414 
L 732.061407 245.793802 
L 738.64467 249.918709 
L 745.227933 228.77083 
L 751.811196 206.919115 
L 758.394459 180.30192 
L 764.977722 176.519342 
L 771.560985 259.626652 
L 778.144248 242.252697 
L 784.727511 214.14995 
L 791.310774 201.200842 
L 797.894037 227.099176 
L 804.477301 229.153619 
L 811.060564 236.064051 
L 817.643827 204.811641 
L 824.22709 223.986406 
L 830.810353 201.885618 
L 837.393616 205.247402 
L 843.976879 202.383647 
L 850.560142 172.189564 
L 857.143405 178.415162 
L 863.726668 110.743131 
L 870.309932 108.750897 
L 876.893195 85.878743 
L 883.476458 253.869206 
L 890.059721 248.515188 
L 896.642984 245.713643 
L 903.226247 249.511246 
L 909.80951 240.670966 
L 916.392773 245.153404 
L 922.976036 231.955164 
L 929.559299 234.383158 
L 936.142562 216.142184 
L 942.725826 173.496964 
L 949.309089 199.58216 
L 955.892352 189.247676 
L 962.475615 169.076794 
L 969.058878 172.563174 
L 975.642141 188.438305 
L 982.225404 174.55529 
L 988.808667 179.660293 
L 995.39193 157.621715 
L 1001.975193 133.155201 
L 1008.558457 145.419592 
L 1015.14172 125.995813 
L 1021.724983 85.2805 
L 1028.308246 101.031212 
L 1034.891509 74.198913 
L 1041.474772 83.252075 
L 1048.058035 68.310792 
L 1054.641298 70.51503 
L 1061.224561 73.202855 
L 1067.807824 82.043194 
L 1074.391087 77.249532 
L 1080.974351 55.646773 
L 1087.557614 86.463363 
L 1087.557614 86.463363 
" clip-path="url(#p84ae7fc53b)" style="fill: none; stroke: #ff5722; stroke-opacity: 0.7; stroke-linecap: square"/>
   </g>
   <g id="line2d_31">
    <path d="M 93.484886 301.193959 
L 100.068149 316.268314 
L 106.651413 329.573813 
L 113.234676 330.753753 
L 119.817939 346.7481 
L 126.401202 343.034807 
L 132.984465 347.079964 
L 139.567728 342.726068 
L 146.150991 336.107215 
L 152.734254 327.278804 
L 159.317517 336.113793 
L 165.90078 342.153229 
L 172.484043 337.832426 
L 179.067307 322.519755 
L 185.65057 336.223596 
L 192.233833 322.045289 
L 198.817096 330.104497 
L 205.400359 343.49644 
L 211.983622 345.809896 
L 218.566885 339.07364 
L 225.150148 333.947238 
L 231.733411 349.244444 
L 238.316674 339.972642 
L 244.899938 351.595173 
L 251.483201 343.318757 
L 258.066464 357.622623 
L 264.649727 361.752324 
L 271.23299 367.193576 
L 277.816253 359.368648 
L 284.399516 354.986717 
L 290.982779 365.914153 
L 297.566042 347.926725 
L 304.149305 339.571786 
L 310.732568 326.436487 
L 317.315832 337.408534 
L 323.899095 328.970279 
L 330.482358 327.051277 
L 337.065621 328.663352 
L 343.648884 338.063959 
L 350.232147 342.03033 
L 356.81541 334.472805 
L 363.398673 324.997827 
L 369.981936 332.661413 
L 376.565199 346.319326 
L 383.148463 328.11545 
L 389.731726 324.992068 
L 396.314989 329.697239 
L 402.898252 330.694671 
L 409.481515 304.44518 
L 416.064778 317.394493 
L 422.648041 316.185466 
L 429.231304 287.922693 
L 435.814567 286.420127 
L 442.39783 258.13578 
L 448.981093 248.431637 
L 455.564357 247.842223 
L 462.14762 232.678704 
L 468.730883 191.476704 
L 475.314146 219.313597 
L 481.897409 237.971213 
L 488.480672 252.537893 
L 495.063935 244.194882 
L 501.647198 248.925808 
L 508.230461 263.041349 
L 514.813724 232.540486 
L 521.396988 242.050106 
L 527.980251 288.307879 
L 534.563514 300.485387 
L 541.146777 299.236163 
L 547.73004 308.475661 
L 554.313303 292.554048 
L 560.896566 288.303903 
L 567.479829 295.365767 
L 574.063092 312.012089 
L 580.646355 292.234696 
L 587.229618 279.227179 
L 593.812882 249.819547 
L 600.396145 250.634647 
L 606.979408 257.360438 
L 613.562671 268.901991 
L 620.145934 268.323159 
L 626.729197 267.994921 
L 633.31246 274.424864 
L 639.895723 300.618869 
L 646.478986 296.322944 
L 653.062249 297.514811 
L 659.645512 292.393144 
L 666.228776 293.811574 
L 672.812039 306.558267 
L 679.395302 302.806151 
L 685.978565 302.735405 
L 692.561828 277.472267 
L 699.145091 271.505272 
L 705.728354 278.92607 
L 712.311617 281.231983 
L 718.89488 244.805228 
L 725.478143 236.418249 
L 732.061407 246.382807 
L 738.64467 251.143902 
L 745.227933 231.819226 
L 751.811196 209.842916 
L 758.394459 183.849339 
L 764.977722 179.519503 
L 771.560985 266.22317 
L 778.144248 253.998478 
L 784.727511 224.270033 
L 791.310774 209.117097 
L 797.894037 236.082585 
L 804.477301 238.47848 
L 811.060564 244.219497 
L 817.643827 213.699923 
L 824.22709 232.558085 
L 830.810353 210.349014 
L 837.393616 212.999654 
L 843.976879 209.466325 
L 850.560142 183.720652 
L 857.143405 189.252412 
L 863.726668 124.526166 
L 870.309932 121.466368 
L 876.893195 99.128434 
L 883.476458 260.018562 
L 890.059721 253.515183 
L 896.642984 242.488205 
L 903.226247 239.646493 
L 909.80951 238.365053 
L 916.392773 248.781275 
L 922.976036 241.428709 
L 929.559299 244.412733 
L 936.142562 224.582485 
L 942.725826 185.088039 
L 949.309089 209.995576 
L 955.892352 199.907124 
L 962.475615 179.431275 
L 969.058878 181.893297 
L 975.642141 196.469215 
L 982.225404 180.560815 
L 988.808667 185.57379 
L 995.39193 162.138941 
L 1001.975193 140.098551 
L 1008.558457 151.012802 
L 1015.14172 134.620464 
L 1021.724983 91.205047 
L 1028.308246 108.548014 
L 1034.891509 80.957855 
L 1041.474772 85.465726 
L 1048.058035 69.496169 
L 1054.641298 64.614396 
L 1061.224561 87.126505 
L 1067.807824 93.594979 
L 1074.391087 86.686535 
L 1080.974351 64.572884 
L 1087.557614 92.518001 
L 1087.557614 92.518001 
" clip-path="url(#p84ae7fc53b)" style="fill: none; stroke: #4caf50; stroke-opacity: 0.7; stroke-linecap: square"/>
   </g>
   <g id="line2d_32">
    <path d="M 93.484886 306.168169 
L 100.068149 323.984053 
L 106.651413 330.878903 
L 113.234676 334.73632 
L 119.817939 341.892404 
L 126.401202 343.034632 
L 132.984465 352.08066 
L 139.567728 344.63174 
L 146.150991 341.22666 
L 152.734254 326.567221 
L 159.317517 336.151855 
L 165.90078 347.249755 
L 172.484043 343.406721 
L 179.067307 322.891757 
L 185.65057 337.146189 
L 192.233833 327.308389 
L 198.817096 334.890265 
L 205.400359 344.707806 
L 211.983622 352.839778 
L 218.566885 342.898402 
L 225.150148 328.146321 
L 231.733411 349.205036 
L 238.316674 341.612548 
L 244.899938 353.089377 
L 251.483201 350.954073 
L 258.066464 358.334528 
L 264.649727 354.906675 
L 271.23299 364.680569 
L 277.816253 360.132502 
L 284.399516 353.429923 
L 290.982779 367.239853 
L 297.566042 353.107824 
L 304.149305 348.199331 
L 310.732568 330.223303 
L 317.315832 337.995142 
L 323.899095 334.595675 
L 330.482358 335.31328 
L 337.065621 335.567762 
L 343.648884 340.146145 
L 350.232147 339.731929 
L 356.81541 333.739326 
L 363.398673 325.796352 
L 369.981936 326.316073 
L 376.565199 335.422323 
L 383.148463 336.524793 
L 389.731726 330.435249 
L 396.314989 329.295477 
L 402.898252 334.357331 
L 409.481515 309.545447 
L 416.064778 322.642011 
L 422.648041 325.076963 
L 429.231304 293.589747 
L 435.814567 290.774813 
L 442.39783 260.305814 
L 448.981093 256.070871 
L 455.564357 257.24052 
L 462.14762 236.391646 
L 468.730883 192.19352 
L 475.314146 221.487081 
L 481.897409 229.692458 
L 488.480672 240.916999 
L 495.063935 225.106299 
L 501.647198 229.539682 
L 508.230461 240.245554 
L 514.813724 210.62621 
L 521.396988 227.773017 
L 527.980251 280.92222 
L 534.563514 300.305423 
L 541.146777 303.255827 
L 547.73004 303.855181 
L 554.313303 294.002296 
L 560.896566 287.466819 
L 567.479829 292.126706 
L 574.063092 318.201788 
L 580.646355 294.409876 
L 587.229618 274.456203 
L 593.812882 252.423881 
L 600.396145 253.078896 
L 606.979408 264.345124 
L 613.562671 279.913241 
L 620.145934 277.525472 
L 626.729197 270.9234 
L 633.31246 269.339681 
L 639.895723 302.55088 
L 646.478986 294.428702 
L 653.062249 294.342287 
L 659.645512 279.786833 
L 666.228776 281.648333 
L 672.812039 300.798599 
L 679.395302 304.554047 
L 685.978565 306.087133 
L 692.561828 273.269247 
L 699.145091 266.945072 
L 705.728354 278.945305 
L 712.311617 285.529487 
L 718.89488 251.205411 
L 725.478143 231.915172 
L 732.061407 244.878429 
L 738.64467 253.925393 
L 745.227933 237.946949 
L 751.811196 212.794315 
L 758.394459 182.516799 
L 764.977722 174.23629 
L 771.560985 259.131487 
L 778.144248 254.412547 
L 784.727511 220.692503 
L 791.310774 196.096365 
L 797.894037 213.824986 
L 804.477301 229.31195 
L 811.060564 246.677894 
L 817.643827 216.537076 
L 824.22709 230.718861 
L 830.810353 199.414007 
L 837.393616 215.109174 
L 843.976879 215.406483 
L 850.560142 186.244358 
L 857.143405 188.723219 
L 863.726668 130.968095 
L 870.309932 131.528801 
L 876.893195 111.207775 
L 883.476458 261.999686 
L 890.059721 264.735981 
L 896.642984 245.837828 
L 903.226247 240.28806 
L 909.80951 222.009783 
L 916.392773 233.770649 
L 922.976036 235.978688 
L 929.559299 241.780101 
L 936.142562 221.271568 
L 942.725826 176.360953 
L 949.309089 204.944714 
L 955.892352 201.675601 
L 962.475615 178.48088 
L 969.058878 185.039511 
L 975.642141 195.896405 
L 982.225404 173.986924 
L 988.808667 180.903495 
L 995.39193 159.850568 
L 1001.975193 139.462011 
L 1008.558457 138.570903 
L 1015.14172 130.920268 
L 1021.724983 97.469234 
L 1028.308246 111.181522 
L 1034.891509 79.383608 
L 1041.474772 93.74641 
L 1048.058035 70.494741 
L 1054.641298 76.307322 
L 1061.224561 79.970099 
L 1067.807824 75.952189 
L 1074.391087 75.645642 
L 1080.974351 38.825398 
L 1087.557614 63.163107 
L 1087.557614 63.163107 
" clip-path="url(#p84ae7fc53b)" style="fill: none; stroke: #999999; stroke-opacity: 0.7; stroke-linecap: square"/>
   </g>
   <g id="line2d_33">
    <path d="M 93.484886 297.482127 
L 100.068149 313.066206 
L 106.651413 326.614756 
L 113.234676 326.429968 
L 119.817939 345.521094 
L 126.401202 344.782061 
L 132.984465 350.817316 
L 139.567728 344.782061 
L 146.150991 336.591388 
L 152.734254 324.828797 
L 159.317517 334.497508 
L 165.90078 342.503481 
L 172.484043 339.30108 
L 179.067307 320.209983 
L 185.65057 334.867025 
L 192.233833 320.825825 
L 198.817096 329.693936 
L 205.400359 345.767448 
L 211.983622 347.676541 
L 218.566885 340.163276 
L 225.150148 333.696907 
L 231.733411 349.95515 
L 238.316674 339.732163 
L 244.899938 351.802704 
L 251.483201 344.350977 
L 258.066464 356.852572 
L 264.649727 362.333582 
L 271.23299 367.013992 
L 277.816253 355.682485 
L 284.399516 350.694154 
L 290.982779 361.902499 
L 297.566042 342.934564 
L 304.149305 335.667625 
L 310.732568 321.811183 
L 317.315832 332.773174 
L 323.899095 324.767201 
L 330.482358 323.47395 
L 337.065621 325.321447 
L 343.648884 335.91395 
L 350.232147 342.626643 
L 356.81541 336.837713 
L 363.398673 329.016498 
L 369.981936 332.588386 
L 376.565199 349.277712 
L 383.148463 330.556132 
L 389.731726 325.136718 
L 396.314989 328.462252 
L 402.898252 324.767201 
L 409.481515 296.746368 
L 416.064778 311.095489 
L 422.648041 310.171755 
L 429.231304 281.103997 
L 435.814567 279.047507 
L 442.39783 249.303919 
L 448.981093 240.774045 
L 455.564357 240.476794 
L 462.14762 226.041434 
L 468.730883 181.474492 
L 475.314146 215.896034 
L 481.897409 236.382174 
L 488.480672 250.311788 
L 495.063935 242.736986 
L 501.647198 249.75763 
L 508.230461 262.50555 
L 514.813724 229.496416 
L 521.396988 236.886576 
L 527.980251 283.628989 
L 534.563514 297.731785 
L 541.146777 300.256661 
L 547.73004 312.93059 
L 554.313303 294.898842 
L 560.896566 286.646573 
L 567.479829 292.743425 
L 574.063092 308.81688 
L 580.646355 289.048316 
L 587.229618 275.930937 
L 593.812882 243.968728 
L 600.396145 246.247337 
L 606.979408 254.992315 
L 613.562671 267.98656 
L 620.145934 268.78716 
L 626.729197 267.801801 
L 633.31246 275.315095 
L 639.895723 304.321228 
L 646.478986 301.488403 
L 653.062249 300.687744 
L 659.645512 293.543967 
L 666.228776 292.250717 
L 672.812039 305.552971 
L 679.395302 302.904786 
L 685.978565 305.73767 
L 692.561828 276.793104 
L 699.145091 269.033485 
L 705.728354 274.884012 
L 712.311617 278.332679 
L 718.89488 238.980368 
L 725.478143 229.742799 
L 732.061407 241.628494 
L 738.64467 247.232637 
L 745.227933 226.478773 
L 751.811196 203.507867 
L 758.394459 176.657151 
L 764.977722 173.577942 
L 771.560985 263.244584 
L 778.144248 246.894459 
L 784.727511 218.039699 
L 791.310774 204.230179 
L 797.894037 229.058024 
L 804.477301 230.647238 
L 811.060564 237.373204 
L 817.643827 206.020055 
L 824.22709 224.379661 
L 830.810353 202.283082 
L 837.393616 205.222904 
L 843.976879 201.936134 
L 850.560142 172.984142 
L 857.143405 179.327085 
L 863.726668 113.853152 
L 870.309932 113.161244 
L 876.893195 91.148216 
L 883.476458 257.131653 
L 890.059721 251.065263 
L 896.642984 247.740489 
L 903.226247 251.499913 
L 909.80951 243.097557 
L 916.392773 248.07551 
L 922.976036 235.723943 
L 929.559299 237.848899 
L 936.142562 220.257385 
L 942.725826 177.86422 
L 949.309089 203.555167 
L 955.892352 193.573536 
L 962.475615 174.617851 
L 969.058878 178.246132 
L 975.642141 193.340776 
L 982.225404 178.947629 
L 988.808667 182.826503 
L 995.39193 159.97604 
L 1001.975193 134.554629 
L 1008.558457 146.00813 
L 1015.14172 126.591425 
L 1021.724983 85.957908 
L 1028.308246 102.87061 
L 1034.891509 77.376115 
L 1041.474772 85.253546 
L 1048.058035 70.852097 
L 1054.641298 73.42819 
L 1061.224561 76.778632 
L 1067.807824 85.671182 
L 1074.391087 80.856062 
L 1080.974351 59.52477 
L 1087.557614 91.668697 
L 1087.557614 91.668697 
" clip-path="url(#p84ae7fc53b)" style="fill: none; stroke: #9c27b0; stroke-opacity: 0.7; stroke-linecap: square"/>
   </g>
   <g id="line2d_34">
    <path d="M 93.484886 299.631522 
L 100.068149 315.265065 
L 106.651413 328.752837 
L 113.234676 328.568897 
L 119.817939 347.574368 
L 126.401202 346.838667 
L 132.984465 352.846852 
L 139.567728 346.838667 
L 146.150991 338.684712 
L 152.734254 326.974888 
L 159.317517 336.600245 
L 165.90078 344.57029 
L 172.484043 341.382272 
L 179.067307 322.376801 
L 185.65057 336.968096 
L 192.233833 322.989866 
L 198.817096 331.818219 
L 205.400359 347.819611 
L 211.983622 349.720167 
L 218.566885 342.24058 
L 225.150148 335.803241 
L 231.733411 351.988544 
L 238.316674 341.811426 
L 244.899938 353.827797 
L 251.483201 346.409513 
L 258.066464 358.855038 
L 264.649727 364.311462 
L 271.23299 368.970852 
L 277.816253 357.690183 
L 284.399516 352.724245 
L 290.982779 363.882308 
L 297.566042 344.999444 
L 304.149305 337.7651 
L 310.732568 323.97081 
L 317.315832 334.883629 
L 323.899095 326.913585 
L 330.482358 325.626123 
L 337.065621 327.465346 
L 343.648884 338.010314 
L 350.232147 344.692897 
L 356.81541 338.929955 
L 363.398673 331.143821 
L 369.981936 334.69969 
L 376.565199 351.314147 
L 383.148463 332.676527 
L 389.731726 327.281435 
L 396.314989 330.59206 
L 402.898252 326.913585 
L 409.481515 299.018428 
L 416.064778 313.303205 
L 422.648041 312.383594 
L 429.231304 283.446219 
L 435.814567 281.239116 
L 442.39783 251.259552 
L 448.981093 243.044293 
L 455.564357 242.492473 
L 462.14762 227.778572 
L 468.730883 183.207655 
L 475.314146 217.35621 
L 481.897409 238.016994 
L 488.480672 252.179134 
L 495.063935 245.251337 
L 501.647198 252.240467 
L 508.230461 264.931206 
L 514.813724 232.070112 
L 521.396988 239.427121 
L 527.980251 285.959869 
L 534.563514 299.999402 
L 541.146777 302.512993 
L 547.73004 315.265065 
L 554.313303 297.179205 
L 560.896566 288.963947 
L 567.479829 295.033435 
L 574.063092 311.034799 
L 580.646355 291.354931 
L 587.229618 278.296371 
L 593.812882 246.477525 
L 600.396145 248.745902 
L 606.979408 257.451648 
L 613.562671 270.387601 
L 620.145934 271.184634 
L 626.729197 270.203719 
L 633.31246 277.683277 
L 639.895723 306.559319 
L 646.478986 303.739181 
L 653.062249 302.942147 
L 659.645512 295.830411 
L 666.228776 294.542949 
L 672.812039 307.785507 
L 679.395302 305.14925 
L 685.978565 307.969388 
L 692.561828 279.154679 
L 699.145091 271.429848 
L 705.728354 277.254123 
L 712.311617 280.687355 
L 718.89488 241.511558 
L 725.478143 232.315385 
L 732.061407 244.147815 
L 738.64467 249.726817 
L 745.227933 229.066034 
L 751.811196 206.198148 
L 758.394459 179.467876 
L 764.977722 176.402465 
L 771.560985 265.666906 
L 778.144248 250.585125 
L 784.727511 223.119152 
L 791.310774 210.367139 
L 797.894037 235.871224 
L 804.477301 237.894387 
L 811.060564 244.699576 
L 817.643827 213.922978 
L 824.22709 232.805813 
L 830.810353 211.041507 
L 837.393616 214.352132 
L 843.976879 211.531936 
L 850.560142 181.797586 
L 857.143405 187.928407 
L 863.726668 121.286637 
L 870.309932 119.324749 
L 876.893195 96.57947 
L 883.476458 262.233674 
L 890.059721 256.961161 
L 896.642984 254.202297 
L 903.226247 257.942076 
L 909.80951 249.236389 
L 916.392773 253.650536 
L 922.976036 240.65325 
L 929.559299 243.044293 
L 936.142562 225.081041 
L 942.725826 183.085048 
L 949.309089 208.77313 
L 955.892352 198.595983 
L 962.475615 178.732175 
L 969.058878 182.165465 
L 975.642141 197.798949 
L 982.225404 184.127295 
L 988.808667 189.154536 
L 995.39193 167.451505 
L 1001.975193 143.35749 
L 1008.558457 155.435135 
L 1015.14172 136.307086 
L 1021.724983 96.211649 
L 1028.308246 111.722584 
L 1034.891509 85.2988 
L 1041.474772 93.514118 
L 1048.058035 78.493669 
L 1054.641298 80.210285 
L 1061.224561 84.317885 
L 1067.807824 93.023631 
L 1074.391087 88.302937 
L 1080.974351 67.02906 
L 1087.557614 97.376504 
L 1087.557614 97.376504 
" clip-path="url(#p84ae7fc53b)" style="fill: none; stroke: #999999; stroke-opacity: 0.7; stroke-linecap: square"/>
   </g>
   <g id="patch_3">
    <path d="M 43.78125 385.478125 
L 43.78125 22.318125 
" style="fill: none; stroke: #000000; stroke-width: 0.8; stroke-linejoin: miter; stroke-linecap: square"/>
   </g>
   <g id="patch_4">
    <path d="M 1137.26125 385.478125 
L 1137.26125 22.318125 
" style="fill: none; stroke: #000000; stroke-width: 0.8; stroke-linejoin: miter; stroke-linecap: square"/>
   </g>
   <g id="patch_5">
    <path d="M 43.78125 385.478125 
L 1137.26125 385.478125 
" style="fill: none; stroke: #000000; stroke-width: 0.8; stroke-linejoin: miter; stroke-linecap: square"/>
   </g>
   <g id="patch_6">
    <path d="M 43.78125 22.318125 
L 1137.26125 22.318125 
" style="fill: none; stroke: #000000; stroke-width: 0.8; stroke-linejoin: miter; stroke-linecap: square"/>
   </g>
   <g id="text_17">
    <!-- All Models - Copper Price Prediction Comparison -->
    <g transform="translate(446.332813 16.318125) scale(0.12 -0.12)">
     <defs>
      <path id="DejaVuSans-41" d="M 2188 4044 
L 1331 1722 
L 3047 1722 
L 2188 4044 
z
M 1831 4666 
L 2547 4666 
L 4325 0 
L 3669 0 
L 3244 1197 
L 1141 1197 
L 716 0 
L 50 0 
L 1831 4666 
z
" transform="scale(0.015625)"/>
      <path id="DejaVuSans-6c" d="M 603 4863 
L 1178 4863 
L 1178 0 
L 603 0 
L 603 4863 
z
" transform="scale(0.015625)"/>
      <path id="DejaVuSans-4d" d="M 628 4666 
L 1569 4666 
L 2759 1491 
L 3956 4666 
L 4897 4666 
L 4897 0 
L 4281 0 
L 4281 4097 
L 3078 897 
L 2444 897 
L 1241 4097 
L 1241 0 
L 628 0 
L 628 4666 
z
" transform="scale(0.015625)"/>
      <path id="DejaVuSans-64" d="M 2906 2969 
L 2906 4863 
L 3481 4863 
L 3481 0 
L 2906 0 
L 2906 525 
Q 2725 213 2448 61 
Q 2172 -91 1784 -91 
Q 1150 -91 751 415 
Q 353 922 353 1747 
Q 353 2572 751 3078 
Q 1150 3584 1784 3584 
Q 2172 3584 2448 3432 
Q 2725 3281 2906 2969 
z
M 947 1747 
Q 947 1113 1208 752 
Q 1469 391 1925 391 
Q 2381 391 2643 752 
Q 2906 1113 2906 1747 
Q 2906 2381 2643 2742 
Q 2381 3103 1925 3103 
Q 1469 3103 1208 2742 
Q 947 2381 947 1747 
z
" transform="scale(0.015625)"/>
      <path id="DejaVuSans-73" d="M 2834 3397 
L 2834 2853 
Q 2591 2978 2328 3040 
Q 2066 3103 1784 3103 
Q 1356 3103 1142 2972 
Q 928 2841 928 2578 
Q 928 2378 1081 2264 
Q 1234 2150 1697 2047 
L 1894 2003 
Q 2506 1872 2764 1633 
Q 3022 1394 3022 966 
Q 3022 478 2636 193 
Q 2250 -91 1575 -91 
Q 1294 -91 989 -36 
Q 684 19 347 128 
L 347 722 
Q 666 556 975 473 
Q 1284 391 1588 391 
Q 1994 391 2212 530 
Q 2431 669 2431 922 
Q 2431 1156 2273 1281 
Q 2116 1406 1581 1522 
L 1381 1569 
Q 847 1681 609 1914 
Q 372 2147 372 2553 
Q 372 3047 722 3315 
Q 1072 3584 1716 3584 
Q 2034 3584 2315 3537 
Q 2597 3491 2834 3397 
z
" transform="scale(0.015625)"/>
      <path id="DejaVuSans-2d" d="M 313 2009 
L 1997 2009 
L 1997 1497 
L 313 1497 
L 313 2009 
z
" transform="scale(0.015625)"/>
      <path id="DejaVuSans-6e" d="M 3513 2113 
L 3513 0 
L 2938 0 
L 2938 2094 
Q 2938 2591 2744 2837 
Q 2550 3084 2163 3084 
Q 1697 3084 1428 2787 
Q 1159 2491 1159 1978 
L 1159 0 
L 581 0 
L 581 3500 
L 1159 3500 
L 1159 2956 
Q 1366 3272 1645 3428 
Q 1925 3584 2291 3584 
Q 2894 3584 3203 3211 
Q 3513 2838 3513 2113 
z
" transform="scale(0.015625)"/>
      <path id="DejaVuSans-61" d="M 2194 1759 
Q 1497 1759 1228 1600 
Q 959 1441 959 1056 
Q 959 750 1161 570 
Q 1363 391 1709 391 
Q 2188 391 2477 730 
Q 2766 1069 2766 1631 
L 2766 1759 
L 2194 1759 
z
M 3341 1997 
L 3341 0 
L 2766 0 
L 2766 531 
Q 2569 213 2275 61 
Q 1981 -91 1556 -91 
Q 1019 -91 701 211 
Q 384 513 384 1019 
Q 384 1609 779 1909 
Q 1175 2209 1959 2209 
L 2766 2209 
L 2766 2266 
Q 2766 2663 2505 2880 
Q 2244 3097 1772 3097 
Q 1472 3097 1187 3025 
Q 903 2953 641 2809 
L 641 3341 
Q 956 3463 1253 3523 
Q 1550 3584 1831 3584 
Q 2591 3584 2966 3190 
Q 3341 2797 3341 1997 
z
" transform="scale(0.015625)"/>
     </defs>
     <use xlink:href="#DejaVuSans-41"/>
     <use xlink:href="#DejaVuSans-6c" transform="translate(68.408203 0)"/>
     <use xlink:href="#DejaVuSans-6c" transform="translate(96.191406 0)"/>
     <use xlink:href="#DejaVuSans-20" transform="translate(123.974609 0)"/>
     <use xlink:href="#DejaVuSans-4d" transform="translate(155.761719 0)"/>
     <use xlink:href="#DejaVuSans-6f" transform="translate(242.041016 0)"/>
     <use xlink:href="#DejaVuSans-64" transform="translate(303.222656 0)"/>
     <use xlink:href="#DejaVuSans-65" transform="translate(366.699219 0)"/>
     <use xlink:href="#DejaVuSans-6c" transform="translate(428.222656 0)"/>
     <use xlink:href="#DejaVuSans-73" transform="translate(456.005859 0)"/>
     <use xlink:href="#DejaVuSans-20" transform="translate(508.105469 0)"/>
     <use xlink:href="#DejaVuSans-2d" transform="translate(539.892578 0)"/>
     <use xlink:href="#DejaVuSans-20" transform="translate(575.976562 0)"/>
     <use xlink:href="#DejaVuSans-43" transform="translate(607.763672 0)"/>
     <use xlink:href="#DejaVuSans-6f" transform="translate(677.587891 0)"/>
     <use xlink:href="#DejaVuSans-70" transform="translate(738.769531 0)"/>
     <use xlink:href="#DejaVuSans-70" transform="translate(802.246094 0)"/>
     <use xlink:href="#DejaVuSans-65" transform="translate(865.722656 0)"/>
     <use xlink:href="#DejaVuSans-72" transform="translate(927.246094 0)"/>
     <use xlink:href="#DejaVuSans-20" transform="translate(968.359375 0)"/>
     <use xlink:href="#DejaVuSans-50" transform="translate(1000.146484 0)"/>
     <use xlink:href="#DejaVuSans-72" transform="translate(1058.699219 0)"/>
     <use xlink:href="#DejaVuSans-69" transform="translate(1099.8125 0)"/>
     <use xlink:href="#DejaVuSans-63" transform="translate(1127.595703 0)"/>
     <use xlink:href="#DejaVuSans-65" transform="translate(1182.576172 0)"/>
     <use xlink:href="#DejaVuSans-20" transform="translate(1244.099609 0)"/>
     <use xlink:href="#DejaVuSans-50" transform="translate(1275.886719 0)"/>
     <use xlink:href="#DejaVuSans-72" transform="translate(1334.439453 0)"/>
     <use xlink:href="#DejaVuSans-65" transform="translate(1373.302734 0)"/>
     <use xlink:href="#DejaVuSans-64" transform="translate(1434.826172 0)"/>
     <use xlink:href="#DejaVuSans-69" transform="translate(1498.302734 0)"/>
     <use xlink:href="#DejaVuSans-63" transform="translate(1526.085938 0)"/>
     <use xlink:href="#DejaVuSans-74" transform="translate(1581.066406 0)"/>
     <use xlink:href="#DejaVuSans-69" transform="translate(1620.275391 0)"/>
     <use xlink:href="#DejaVuSans-6f" transform="translate(1648.058594 0)"/>
     <use xlink:href="#DejaVuSans-6e" transform="translate(1709.240234 0)"/>
     <use xlink:href="#DejaVuSans-20" transform="translate(1772.619141 0)"/>
     <use xlink:href="#DejaVuSans-43" transform="translate(1804.40625 0)"/>
     <use xlink:href="#DejaVuSans-6f" transform="translate(1874.230469 0)"/>
     <use xlink:href="#DejaVuSans-6d" transform="translate(1935.412109 0)"/>
     <use xlink:href="#DejaVuSans-70" transform="translate(2032.824219 0)"/>
     <use xlink:href="#DejaVuSans-61" transform="translate(2096.300781 0)"/>
     <use xlink:href="#DejaVuSans-72" transform="translate(2157.580078 0)"/>
     <use xlink:href="#DejaVuSans-69" transform="translate(2198.693359 0)"/>
     <use xlink:href="#DejaVuSans-73" transform="translate(2226.476562 0)"/>
     <use xlink:href="#DejaVuSans-6f" transform="translate(2278.576172 0)"/>
     <use xlink:href="#DejaVuSans-6e" transform="translate(2339.757812 0)"/>
    </g>
   </g>
   <g id="legend_1">
    <g id="patch_7">
     <path d="M 50.78125 118.386875 
L 142.779687 118.386875 
Q 144.779687 118.386875 144.779687 116.386875 
L 144.779687 29.318125 
Q 144.779687 27.318125 142.779687 27.318125 
L 50.78125 27.318125 
Q 48.78125 27.318125 48.78125 29.318125 
L 48.78125 116.386875 
Q 48.78125 118.386875 50.78125 118.386875 
z
" style="fill: #ffffff; opacity: 0.8; stroke: #cccccc; stroke-linejoin: miter"/>
    </g>
    <g id="line2d_35">
     <path d="M 52.78125 35.416563 
L 62.78125 35.416563 
L 72.78125 35.416563 
" style="fill: none; stroke: #000000; stroke-opacity: 0.9; stroke-width: 1.5; stroke-linecap: square"/>
    </g>
    <g id="text_18">
     <!-- True -->
     <g transform="translate(80.78125 38.916563) scale(0.1 -0.1)">
      <defs>
       <path id="DejaVuSans-75" d="M 544 1381 
L 544 3500 
L 1119 3500 
L 1119 1403 
Q 1119 906 1312 657 
Q 1506 409 1894 409 
Q 2359 409 2629 706 
Q 2900 1003 2900 1516 
L 2900 3500 
L 3475 3500 
L 3475 0 
L 2900 0 
L 2900 538 
Q 2691 219 2414 64 
Q 2138 -91 1772 -91 
Q 1169 -91 856 284 
Q 544 659 544 1381 
z
M 1991 3584 
L 1991 3584 
z
" transform="scale(0.015625)"/>
      </defs>
      <use xlink:href="#DejaVuSans-54"/>
      <use xlink:href="#DejaVuSans-72" transform="translate(46.333984 0)"/>
      <use xlink:href="#DejaVuSans-75" transform="translate(87.447266 0)"/>
      <use xlink:href="#DejaVuSans-65" transform="translate(150.826172 0)"/>
     </g>
    </g>
    <g id="line2d_36">
     <path d="M 52.78125 50.094688 
L 62.78125 50.094688 
L 72.78125 50.094688 
" style="fill: none; stroke: #ff5722; stroke-opacity: 0.7; stroke-linecap: square"/>
    </g>
    <g id="text_19">
     <!-- MDHGNN -->
     <g transform="translate(80.78125 53.594688) scale(0.1 -0.1)">
      <defs>
       <path id="DejaVuSans-44" d="M 1259 4147 
L 1259 519 
L 2022 519 
Q 2988 519 3436 956 
Q 3884 1394 3884 2338 
Q 3884 3275 3436 3711 
Q 2988 4147 2022 4147 
L 1259 4147 
z
M 628 4666 
L 1925 4666 
Q 3281 4666 3915 4102 
Q 4550 3538 4550 2338 
Q 4550 1131 3912 565 
Q 3275 0 1925 0 
L 628 0 
L 628 4666 
z
" transform="scale(0.015625)"/>
       <path id="DejaVuSans-48" d="M 628 4666 
L 1259 4666 
L 1259 2753 
L 3553 2753 
L 3553 4666 
L 4184 4666 
L 4184 0 
L 3553 0 
L 3553 2222 
L 1259 2222 
L 1259 0 
L 628 0 
L 628 4666 
z
" transform="scale(0.015625)"/>
       <path id="DejaVuSans-47" d="M 3809 666 
L 3809 1919 
L 2778 1919 
L 2778 2438 
L 4434 2438 
L 4434 434 
Q 4069 175 3628 42 
Q 3188 -91 2688 -91 
Q 1594 -91 976 548 
Q 359 1188 359 2328 
Q 359 3472 976 4111 
Q 1594 4750 2688 4750 
Q 3144 4750 3555 4637 
Q 3966 4525 4313 4306 
L 4313 3634 
Q 3963 3931 3569 4081 
Q 3175 4231 2741 4231 
Q 1884 4231 1454 3753 
Q 1025 3275 1025 2328 
Q 1025 1384 1454 906 
Q 1884 428 2741 428 
Q 3075 428 3337 486 
Q 3600 544 3809 666 
z
" transform="scale(0.015625)"/>
       <path id="DejaVuSans-4e" d="M 628 4666 
L 1478 4666 
L 3547 763 
L 3547 4666 
L 4159 4666 
L 4159 0 
L 3309 0 
L 1241 3903 
L 1241 0 
L 628 0 
L 628 4666 
z
" transform="scale(0.015625)"/>
      </defs>
      <use xlink:href="#DejaVuSans-4d"/>
      <use xlink:href="#DejaVuSans-44" transform="translate(86.279297 0)"/>
      <use xlink:href="#DejaVuSans-48" transform="translate(163.28125 0)"/>
      <use xlink:href="#DejaVuSans-47" transform="translate(238.476562 0)"/>
      <use xlink:href="#DejaVuSans-4e" transform="translate(315.966797 0)"/>
      <use xlink:href="#DejaVuSans-4e" transform="translate(390.771484 0)"/>
     </g>
    </g>
    <g id="line2d_37">
     <path d="M 52.78125 64.772813 
L 62.78125 64.772813 
L 72.78125 64.772813 
" style="fill: none; stroke: #4caf50; stroke-opacity: 0.7; stroke-linecap: square"/>
    </g>
    <g id="text_20">
     <!-- GRU -->
     <g transform="translate(80.78125 68.272813) scale(0.1 -0.1)">
      <defs>
       <path id="DejaVuSans-52" d="M 2841 2188 
Q 3044 2119 3236 1894 
Q 3428 1669 3622 1275 
L 4263 0 
L 3584 0 
L 2988 1197 
Q 2756 1666 2539 1819 
Q 2322 1972 1947 1972 
L 1259 1972 
L 1259 0 
L 628 0 
L 628 4666 
L 2053 4666 
Q 2853 4666 3247 4331 
Q 3641 3997 3641 3322 
Q 3641 2881 3436 2590 
Q 3231 2300 2841 2188 
z
M 1259 4147 
L 1259 2491 
L 2053 2491 
Q 2509 2491 2742 2702 
Q 2975 2913 2975 3322 
Q 2975 3731 2742 3939 
Q 2509 4147 2053 4147 
L 1259 4147 
z
" transform="scale(0.015625)"/>
       <path id="DejaVuSans-55" d="M 556 4666 
L 1191 4666 
L 1191 1831 
Q 1191 1081 1462 751 
Q 1734 422 2344 422 
Q 2950 422 3222 751 
Q 3494 1081 3494 1831 
L 3494 4666 
L 4128 4666 
L 4128 1753 
Q 4128 841 3676 375 
Q 3225 -91 2344 -91 
Q 1459 -91 1007 375 
Q 556 841 556 1753 
L 556 4666 
z
" transform="scale(0.015625)"/>
      </defs>
      <use xlink:href="#DejaVuSans-47"/>
      <use xlink:href="#DejaVuSans-52" transform="translate(77.490234 0)"/>
      <use xlink:href="#DejaVuSans-55" transform="translate(146.972656 0)"/>
     </g>
    </g>
    <g id="line2d_38">
     <path d="M 52.78125 79.450938 
L 62.78125 79.450938 
L 72.78125 79.450938 
" style="fill: none; stroke: #999999; stroke-opacity: 0.7; stroke-linecap: square"/>
    </g>
    <g id="text_21">
     <!-- MLP -->
     <g transform="translate(80.78125 82.950938) scale(0.1 -0.1)">
      <defs>
       <path id="DejaVuSans-4c" d="M 628 4666 
L 1259 4666 
L 1259 531 
L 3531 531 
L 3531 0 
L 628 0 
L 628 4666 
z
" transform="scale(0.015625)"/>
      </defs>
      <use xlink:href="#DejaVuSans-4d"/>
      <use xlink:href="#DejaVuSans-4c" transform="translate(86.279297 0)"/>
      <use xlink:href="#DejaVuSans-50" transform="translate(141.992188 0)"/>
     </g>
    </g>
    <g id="line2d_39">
     <path d="M 52.78125 94.129063 
L 62.78125 94.129063 
L 72.78125 94.129063 
" style="fill: none; stroke: #9c27b0; stroke-opacity: 0.7; stroke-linecap: square"/>
    </g>
    <g id="text_22">
     <!-- Transformer -->
     <g transform="translate(80.78125 97.629063) scale(0.1 -0.1)">
      <defs>
       <path id="DejaVuSans-66" d="M 2375 4863 
L 2375 4384 
L 1825 4384 
Q 1516 4384 1395 4259 
Q 1275 4134 1275 3809 
L 1275 3500 
L 2222 3500 
L 2222 3053 
L 1275 3053 
L 1275 0 
L 697 0 
L 697 3053 
L 147 3053 
L 147 3500 
L 697 3500 
L 697 3744 
Q 697 4328 969 4595 
Q 1241 4863 1831 4863 
L 2375 4863 
z
" transform="scale(0.015625)"/>
      </defs>
      <use xlink:href="#DejaVuSans-54"/>
      <use xlink:href="#DejaVuSans-72" transform="translate(46.333984 0)"/>
      <use xlink:href="#DejaVuSans-61" transform="translate(87.447266 0)"/>
      <use xlink:href="#DejaVuSans-6e" transform="translate(148.726562 0)"/>
      <use xlink:href="#DejaVuSans-73" transform="translate(212.105469 0)"/>
      <use xlink:href="#DejaVuSans-66" transform="translate(264.205078 0)"/>
      <use xlink:href="#DejaVuSans-6f" transform="translate(299.410156 0)"/>
      <use xlink:href="#DejaVuSans-72" transform="translate(360.591797 0)"/>
      <use xlink:href="#DejaVuSans-6d" transform="translate(399.955078 0)"/>
      <use xlink:href="#DejaVuSans-65" transform="translate(497.367188 0)"/>
      <use xlink:href="#DejaVuSans-72" transform="translate(558.890625 0)"/>
     </g>
    </g>
    <g id="line2d_40">
     <path d="M 52.78125 108.807188 
L 62.78125 108.807188 
L 72.78125 108.807188 
" style="fill: none; stroke: #999999; stroke-opacity: 0.7; stroke-linecap: square"/>
    </g>
    <g id="text_23">
     <!-- Naive -->
     <g transform="translate(80.78125 112.307188) scale(0.1 -0.1)">
      <defs>
       <path id="DejaVuSans-76" d="M 191 3500 
L 800 3500 
L 1894 563 
L 2988 3500 
L 3597 3500 
L 2284 0 
L 1503 0 
L 191 3500 
z
" transform="scale(0.015625)"/>
      </defs>
      <use xlink:href="#DejaVuSans-4e"/>
      <use xlink:href="#DejaVuSans-61" transform="translate(74.804688 0)"/>
      <use xlink:href="#DejaVuSans-69" transform="translate(136.083984 0)"/>
      <use xlink:href="#DejaVuSans-76" transform="translate(163.867188 0)"/>
      <use xlink:href="#DejaVuSans-65" transform="translate(223.046875 0)"/>
     </g>
    </g>
   </g>
  </g>
 </g>
 <defs>
  <clipPath id="p84ae7fc53b">
   <rect x="43.78125" y="22.318125" width="1093.48" height="363.16"/>
  </clipPath>
 </defs>
</svg>
