<?xml version="1.0" encoding="utf-8" standalone="no"?>
<!DOCTYPE svg PUBLIC "-//W3C//DTD SVG 1.1//EN"
  "http://www.w3.org/Graphics/SVG/1.1/DTD/svg11.dtd">
<svg xmlns:xlink="http://www.w3.org/1999/xlink" width="1000.46125pt" height="351.034375pt" viewBox="0 0 1000.46125 351.034375" xmlns="http://www.w3.org/2000/svg" version="1.1">
 <metadata>
  <rdf:RDF xmlns:dc="http://purl.org/dc/elements/1.1/" xmlns:cc="http://creativecommons.org/ns#" xmlns:rdf="http://www.w3.org/1999/02/22-rdf-syntax-ns#">
   <cc:Work>
    <dc:type rdf:resource="http://purl.org/dc/dcmitype/StillImage"/>
    <dc:date>2026-07-15T18:30:56.956786</dc:date>
    <dc:format>image/svg+xml</dc:format>
    <dc:creator>
     <cc:Agent>
      <dc:title>Matplotlib v3.10.9, https://matplotlib.org/</dc:title>
     </cc:Agent>
    </dc:creator>
   </cc:Work>
  </rdf:RDF>
 </metadata>
 <defs>
  <style type="text/css">*{stroke-linejoin: round; stroke-linecap: butt}</style>
 </defs>
 <g id="figure_1">
  <g id="patch_1">
   <path d="M -0 351.034375 
L 1000.46125 351.034375 
L 1000.46125 0 
L -0 0 
z
" style="fill: #ffffff"/>
  </g>
  <g id="axes_1">
   <g id="patch_2">
    <path d="M 43.78125 313.478125 
L 993.26125 313.478125 
L 993.26125 22.318125 
L 43.78125 22.318125 
z
" style="fill: #ffffff"/>
   </g>
   <g id="matplotlib.axis_1">
    <g id="xtick_1">
     <g id="line2d_1">
      <path d="M 86.939432 313.478125 
L 86.939432 22.318125 
" clip-path="url(#pf1ad17078d)" style="fill: none; stroke: #b0b0b0; stroke-opacity: 0.3; stroke-width: 0.8; stroke-linecap: square"/>
     </g>
     <g id="line2d_2">
      <defs>
       <path id="mbfa14dc7ca" d="M 0 0 
L 0 3.5 
" style="stroke: #000000; stroke-width: 0.8"/>
      </defs>
      <g>
       <use xlink:href="#mbfa14dc7ca" x="86.939432" y="313.478125" style="stroke: #000000; stroke-width: 0.8"/>
      </g>
     </g>
     <g id="text_1">
      <!-- 0 -->
      <g transform="translate(83.758182 328.076563) scale(0.1 -0.1)">
       <defs>
        <path id="DejaVuSans-30" d="M 2034 4250 
Q 1547 4250 1301 3770 
Q 1056 3291 1056 2328 
Q 1056 1369 1301 889 
Q 1547 409 2034 409 
Q 2525 409 2770 889 
Q 3016 1369 3016 2328 
Q 3016 3291 2770 3770 
Q 2525 4250 2034 4250 
z
M 2034 4750 
Q 2819 4750 3233 4129 
Q 3647 3509 3647 2328 
Q 3647 1150 3233 529 
Q 2819 -91 2034 -91 
Q 1250 -91 836 529 
Q 422 1150 422 2328 
Q 422 3509 836 4129 
Q 1250 4750 2034 4750 
z
" transform="scale(0.015625)"/>
       </defs>
       <use xlink:href="#DejaVuSans-30"/>
      </g>
     </g>
    </g>
    <g id="xtick_2">
     <g id="line2d_3">
      <path d="M 201.265741 313.478125 
L 201.265741 22.318125 
" clip-path="url(#pf1ad17078d)" style="fill: none; stroke: #b0b0b0; stroke-opacity: 0.3; stroke-width: 0.8; stroke-linecap: square"/>
     </g>
     <g id="line2d_4">
      <g>
       <use xlink:href="#mbfa14dc7ca" x="201.265741" y="313.478125" style="stroke: #000000; stroke-width: 0.8"/>
      </g>
     </g>
     <g id="text_2">
      <!-- 20 -->
      <g transform="translate(194.903241 328.076563) scale(0.1 -0.1)">
       <defs>
        <path id="DejaVuSans-32" d="M 1228 531 
L 3431 531 
L 3431 0 
L 469 0 
L 469 531 
Q 828 903 1448 1529 
Q 2069 2156 2228 2338 
Q 2531 2678 2651 2914 
Q 2772 3150 2772 3378 
Q 2772 3750 2511 3984 
Q 2250 4219 1831 4219 
Q 1534 4219 1204 4116 
Q 875 4013 500 3803 
L 500 4441 
Q 881 4594 1212 4672 
Q 1544 4750 1819 4750 
Q 2544 4750 2975 4387 
Q 3406 4025 3406 3419 
Q 3406 3131 3298 2873 
Q 3191 2616 2906 2266 
Q 2828 2175 2409 1742 
Q 1991 1309 1228 531 
z
" transform="scale(0.015625)"/>
       </defs>
       <use xlink:href="#DejaVuSans-32"/>
       <use xlink:href="#DejaVuSans-30" transform="translate(63.623047 0)"/>
      </g>
     </g>
    </g>
    <g id="xtick_3">
     <g id="line2d_5">
      <path d="M 315.592051 313.478125 
L 315.592051 22.318125 
" clip-path="url(#pf1ad17078d)" style="fill: none; stroke: #b0b0b0; stroke-opacity: 0.3; stroke-width: 0.8; stroke-linecap: square"/>
     </g>
     <g id="line2d_6">
      <g>
       <use xlink:href="#mbfa14dc7ca" x="315.592051" y="313.478125" style="stroke: #000000; stroke-width: 0.8"/>
      </g>
     </g>
     <g id="text_3">
      <!-- 40 -->
      <g transform="translate(309.229551 328.076563) scale(0.1 -0.1)">
       <defs>
        <path id="DejaVuSans-34" d="M 2419 4116 
L 825 1625 
L 2419 1625 
L 2419 4116 
z
M 2253 4666 
L 3047 4666 
L 3047 1625 
L 3713 1625 
L 3713 1100 
L 3047 1100 
L 3047 0 
L 2419 0 
L 2419 1100 
L 313 1100 
L 313 1709 
L 2253 4666 
z
" transform="scale(0.015625)"/>
       </defs>
       <use xlink:href="#DejaVuSans-34"/>
       <use xlink:href="#DejaVuSans-30" transform="translate(63.623047 0)"/>
      </g>
     </g>
    </g>
    <g id="xtick_4">
     <g id="line2d_7">
      <path d="M 429.91836 313.478125 
L 429.91836 22.318125 
" clip-path="url(#pf1ad17078d)" style="fill: none; stroke: #b0b0b0; stroke-opacity: 0.3; stroke-width: 0.8; stroke-linecap: square"/>
     </g>
     <g id="line2d_8">
      <g>
       <use xlink:href="#mbfa14dc7ca" x="429.91836" y="313.478125" style="stroke: #000000; stroke-width: 0.8"/>
      </g>
     </g>
     <g id="text_4">
      <!-- 60 -->
      <g transform="translate(423.55586 328.076563) scale(0.1 -0.1)">
       <defs>
        <path id="DejaVuSans-36" d="M 2113 2584 
Q 1688 2584 1439 2293 
Q 1191 2003 1191 1497 
Q 1191 994 1439 701 
Q 1688 409 2113 409 
Q 2538 409 2786 701 
Q 3034 994 3034 1497 
Q 3034 2003 2786 2293 
Q 2538 2584 2113 2584 
z
M 3366 4563 
L 3366 3988 
Q 3128 4100 2886 4159 
Q 2644 4219 2406 4219 
Q 1781 4219 1451 3797 
Q 1122 3375 1075 2522 
Q 1259 2794 1537 2939 
Q 1816 3084 2150 3084 
Q 2853 3084 3261 2657 
Q 3669 2231 3669 1497 
Q 3669 778 3244 343 
Q 2819 -91 2113 -91 
Q 1303 -91 875 529 
Q 447 1150 447 2328 
Q 447 3434 972 4092 
Q 1497 4750 2381 4750 
Q 2619 4750 2861 4703 
Q 3103 4656 3366 4563 
z
" transform="scale(0.015625)"/>
       </defs>
       <use xlink:href="#DejaVuSans-36"/>
       <use xlink:href="#DejaVuSans-30" transform="translate(63.623047 0)"/>
      </g>
     </g>
    </g>
    <g id="xtick_5">
     <g id="line2d_9">
      <path d="M 544.24467 313.478125 
L 544.24467 22.318125 
" clip-path="url(#pf1ad17078d)" style="fill: none; stroke: #b0b0b0; stroke-opacity: 0.3; stroke-width: 0.8; stroke-linecap: square"/>
     </g>
     <g id="line2d_10">
      <g>
       <use xlink:href="#mbfa14dc7ca" x="544.24467" y="313.478125" style="stroke: #000000; stroke-width: 0.8"/>
      </g>
     </g>
     <g id="text_5">
      <!-- 80 -->
      <g transform="translate(537.88217 328.076563) scale(0.1 -0.1)">
       <defs>
        <path id="DejaVuSans-38" d="M 2034 2216 
Q 1584 2216 1326 1975 
Q 1069 1734 1069 1313 
Q 1069 891 1326 650 
Q 1584 409 2034 409 
Q 2484 409 2743 651 
Q 3003 894 3003 1313 
Q 3003 1734 2745 1975 
Q 2488 2216 2034 2216 
z
M 1403 2484 
Q 997 2584 770 2862 
Q 544 3141 544 3541 
Q 544 4100 942 4425 
Q 1341 4750 2034 4750 
Q 2731 4750 3128 4425 
Q 3525 4100 3525 3541 
Q 3525 3141 3298 2862 
Q 3072 2584 2669 2484 
Q 3125 2378 3379 2068 
Q 3634 1759 3634 1313 
Q 3634 634 3220 271 
Q 2806 -91 2034 -91 
Q 1263 -91 848 271 
Q 434 634 434 1313 
Q 434 1759 690 2068 
Q 947 2378 1403 2484 
z
M 1172 3481 
Q 1172 3119 1398 2916 
Q 1625 2713 2034 2713 
Q 2441 2713 2670 2916 
Q 2900 3119 2900 3481 
Q 2900 3844 2670 4047 
Q 2441 4250 2034 4250 
Q 1625 4250 1398 4047 
Q 1172 3844 1172 3481 
z
" transform="scale(0.015625)"/>
       </defs>
       <use xlink:href="#DejaVuSans-38"/>
       <use xlink:href="#DejaVuSans-30" transform="translate(63.623047 0)"/>
      </g>
     </g>
    </g>
    <g id="xtick_6">
     <g id="line2d_11">
      <path d="M 658.570979 313.478125 
L 658.570979 22.318125 
" clip-path="url(#pf1ad17078d)" style="fill: none; stroke: #b0b0b0; stroke-opacity: 0.3; stroke-width: 0.8; stroke-linecap: square"/>
     </g>
     <g id="line2d_12">
      <g>
       <use xlink:href="#mbfa14dc7ca" x="658.570979" y="313.478125" style="stroke: #000000; stroke-width: 0.8"/>
      </g>
     </g>
     <g id="text_6">
      <!-- 100 -->
      <g transform="translate(649.027229 328.076563) scale(0.1 -0.1)">
       <defs>
        <path id="DejaVuSans-31" d="M 794 531 
L 1825 531 
L 1825 4091 
L 703 3866 
L 703 4441 
L 1819 4666 
L 2450 4666 
L 2450 531 
L 3481 531 
L 3481 0 
L 794 0 
L 794 531 
z
" transform="scale(0.015625)"/>
       </defs>
       <use xlink:href="#DejaVuSans-31"/>
       <use xlink:href="#DejaVuSans-30" transform="translate(63.623047 0)"/>
       <use xlink:href="#DejaVuSans-30" transform="translate(127.246094 0)"/>
      </g>
     </g>
    </g>
    <g id="xtick_7">
     <g id="line2d_13">
      <path d="M 772.897289 313.478125 
L 772.897289 22.318125 
" clip-path="url(#pf1ad17078d)" style="fill: none; stroke: #b0b0b0; stroke-opacity: 0.3; stroke-width: 0.8; stroke-linecap: square"/>
     </g>
     <g id="line2d_14">
      <g>
       <use xlink:href="#mbfa14dc7ca" x="772.897289" y="313.478125" style="stroke: #000000; stroke-width: 0.8"/>
      </g>
     </g>
     <g id="text_7">
      <!-- 120 -->
      <g transform="translate(763.353539 328.076563) scale(0.1 -0.1)">
       <use xlink:href="#DejaVuSans-31"/>
       <use xlink:href="#DejaVuSans-32" transform="translate(63.623047 0)"/>
       <use xlink:href="#DejaVuSans-30" transform="translate(127.246094 0)"/>
      </g>
     </g>
    </g>
    <g id="xtick_8">
     <g id="line2d_15">
      <path d="M 887.223598 313.478125 
L 887.223598 22.318125 
" clip-path="url(#pf1ad17078d)" style="fill: none; stroke: #b0b0b0; stroke-opacity: 0.3; stroke-width: 0.8; stroke-linecap: square"/>
     </g>
     <g id="line2d_16">
      <g>
       <use xlink:href="#mbfa14dc7ca" x="887.223598" y="313.478125" style="stroke: #000000; stroke-width: 0.8"/>
      </g>
     </g>
     <g id="text_8">
      <!-- 140 -->
      <g transform="translate(877.679848 328.076563) scale(0.1 -0.1)">
       <use xlink:href="#DejaVuSans-31"/>
       <use xlink:href="#DejaVuSans-34" transform="translate(63.623047 0)"/>
       <use xlink:href="#DejaVuSans-30" transform="translate(127.246094 0)"/>
      </g>
     </g>
    </g>
    <g id="text_9">
     <!-- Time Step -->
     <g transform="translate(493.313438 341.754687) scale(0.1 -0.1)">
      <defs>
       <path id="DejaVuSans-54" d="M -19 4666 
L 3928 4666 
L 3928 4134 
L 2272 4134 
L 2272 0 
L 1638 0 
L 1638 4134 
L -19 4134 
L -19 4666 
z
" transform="scale(0.015625)"/>
       <path id="DejaVuSans-69" d="M 603 3500 
L 1178 3500 
L 1178 0 
L 603 0 
L 603 3500 
z
M 603 4863 
L 1178 4863 
L 1178 4134 
L 603 4134 
L 603 4863 
z
" transform="scale(0.015625)"/>
       <path id="DejaVuSans-6d" d="M 3328 2828 
Q 3544 3216 3844 3400 
Q 4144 3584 4550 3584 
Q 5097 3584 5394 3201 
Q 5691 2819 5691 2113 
L 5691 0 
L 5113 0 
L 5113 2094 
Q 5113 2597 4934 2840 
Q 4756 3084 4391 3084 
Q 3944 3084 3684 2787 
Q 3425 2491 3425 1978 
L 3425 0 
L 2847 0 
L 2847 2094 
Q 2847 2600 2669 2842 
Q 2491 3084 2119 3084 
Q 1678 3084 1418 2786 
Q 1159 2488 1159 1978 
L 1159 0 
L 581 0 
L 581 3500 
L 1159 3500 
L 1159 2956 
Q 1356 3278 1631 3431 
Q 1906 3584 2284 3584 
Q 2666 3584 2933 3390 
Q 3200 3197 3328 2828 
z
" transform="scale(0.015625)"/>
       <path id="DejaVuSans-65" d="M 3597 1894 
L 3597 1613 
L 953 1613 
Q 991 1019 1311 708 
Q 1631 397 2203 397 
Q 2534 397 2845 478 
Q 3156 559 3463 722 
L 3463 178 
Q 3153 47 2828 -22 
Q 2503 -91 2169 -91 
Q 1331 -91 842 396 
Q 353 884 353 1716 
Q 353 2575 817 3079 
Q 1281 3584 2069 3584 
Q 2775 3584 3186 3129 
Q 3597 2675 3597 1894 
z
M 3022 2063 
Q 3016 2534 2758 2815 
Q 2500 3097 2075 3097 
Q 1594 3097 1305 2825 
Q 1016 2553 972 2059 
L 3022 2063 
z
" transform="scale(0.015625)"/>
       <path id="DejaVuSans-20" transform="scale(0.015625)"/>
       <path id="DejaVuSans-53" d="M 3425 4513 
L 3425 3897 
Q 3066 4069 2747 4153 
Q 2428 4238 2131 4238 
Q 1616 4238 1336 4038 
Q 1056 3838 1056 3469 
Q 1056 3159 1242 3001 
Q 1428 2844 1947 2747 
L 2328 2669 
Q 3034 2534 3370 2195 
Q 3706 1856 3706 1288 
Q 3706 609 3251 259 
Q 2797 -91 1919 -91 
Q 1588 -91 1214 -16 
Q 841 59 441 206 
L 441 856 
Q 825 641 1194 531 
Q 1563 422 1919 422 
Q 2459 422 2753 634 
Q 3047 847 3047 1241 
Q 3047 1584 2836 1778 
Q 2625 1972 2144 2069 
L 1759 2144 
Q 1053 2284 737 2584 
Q 422 2884 422 3419 
Q 422 4038 858 4394 
Q 1294 4750 2059 4750 
Q 2388 4750 2728 4690 
Q 3069 4631 3425 4513 
z
" transform="scale(0.015625)"/>
       <path id="DejaVuSans-74" d="M 1172 4494 
L 1172 3500 
L 2356 3500 
L 2356 3053 
L 1172 3053 
L 1172 1153 
Q 1172 725 1289 603 
Q 1406 481 1766 481 
L 2356 481 
L 2356 0 
L 1766 0 
Q 1100 0 847 248 
Q 594 497 594 1153 
L 594 3053 
L 172 3053 
L 172 3500 
L 594 3500 
L 594 4494 
L 1172 4494 
z
" transform="scale(0.015625)"/>
       <path id="DejaVuSans-70" d="M 1159 525 
L 1159 -1331 
L 581 -1331 
L 581 3500 
L 1159 3500 
L 1159 2969 
Q 1341 3281 1617 3432 
Q 1894 3584 2278 3584 
Q 2916 3584 3314 3078 
Q 3713 2572 3713 1747 
Q 3713 922 3314 415 
Q 2916 -91 2278 -91 
Q 1894 -91 1617 61 
Q 1341 213 1159 525 
z
M 3116 1747 
Q 3116 2381 2855 2742 
Q 2594 3103 2138 3103 
Q 1681 3103 1420 2742 
Q 1159 2381 1159 1747 
Q 1159 1113 1420 752 
Q 1681 391 2138 391 
Q 2594 391 2855 752 
Q 3116 1113 3116 1747 
z
" transform="scale(0.015625)"/>
      </defs>
      <use xlink:href="#DejaVuSans-54"/>
      <use xlink:href="#DejaVuSans-69" transform="translate(57.958984 0)"/>
      <use xlink:href="#DejaVuSans-6d" transform="translate(85.742188 0)"/>
      <use xlink:href="#DejaVuSans-65" transform="translate(183.154297 0)"/>
      <use xlink:href="#DejaVuSans-20" transform="translate(244.677734 0)"/>
      <use xlink:href="#DejaVuSans-53" transform="translate(276.464844 0)"/>
      <use xlink:href="#DejaVuSans-74" transform="translate(339.941406 0)"/>
      <use xlink:href="#DejaVuSans-65" transform="translate(379.150391 0)"/>
      <use xlink:href="#DejaVuSans-70" transform="translate(440.673828 0)"/>
     </g>
    </g>
   </g>
   <g id="matplotlib.axis_2">
    <g id="ytick_1">
     <g id="line2d_17">
      <path d="M 43.78125 304.594109 
L 993.26125 304.594109 
" clip-path="url(#pf1ad17078d)" style="fill: none; stroke: #b0b0b0; stroke-opacity: 0.3; stroke-width: 0.8; stroke-linecap: square"/>
     </g>
     <g id="line2d_18">
      <defs>
       <path id="m5f426c5f11" d="M 0 0 
L -3.5 0 
" style="stroke: #000000; stroke-width: 0.8"/>
      </defs>
      <g>
       <use xlink:href="#m5f426c5f11" x="43.78125" y="304.594109" style="stroke: #000000; stroke-width: 0.8"/>
      </g>
     </g>
     <g id="text_10">
      <!-- 3.5 -->
      <g transform="translate(20.878125 308.393328) scale(0.1 -0.1)">
       <defs>
        <path id="DejaVuSans-33" d="M 2597 2516 
Q 3050 2419 3304 2112 
Q 3559 1806 3559 1356 
Q 3559 666 3084 287 
Q 2609 -91 1734 -91 
Q 1441 -91 1130 -33 
Q 819 25 488 141 
L 488 750 
Q 750 597 1062 519 
Q 1375 441 1716 441 
Q 2309 441 2620 675 
Q 2931 909 2931 1356 
Q 2931 1769 2642 2001 
Q 2353 2234 1838 2234 
L 1294 2234 
L 1294 2753 
L 1863 2753 
Q 2328 2753 2575 2939 
Q 2822 3125 2822 3475 
Q 2822 3834 2567 4026 
Q 2313 4219 1838 4219 
Q 1578 4219 1281 4162 
Q 984 4106 628 3988 
L 628 4550 
Q 988 4650 1302 4700 
Q 1616 4750 1894 4750 
Q 2613 4750 3031 4423 
Q 3450 4097 3450 3541 
Q 3450 3153 3228 2886 
Q 3006 2619 2597 2516 
z
" transform="scale(0.015625)"/>
        <path id="DejaVuSans-2e" d="M 684 794 
L 1344 794 
L 1344 0 
L 684 0 
L 684 794 
z
" transform="scale(0.015625)"/>
        <path id="DejaVuSans-35" d="M 691 4666 
L 3169 4666 
L 3169 4134 
L 1269 4134 
L 1269 2991 
Q 1406 3038 1543 3061 
Q 1681 3084 1819 3084 
Q 2600 3084 3056 2656 
Q 3513 2228 3513 1497 
Q 3513 744 3044 326 
Q 2575 -91 1722 -91 
Q 1428 -91 1123 -41 
Q 819 9 494 109 
L 494 744 
Q 775 591 1075 516 
Q 1375 441 1709 441 
Q 2250 441 2565 725 
Q 2881 1009 2881 1497 
Q 2881 1984 2565 2268 
Q 2250 2553 1709 2553 
Q 1456 2553 1204 2497 
Q 953 2441 691 2322 
L 691 4666 
z
" transform="scale(0.015625)"/>
       </defs>
       <use xlink:href="#DejaVuSans-33"/>
       <use xlink:href="#DejaVuSans-2e" transform="translate(63.623047 0)"/>
       <use xlink:href="#DejaVuSans-35" transform="translate(95.410156 0)"/>
      </g>
     </g>
    </g>
    <g id="ytick_2">
     <g id="line2d_19">
      <path d="M 43.78125 252.802158 
L 993.26125 252.802158 
" clip-path="url(#pf1ad17078d)" style="fill: none; stroke: #b0b0b0; stroke-opacity: 0.3; stroke-width: 0.8; stroke-linecap: square"/>
     </g>
     <g id="line2d_20">
      <g>
       <use xlink:href="#m5f426c5f11" x="43.78125" y="252.802158" style="stroke: #000000; stroke-width: 0.8"/>
      </g>
     </g>
     <g id="text_11">
      <!-- 4.0 -->
      <g transform="translate(20.878125 256.601377) scale(0.1 -0.1)">
       <use xlink:href="#DejaVuSans-34"/>
       <use xlink:href="#DejaVuSans-2e" transform="translate(63.623047 0)"/>
       <use xlink:href="#DejaVuSans-30" transform="translate(95.410156 0)"/>
      </g>
     </g>
    </g>
    <g id="ytick_3">
     <g id="line2d_21">
      <path d="M 43.78125 201.010207 
L 993.26125 201.010207 
" clip-path="url(#pf1ad17078d)" style="fill: none; stroke: #b0b0b0; stroke-opacity: 0.3; stroke-width: 0.8; stroke-linecap: square"/>
     </g>
     <g id="line2d_22">
      <g>
       <use xlink:href="#m5f426c5f11" x="43.78125" y="201.010207" style="stroke: #000000; stroke-width: 0.8"/>
      </g>
     </g>
     <g id="text_12">
      <!-- 4.5 -->
      <g transform="translate(20.878125 204.809426) scale(0.1 -0.1)">
       <use xlink:href="#DejaVuSans-34"/>
       <use xlink:href="#DejaVuSans-2e" transform="translate(63.623047 0)"/>
       <use xlink:href="#DejaVuSans-35" transform="translate(95.410156 0)"/>
      </g>
     </g>
    </g>
    <g id="ytick_4">
     <g id="line2d_23">
      <path d="M 43.78125 149.218256 
L 993.26125 149.218256 
" clip-path="url(#pf1ad17078d)" style="fill: none; stroke: #b0b0b0; stroke-opacity: 0.3; stroke-width: 0.8; stroke-linecap: square"/>
     </g>
     <g id="line2d_24">
      <g>
       <use xlink:href="#m5f426c5f11" x="43.78125" y="149.218256" style="stroke: #000000; stroke-width: 0.8"/>
      </g>
     </g>
     <g id="text_13">
      <!-- 5.0 -->
      <g transform="translate(20.878125 153.017474) scale(0.1 -0.1)">
       <use xlink:href="#DejaVuSans-35"/>
       <use xlink:href="#DejaVuSans-2e" transform="translate(63.623047 0)"/>
       <use xlink:href="#DejaVuSans-30" transform="translate(95.410156 0)"/>
      </g>
     </g>
    </g>
    <g id="ytick_5">
     <g id="line2d_25">
      <path d="M 43.78125 97.426304 
L 993.26125 97.426304 
" clip-path="url(#pf1ad17078d)" style="fill: none; stroke: #b0b0b0; stroke-opacity: 0.3; stroke-width: 0.8; stroke-linecap: square"/>
     </g>
     <g id="line2d_26">
      <g>
       <use xlink:href="#m5f426c5f11" x="43.78125" y="97.426304" style="stroke: #000000; stroke-width: 0.8"/>
      </g>
     </g>
     <g id="text_14">
      <!-- 5.5 -->
      <g transform="translate(20.878125 101.225523) scale(0.1 -0.1)">
       <use xlink:href="#DejaVuSans-35"/>
       <use xlink:href="#DejaVuSans-2e" transform="translate(63.623047 0)"/>
       <use xlink:href="#DejaVuSans-35" transform="translate(95.410156 0)"/>
      </g>
     </g>
    </g>
    <g id="ytick_6">
     <g id="line2d_27">
      <path d="M 43.78125 45.634353 
L 993.26125 45.634353 
" clip-path="url(#pf1ad17078d)" style="fill: none; stroke: #b0b0b0; stroke-opacity: 0.3; stroke-width: 0.8; stroke-linecap: square"/>
     </g>
     <g id="line2d_28">
      <g>
       <use xlink:href="#m5f426c5f11" x="43.78125" y="45.634353" style="stroke: #000000; stroke-width: 0.8"/>
      </g>
     </g>
     <g id="text_15">
      <!-- 6.0 -->
      <g transform="translate(20.878125 49.433572) scale(0.1 -0.1)">
       <use xlink:href="#DejaVuSans-36"/>
       <use xlink:href="#DejaVuSans-2e" transform="translate(63.623047 0)"/>
       <use xlink:href="#DejaVuSans-30" transform="translate(95.410156 0)"/>
      </g>
     </g>
    </g>
    <g id="text_16">
     <!-- Copper Price -->
     <g transform="translate(14.798438 199.716094) rotate(-90) scale(0.1 -0.1)">
      <defs>
       <path id="DejaVuSans-43" d="M 4122 4306 
L 4122 3641 
Q 3803 3938 3442 4084 
Q 3081 4231 2675 4231 
Q 1875 4231 1450 3742 
Q 1025 3253 1025 2328 
Q 1025 1406 1450 917 
Q 1875 428 2675 428 
Q 3081 428 3442 575 
Q 3803 722 4122 1019 
L 4122 359 
Q 3791 134 3420 21 
Q 3050 -91 2638 -91 
Q 1578 -91 968 557 
Q 359 1206 359 2328 
Q 359 3453 968 4101 
Q 1578 4750 2638 4750 
Q 3056 4750 3426 4639 
Q 3797 4528 4122 4306 
z
" transform="scale(0.015625)"/>
       <path id="DejaVuSans-6f" d="M 1959 3097 
Q 1497 3097 1228 2736 
Q 959 2375 959 1747 
Q 959 1119 1226 758 
Q 1494 397 1959 397 
Q 2419 397 2687 759 
Q 2956 1122 2956 1747 
Q 2956 2369 2687 2733 
Q 2419 3097 1959 3097 
z
M 1959 3584 
Q 2709 3584 3137 3096 
Q 3566 2609 3566 1747 
Q 3566 888 3137 398 
Q 2709 -91 1959 -91 
Q 1206 -91 779 398 
Q 353 888 353 1747 
Q 353 2609 779 3096 
Q 1206 3584 1959 3584 
z
" transform="scale(0.015625)"/>
       <path id="DejaVuSans-72" d="M 2631 2963 
Q 2534 3019 2420 3045 
Q 2306 3072 2169 3072 
Q 1681 3072 1420 2755 
Q 1159 2438 1159 1844 
L 1159 0 
L 581 0 
L 581 3500 
L 1159 3500 
L 1159 2956 
Q 1341 3275 1631 3429 
Q 1922 3584 2338 3584 
Q 2397 3584 2469 3576 
Q 2541 3569 2628 3553 
L 2631 2963 
z
" transform="scale(0.015625)"/>
       <path id="DejaVuSans-50" d="M 1259 4147 
L 1259 2394 
L 2053 2394 
Q 2494 2394 2734 2622 
Q 2975 2850 2975 3272 
Q 2975 3691 2734 3919 
Q 2494 4147 2053 4147 
L 1259 4147 
z
M 628 4666 
L 2053 4666 
Q 2838 4666 3239 4311 
Q 3641 3956 3641 3272 
Q 3641 2581 3239 2228 
Q 2838 1875 2053 1875 
L 1259 1875 
L 1259 0 
L 628 0 
L 628 4666 
z
" transform="scale(0.015625)"/>
       <path id="DejaVuSans-63" d="M 3122 3366 
L 3122 2828 
Q 2878 2963 2633 3030 
Q 2388 3097 2138 3097 
Q 1578 3097 1268 2742 
Q 959 2388 959 1747 
Q 959 1106 1268 751 
Q 1578 397 2138 397 
Q 2388 397 2633 464 
Q 2878 531 3122 666 
L 3122 134 
Q 2881 22 2623 -34 
Q 2366 -91 2075 -91 
Q 1284 -91 818 406 
Q 353 903 353 1747 
Q 353 2603 823 3093 
Q 1294 3584 2113 3584 
Q 2378 3584 2631 3529 
Q 2884 3475 3122 3366 
z
" transform="scale(0.015625)"/>
      </defs>
      <use xlink:href="#DejaVuSans-43"/>
      <use xlink:href="#DejaVuSans-6f" transform="translate(69.824219 0)"/>
      <use xlink:href="#DejaVuSans-70" transform="translate(131.005859 0)"/>
      <use xlink:href="#DejaVuSans-70" transform="translate(194.482422 0)"/>
      <use xlink:href="#DejaVuSans-65" transform="translate(257.958984 0)"/>
      <use xlink:href="#DejaVuSans-72" transform="translate(319.482422 0)"/>
      <use xlink:href="#DejaVuSans-20" transform="translate(360.595703 0)"/>
      <use xlink:href="#DejaVuSans-50" transform="translate(392.382812 0)"/>
      <use xlink:href="#DejaVuSans-72" transform="translate(450.935547 0)"/>
      <use xlink:href="#DejaVuSans-69" transform="translate(492.048828 0)"/>
      <use xlink:href="#DejaVuSans-63" transform="translate(519.832031 0)"/>
      <use xlink:href="#DejaVuSans-65" transform="translate(574.8125 0)"/>
     </g>
    </g>
   </g>
   <g id="line2d_29">
    <path d="M 86.939432 266.268077 
L 92.655747 266.112688 
L 98.372063 282.16819 
L 104.088378 281.546682 
L 109.804694 286.622296 
L 115.521009 281.546682 
L 121.237325 274.658333 
L 126.95364 264.766096 
L 132.669956 272.897436 
L 138.386271 279.630395 
L 144.102587 276.937211 
L 149.818902 260.881709 
L 155.535217 273.20819 
L 161.251533 261.399616 
L 166.967848 268.85766 
L 172.684164 282.375367 
L 178.400479 283.980925 
L 184.116795 277.662271 
L 189.83311 272.22414 
L 195.549426 285.897212 
L 201.265741 277.299753 
L 206.982057 287.450981 
L 212.698372 281.18414 
L 218.414688 291.69791 
L 224.131003 296.307405 
L 229.847319 300.24358 
L 235.563634 290.713884 
L 241.27995 286.518719 
L 246.996265 295.944863 
L 252.712581 279.992937 
L 258.428896 273.88151 
L 264.145211 262.228301 
L 269.861527 271.447243 
L 275.577842 264.714308 
L 281.294158 263.626682 
L 287.010473 265.180426 
L 292.726789 274.088638 
L 298.443104 279.733996 
L 304.15942 274.865535 
L 309.875735 268.287965 
L 315.592051 271.291903 
L 321.308366 285.327492 
L 327.024682 269.582769 
L 332.740997 265.025062 
L 338.457313 267.821847 
L 344.173628 264.714283 
L 349.889944 241.148949 
L 355.606259 253.216464 
L 361.322575 252.439616 
L 367.03889 227.993809 
L 372.755205 226.129285 
L 378.471521 200.803054 
L 384.187836 193.862942 
L 389.904152 193.396774 
L 395.620467 180.966767 
L 401.336783 143.314006 
L 407.053098 172.162082 
L 412.769414 189.615964 
L 418.485729 201.579902 
L 424.202045 195.727416 
L 429.91836 201.631715 
L 435.634676 212.352637 
L 441.350991 184.592138 
L 447.067307 190.807216 
L 452.783622 230.117298 
L 458.499938 241.977659 
L 464.216253 244.101099 
L 469.932568 254.873834 
L 475.648884 239.595204 
L 481.365199 232.655043 
L 487.081515 237.782494 
L 492.79783 251.300177 
L 498.514146 234.674955 
L 504.230461 223.643304 
L 509.946777 196.763278 
L 515.663092 198.679565 
L 521.379408 206.034032 
L 527.095723 216.962108 
L 532.812039 217.635428 
L 538.528354 216.806768 
L 544.24467 223.125372 
L 549.960985 247.519367 
L 555.677301 245.136961 
L 561.393616 244.463641 
L 567.109932 238.455765 
L 572.826247 237.368139 
L 578.542562 248.555229 
L 584.258878 246.328164 
L 589.975193 248.710569 
L 595.691509 224.368388 
L 601.407824 217.842581 
L 607.12414 222.762781 
L 612.840455 225.663167 
L 618.556771 192.568113 
L 624.273086 184.79934 
L 629.989402 194.795179 
L 635.705717 199.508226 
L 641.422033 182.054344 
L 647.138348 162.735988 
L 652.854664 140.154605 
L 658.570979 137.565047 
L 664.287295 212.974145 
L 670.00361 200.23331 
L 675.719925 177.030518 
L 681.436241 166.257832 
L 687.152556 187.803253 
L 692.868872 189.512387 
L 698.585187 195.261297 
L 704.301503 169.261745 
L 710.017818 185.213646 
L 715.734134 166.827527 
L 721.450449 169.624287 
L 727.166765 167.241832 
L 732.88308 142.122754 
L 738.599396 147.301969 
L 744.315711 91.004074 
L 750.032027 89.346753 
L 755.748342 70.131924 
L 761.464658 210.073808 
L 767.180973 205.619677 
L 772.897289 203.289036 
L 778.613604 206.448338 
L 784.329919 199.09392 
L 790.046235 202.822917 
L 795.76255 191.84298 
L 801.478866 193.862942 
L 807.195181 178.687888 
L 812.911497 143.21043 
L 818.627812 164.91124 
L 824.344128 156.313757 
L 830.060443 139.533146 
L 835.776759 142.433532 
L 841.493074 155.640437 
L 847.20939 144.090854 
L 852.925705 148.337782 
L 858.642021 130.003427 
L 864.358336 109.649208 
L 870.074652 119.852199 
L 875.790967 103.693145 
L 881.507283 69.821195 
L 887.223598 82.924572 
L 892.939913 60.602204 
L 898.656229 67.542366 
L 904.372544 54.853344 
L 910.08886 56.303463 
L 915.805175 59.773544 
L 921.521491 67.128011 
L 927.237806 63.140048 
L 932.954122 45.168235 
L 938.670437 70.805245 
L 944.386753 75.207562 
L 950.103068 113.740747 
L 950.103068 113.740747 
" clip-path="url(#pf1ad17078d)" style="fill: none; stroke: #1f77b4; stroke-opacity: 0.8; stroke-linecap: square"/>
   </g>
   <g id="line2d_30">
    <path d="M 86.939432 245.745973 
L 92.655747 258.484783 
L 98.372063 268.594446 
L 104.088378 269.130332 
L 109.804694 282.359981 
L 115.521009 279.795095 
L 121.237325 283.671875 
L 126.95364 278.746662 
L 132.669956 272.270717 
L 138.386271 262.896362 
L 144.102587 270.241963 
L 149.818902 276.450546 
L 155.535217 273.273561 
L 161.251533 257.345689 
L 166.967848 270.440744 
L 172.684164 259.142767 
L 178.400479 267.384203 
L 184.116795 280.19599 
L 189.83311 282.020012 
L 195.549426 276.634163 
L 201.265741 272.841548 
L 206.982057 286.513558 
L 212.698372 278.692404 
L 218.414688 288.567502 
L 224.131003 282.057204 
L 229.847319 292.074751 
L 235.563634 295.927971 
L 241.27995 299.957053 
L 246.996265 291.757354 
L 252.712581 288.988698 
L 258.428896 298.836877 
L 264.145211 284.06551 
L 269.861527 278.129649 
L 275.577842 268.521642 
L 281.294158 278.061487 
L 287.010473 270.742286 
L 292.726789 269.29071 
L 298.443104 270.443831 
L 304.15942 277.651972 
L 309.875735 281.631539 
L 315.592051 276.334399 
L 321.308366 269.997469 
L 327.024682 273.725973 
L 332.740997 286.740863 
L 338.457313 271.658544 
L 344.173628 267.064929 
L 349.889944 270.740211 
L 355.606259 269.151497 
L 361.322575 248.116573 
L 367.03889 260.59417 
L 372.755205 260.283441 
L 378.471521 237.730731 
L 384.187836 236.916641 
L 389.904152 213.769268 
L 395.620467 206.537442 
L 401.336783 206.369162 
L 407.053098 194.365462 
L 412.769414 158.087052 
L 418.485729 184.126217 
L 424.202045 197.348384 
L 429.91836 205.157955 
L 435.634676 194.443997 
L 441.350991 197.739969 
L 447.067307 207.429474 
L 452.783622 180.060214 
L 458.499938 187.113682 
L 464.216253 226.057765 
L 469.932568 236.810002 
L 475.648884 238.53588 
L 481.365199 249.028954 
L 487.081515 234.575874 
L 492.79783 228.790562 
L 498.514146 234.264799 
L 504.230461 247.848865 
L 509.946777 231.310871 
L 515.663092 220.546434 
L 521.379408 196.529503 
L 527.095723 198.350412 
L 532.812039 204.015157 
L 538.528354 213.998005 
L 544.24467 213.374077 
L 549.960985 211.666968 
L 555.677301 217.266761 
L 561.393616 241.288632 
L 567.109932 238.832384 
L 572.826247 238.608586 
L 578.542562 233.311274 
L 584.258878 232.888028 
L 589.975193 243.625003 
L 595.691509 241.470495 
L 601.407824 243.509869 
L 607.12414 219.851726 
L 612.840455 214.392158 
L 618.556771 220.305348 
L 624.273086 224.080923 
L 629.989402 193.706071 
L 635.705717 187.049867 
L 641.422033 196.185681 
L 647.138348 199.670332 
L 652.854664 181.80496 
L 658.570979 163.344999 
L 664.287295 140.85924 
L 670.00361 137.663783 
L 675.719925 207.871439 
L 681.436241 193.194214 
L 687.152556 169.453487 
L 692.868872 158.514299 
L 698.585187 180.392775 
L 704.301503 182.128334 
L 710.017818 187.96615 
L 715.734134 161.564641 
L 721.450449 177.763159 
L 727.166765 159.092785 
L 732.88308 161.932764 
L 738.599396 159.513512 
L 744.315711 134.006059 
L 750.032027 139.26534 
L 755.748342 82.097146 
L 761.464658 80.414141 
L 767.180973 61.09213 
L 772.897289 203.007646 
L 778.613604 198.484662 
L 784.329919 196.117963 
L 790.046235 199.326115 
L 795.76255 191.857995 
L 801.478866 195.644683 
L 807.195181 184.495032 
L 812.911497 186.546161 
L 818.627812 171.136493 
L 824.344128 135.110528 
L 830.060443 157.146863 
L 835.776759 148.416465 
L 841.493074 131.376444 
L 847.20939 134.321678 
L 852.925705 147.732722 
L 858.642021 136.004585 
L 864.358336 140.317205 
L 870.074652 121.699386 
L 875.790967 101.030486 
L 881.507283 111.391238 
L 887.223598 94.982356 
L 892.939913 60.586744 
L 898.656229 73.892681 
L 904.372544 51.225206 
L 910.08886 58.873165 
L 915.805175 46.25102 
L 921.521491 48.113123 
L 927.237806 50.383753 
L 932.954122 57.851922 
L 938.670437 53.802318 
L 944.386753 35.55267 
L 950.103068 61.586007 
L 950.103068 61.586007 
" clip-path="url(#pf1ad17078d)" style="fill: none; stroke: #ff7f0e; stroke-opacity: 0.8; stroke-linecap: square"/>
   </g>
   <g id="patch_3">
    <path d="M 43.78125 313.478125 
L 43.78125 22.318125 
" style="fill: none; stroke: #000000; stroke-width: 0.8; stroke-linejoin: miter; stroke-linecap: square"/>
   </g>
   <g id="patch_4">
    <path d="M 993.26125 313.478125 
L 993.26125 22.318125 
" style="fill: none; stroke: #000000; stroke-width: 0.8; stroke-linejoin: miter; stroke-linecap: square"/>
   </g>
   <g id="patch_5">
    <path d="M 43.78125 313.478125 
L 993.26125 313.478125 
" style="fill: none; stroke: #000000; stroke-width: 0.8; stroke-linejoin: miter; stroke-linecap: square"/>
   </g>
   <g id="patch_6">
    <path d="M 43.78125 22.318125 
L 993.26125 22.318125 
" style="fill: none; stroke: #000000; stroke-width: 0.8; stroke-linejoin: miter; stroke-linecap: square"/>
   </g>
   <g id="text_17">
    <!-- MDHGNN - True vs Predicted Copper Price -->
    <g transform="translate(393.123125 16.318125) scale(0.12 -0.12)">
     <defs>
      <path id="DejaVuSans-4d" d="M 628 4666 
L 1569 4666 
L 2759 1491 
L 3956 4666 
L 4897 4666 
L 4897 0 
L 4281 0 
L 4281 4097 
L 3078 897 
L 2444 897 
L 1241 4097 
L 1241 0 
L 628 0 
L 628 4666 
z
" transform="scale(0.015625)"/>
      <path id="DejaVuSans-44" d="M 1259 4147 
L 1259 519 
L 2022 519 
Q 2988 519 3436 956 
Q 3884 1394 3884 2338 
Q 3884 3275 3436 3711 
Q 2988 4147 2022 4147 
L 1259 4147 
z
M 628 4666 
L 1925 4666 
Q 3281 4666 3915 4102 
Q 4550 3538 4550 2338 
Q 4550 1131 3912 565 
Q 3275 0 1925 0 
L 628 0 
L 628 4666 
z
" transform="scale(0.015625)"/>
      <path id="DejaVuSans-48" d="M 628 4666 
L 1259 4666 
L 1259 2753 
L 3553 2753 
L 3553 4666 
L 4184 4666 
L 4184 0 
L 3553 0 
L 3553 2222 
L 1259 2222 
L 1259 0 
L 628 0 
L 628 4666 
z
" transform="scale(0.015625)"/>
      <path id="DejaVuSans-47" d="M 3809 666 
L 3809 1919 
L 2778 1919 
L 2778 2438 
L 4434 2438 
L 4434 434 
Q 4069 175 3628 42 
Q 3188 -91 2688 -91 
Q 1594 -91 976 548 
Q 359 1188 359 2328 
Q 359 3472 976 4111 
Q 1594 4750 2688 4750 
Q 3144 4750 3555 4637 
Q 3966 4525 4313 4306 
L 4313 3634 
Q 3963 3931 3569 4081 
Q 3175 4231 2741 4231 
Q 1884 4231 1454 3753 
Q 1025 3275 1025 2328 
Q 1025 1384 1454 906 
Q 1884 428 2741 428 
Q 3075 428 3337 486 
Q 3600 544 3809 666 
z
" transform="scale(0.015625)"/>
      <path id="DejaVuSans-4e" d="M 628 4666 
L 1478 4666 
L 3547 763 
L 3547 4666 
L 4159 4666 
L 4159 0 
L 3309 0 
L 1241 3903 
L 1241 0 
L 628 0 
L 628 4666 
z
" transform="scale(0.015625)"/>
      <path id="DejaVuSans-2d" d="M 313 2009 
L 1997 2009 
L 1997 1497 
L 313 1497 
L 313 2009 
z
" transform="scale(0.015625)"/>
      <path id="DejaVuSans-75" d="M 544 1381 
L 544 3500 
L 1119 3500 
L 1119 1403 
Q 1119 906 1312 657 
Q 1506 409 1894 409 
Q 2359 409 2629 706 
Q 2900 1003 2900 1516 
L 2900 3500 
L 3475 3500 
L 3475 0 
L 2900 0 
L 2900 538 
Q 2691 219 2414 64 
Q 2138 -91 1772 -91 
Q 1169 -91 856 284 
Q 544 659 544 1381 
z
M 1991 3584 
L 1991 3584 
z
" transform="scale(0.015625)"/>
      <path id="DejaVuSans-76" d="M 191 3500 
L 800 3500 
L 1894 563 
L 2988 3500 
L 3597 3500 
L 2284 0 
L 1503 0 
L 191 3500 
z
" transform="scale(0.015625)"/>
      <path id="DejaVuSans-73" d="M 2834 3397 
L 2834 2853 
Q 2591 2978 2328 3040 
Q 2066 3103 1784 3103 
Q 1356 3103 1142 2972 
Q 928 2841 928 2578 
Q 928 2378 1081 2264 
Q 1234 2150 1697 2047 
L 1894 2003 
Q 2506 1872 2764 1633 
Q 3022 1394 3022 966 
Q 3022 478 2636 193 
Q 2250 -91 1575 -91 
Q 1294 -91 989 -36 
Q 684 19 347 128 
L 347 722 
Q 666 556 975 473 
Q 1284 391 1588 391 
Q 1994 391 2212 530 
Q 2431 669 2431 922 
Q 2431 1156 2273 1281 
Q 2116 1406 1581 1522 
L 1381 1569 
Q 847 1681 609 1914 
Q 372 2147 372 2553 
Q 372 3047 722 3315 
Q 1072 3584 1716 3584 
Q 2034 3584 2315 3537 
Q 2597 3491 2834 3397 
z
" transform="scale(0.015625)"/>
      <path id="DejaVuSans-64" d="M 2906 2969 
L 2906 4863 
L 3481 4863 
L 3481 0 
L 2906 0 
L 2906 525 
Q 2725 213 2448 61 
Q 2172 -91 1784 -91 
Q 1150 -91 751 415 
Q 353 922 353 1747 
Q 353 2572 751 3078 
Q 1150 3584 1784 3584 
Q 2172 3584 2448 3432 
Q 2725 3281 2906 2969 
z
M 947 1747 
Q 947 1113 1208 752 
Q 1469 391 1925 391 
Q 2381 391 2643 752 
Q 2906 1113 2906 1747 
Q 2906 2381 2643 2742 
Q 2381 3103 1925 3103 
Q 1469 3103 1208 2742 
Q 947 2381 947 1747 
z
" transform="scale(0.015625)"/>
     </defs>
     <use xlink:href="#DejaVuSans-4d"/>
     <use xlink:href="#DejaVuSans-44" transform="translate(86.279297 0)"/>
     <use xlink:href="#DejaVuSans-48" transform="translate(163.28125 0)"/>
     <use xlink:href="#DejaVuSans-47" transform="translate(238.476562 0)"/>
     <use xlink:href="#DejaVuSans-4e" transform="translate(315.966797 0)"/>
     <use xlink:href="#DejaVuSans-4e" transform="translate(390.771484 0)"/>
     <use xlink:href="#DejaVuSans-20" transform="translate(465.576172 0)"/>
     <use xlink:href="#DejaVuSans-2d" transform="translate(497.363281 0)"/>
     <use xlink:href="#DejaVuSans-20" transform="translate(533.447266 0)"/>
     <use xlink:href="#DejaVuSans-54" transform="translate(565.234375 0)"/>
     <use xlink:href="#DejaVuSans-72" transform="translate(611.568359 0)"/>
     <use xlink:href="#DejaVuSans-75" transform="translate(652.681641 0)"/>
     <use xlink:href="#DejaVuSans-65" transform="translate(716.060547 0)"/>
     <use xlink:href="#DejaVuSans-20" transform="translate(777.583984 0)"/>
     <use xlink:href="#DejaVuSans-76" transform="translate(809.371094 0)"/>
     <use xlink:href="#DejaVuSans-73" transform="translate(868.550781 0)"/>
     <use xlink:href="#DejaVuSans-20" transform="translate(920.650391 0)"/>
     <use xlink:href="#DejaVuSans-50" transform="translate(952.4375 0)"/>
     <use xlink:href="#DejaVuSans-72" transform="translate(1010.990234 0)"/>
     <use xlink:href="#DejaVuSans-65" transform="translate(1049.853516 0)"/>
     <use xlink:href="#DejaVuSans-64" transform="translate(1111.376953 0)"/>
     <use xlink:href="#DejaVuSans-69" transform="translate(1174.853516 0)"/>
     <use xlink:href="#DejaVuSans-63" transform="translate(1202.636719 0)"/>
     <use xlink:href="#DejaVuSans-74" transform="translate(1257.617188 0)"/>
     <use xlink:href="#DejaVuSans-65" transform="translate(1296.826172 0)"/>
     <use xlink:href="#DejaVuSans-64" transform="translate(1358.349609 0)"/>
     <use xlink:href="#DejaVuSans-20" transform="translate(1421.826172 0)"/>
     <use xlink:href="#DejaVuSans-43" transform="translate(1453.613281 0)"/>
     <use xlink:href="#DejaVuSans-6f" transform="translate(1523.4375 0)"/>
     <use xlink:href="#DejaVuSans-70" transform="translate(1584.619141 0)"/>
     <use xlink:href="#DejaVuSans-70" transform="translate(1648.095703 0)"/>
     <use xlink:href="#DejaVuSans-65" transform="translate(1711.572266 0)"/>
     <use xlink:href="#DejaVuSans-72" transform="translate(1773.095703 0)"/>
     <use xlink:href="#DejaVuSans-20" transform="translate(1814.208984 0)"/>
     <use xlink:href="#DejaVuSans-50" transform="translate(1845.996094 0)"/>
     <use xlink:href="#DejaVuSans-72" transform="translate(1904.548828 0)"/>
     <use xlink:href="#DejaVuSans-69" transform="translate(1945.662109 0)"/>
     <use xlink:href="#DejaVuSans-63" transform="translate(1973.445312 0)"/>
     <use xlink:href="#DejaVuSans-65" transform="translate(2028.425781 0)"/>
    </g>
   </g>
   <g id="legend_1">
    <g id="patch_7">
     <path d="M 50.78125 59.674375 
L 179.459375 59.674375 
Q 181.459375 59.674375 181.459375 57.674375 
L 181.459375 29.318125 
Q 181.459375 27.318125 179.459375 27.318125 
L 50.78125 27.318125 
Q 48.78125 27.318125 48.78125 29.318125 
L 48.78125 57.674375 
Q 48.78125 59.674375 50.78125 59.674375 
z
" style="fill: #ffffff; opacity: 0.8; stroke: #cccccc; stroke-linejoin: miter"/>
    </g>
    <g id="line2d_31">
     <path d="M 52.78125 35.416562 
L 62.78125 35.416562 
L 72.78125 35.416562 
" style="fill: none; stroke: #1f77b4; stroke-opacity: 0.8; stroke-linecap: square"/>
    </g>
    <g id="text_18">
     <!-- True -->
     <g transform="translate(80.78125 38.916562) scale(0.1 -0.1)">
      <use xlink:href="#DejaVuSans-54"/>
      <use xlink:href="#DejaVuSans-72" transform="translate(46.333984 0)"/>
      <use xlink:href="#DejaVuSans-75" transform="translate(87.447266 0)"/>
      <use xlink:href="#DejaVuSans-65" transform="translate(150.826172 0)"/>
     </g>
    </g>
    <g id="line2d_32">
     <path d="M 52.78125 50.094688 
L 62.78125 50.094688 
L 72.78125 50.094688 
" style="fill: none; stroke: #ff7f0e; stroke-opacity: 0.8; stroke-linecap: square"/>
    </g>
    <g id="text_19">
     <!-- MDHGNN Predicted -->
     <g transform="translate(80.78125 53.594688) scale(0.1 -0.1)">
      <use xlink:href="#DejaVuSans-4d"/>
      <use xlink:href="#DejaVuSans-44" transform="translate(86.279297 0)"/>
      <use xlink:href="#DejaVuSans-48" transform="translate(163.28125 0)"/>
      <use xlink:href="#DejaVuSans-47" transform="translate(238.476562 0)"/>
      <use xlink:href="#DejaVuSans-4e" transform="translate(315.966797 0)"/>
      <use xlink:href="#DejaVuSans-4e" transform="translate(390.771484 0)"/>
      <use xlink:href="#DejaVuSans-20" transform="translate(465.576172 0)"/>
      <use xlink:href="#DejaVuSans-50" transform="translate(497.363281 0)"/>
      <use xlink:href="#DejaVuSans-72" transform="translate(555.916016 0)"/>
      <use xlink:href="#DejaVuSans-65" transform="translate(594.779297 0)"/>
      <use xlink:href="#DejaVuSans-64" transform="translate(656.302734 0)"/>
      <use xlink:href="#DejaVuSans-69" transform="translate(719.779297 0)"/>
      <use xlink:href="#DejaVuSans-63" transform="translate(747.5625 0)"/>
      <use xlink:href="#DejaVuSans-74" transform="translate(802.542969 0)"/>
      <use xlink:href="#DejaVuSans-65" transform="translate(841.751953 0)"/>
      <use xlink:href="#DejaVuSans-64" transform="translate(903.275391 0)"/>
     </g>
    </g>
   </g>
  </g>
 </g>
 <defs>
  <clipPath id="pf1ad17078d">
   <rect x="43.78125" y="22.318125" width="949.48" height="291.16"/>
  </clipPath>
 </defs>
</svg>
