<?xml version="1.0" encoding="utf-8" standalone="no"?>
<!DOCTYPE svg PUBLIC "-//W3C//DTD SVG 1.1//EN"
  "http://www.w3.org/Graphics/SVG/1.1/DTD/svg11.dtd">
<svg xmlns:xlink="http://www.w3.org/1999/xlink" width="1000.46125pt" height="385.695997pt" viewBox="0 0 1000.46125 385.695997" xmlns="http://www.w3.org/2000/svg" version="1.1">
 <metadata>
  <rdf:RDF xmlns:dc="http://purl.org/dc/elements/1.1/" xmlns:cc="http://creativecommons.org/ns#" xmlns:rdf="http://www.w3.org/1999/02/22-rdf-syntax-ns#">
   <cc:Work>
    <dc:type rdf:resource="http://purl.org/dc/dcmitype/StillImage"/>
    <dc:date>2026-07-04T16:26:04.299991</dc:date>
    <dc:format>image/svg+xml</dc:format>
    <dc:creator>
     <cc:Agent>
      <dc:title>Matplotlib v3.9.4, https://matplotlib.org/</dc:title>
     </cc:Agent>
    </dc:creator>
   </cc:Work>
  </rdf:RDF>
 </metadata>
 <defs>
  <style type="text/css">*{stroke-linejoin: round; stroke-linecap: butt}</style>
 </defs>
 <g id="figure_1">
  <g id="patch_1">
   <path d="M 0 385.695997 
L 1000.46125 385.695997 
L 1000.46125 0 
L 0 0 
z
" style="fill: #ffffff"/>
  </g>
  <g id="axes_1">
   <g id="patch_2">
    <path d="M 43.78125 328.544964 
L 993.26125 328.544964 
L 993.26125 35.7555 
L 43.78125 35.7555 
z
" style="fill: #ffffff"/>
   </g>
   <g id="matplotlib.axis_1">
    <g id="xtick_1">
     <g id="line2d_1">
      <path d="M 225.662159 328.544964 
L 225.662159 35.7555 
" clip-path="url(#pc08ce6909d)" style="fill: none; stroke: #b0b0b0; stroke-opacity: 0.25; stroke-width: 0.8; stroke-linecap: square"/>
     </g>
     <g id="line2d_2">
      <defs>
       <path id="m71138d8184" d="M 0 0 
L 0 3.5 
" style="stroke: #000000; stroke-width: 0.8"/>
      </defs>
      <g>
       <use xlink:href="#m71138d8184" x="225.662159" y="328.544964" style="stroke: #000000; stroke-width: 0.8"/>
      </g>
     </g>
     <g id="text_1">
      <!-- 2015-06 -->
      <g transform="translate(188.437338 363.01681) rotate(-30) scale(0.1 -0.1)">
       <defs>
        <path id="DejaVuSans-32" d="M 1228 531 
L 3431 531 
L 3431 0 
L 469 0 
L 469 531 
Q 828 903 1448 1529 
Q 2069 2156 2228 2338 
Q 2531 2678 2651 2914 
Q 2772 3150 2772 3378 
Q 2772 3750 2511 3984 
Q 2250 4219 1831 4219 
Q 1534 4219 1204 4116 
Q 875 4013 500 3803 
L 500 4441 
Q 881 4594 1212 4672 
Q 1544 4750 1819 4750 
Q 2544 4750 2975 4387 
Q 3406 4025 3406 3419 
Q 3406 3131 3298 2873 
Q 3191 2616 2906 2266 
Q 2828 2175 2409 1742 
Q 1991 1309 1228 531 
z
" transform="scale(0.015625)"/>
        <path id="DejaVuSans-30" d="M 2034 4250 
Q 1547 4250 1301 3770 
Q 1056 3291 1056 2328 
Q 1056 1369 1301 889 
Q 1547 409 2034 409 
Q 2525 409 2770 889 
Q 3016 1369 3016 2328 
Q 3016 3291 2770 3770 
Q 2525 4250 2034 4250 
z
M 2034 4750 
Q 2819 4750 3233 4129 
Q 3647 3509 3647 2328 
Q 3647 1150 3233 529 
Q 2819 -91 2034 -91 
Q 1250 -91 836 529 
Q 422 1150 422 2328 
Q 422 3509 836 4129 
Q 1250 4750 2034 4750 
z
" transform="scale(0.015625)"/>
        <path id="DejaVuSans-31" d="M 794 531 
L 1825 531 
L 1825 4091 
L 703 3866 
L 703 4441 
L 1819 4666 
L 2450 4666 
L 2450 531 
L 3481 531 
L 3481 0 
L 794 0 
L 794 531 
z
" transform="scale(0.015625)"/>
        <path id="DejaVuSans-35" d="M 691 4666 
L 3169 4666 
L 3169 4134 
L 1269 4134 
L 1269 2991 
Q 1406 3038 1543 3061 
Q 1681 3084 1819 3084 
Q 2600 3084 3056 2656 
Q 3513 2228 3513 1497 
Q 3513 744 3044 326 
Q 2575 -91 1722 -91 
Q 1428 -91 1123 -41 
Q 819 9 494 109 
L 494 744 
Q 775 591 1075 516 
Q 1375 441 1709 441 
Q 2250 441 2565 725 
Q 2881 1009 2881 1497 
Q 2881 1984 2565 2268 
Q 2250 2553 1709 2553 
Q 1456 2553 1204 2497 
Q 953 2441 691 2322 
L 691 4666 
z
" transform="scale(0.015625)"/>
        <path id="DejaVuSans-2d" d="M 313 2009 
L 1997 2009 
L 1997 1497 
L 313 1497 
L 313 2009 
z
" transform="scale(0.015625)"/>
        <path id="DejaVuSans-36" d="M 2113 2584 
Q 1688 2584 1439 2293 
Q 1191 2003 1191 1497 
Q 1191 994 1439 701 
Q 1688 409 2113 409 
Q 2538 409 2786 701 
Q 3034 994 3034 1497 
Q 3034 2003 2786 2293 
Q 2538 2584 2113 2584 
z
M 3366 4563 
L 3366 3988 
Q 3128 4100 2886 4159 
Q 2644 4219 2406 4219 
Q 1781 4219 1451 3797 
Q 1122 3375 1075 2522 
Q 1259 2794 1537 2939 
Q 1816 3084 2150 3084 
Q 2853 3084 3261 2657 
Q 3669 2231 3669 1497 
Q 3669 778 3244 343 
Q 2819 -91 2113 -91 
Q 1303 -91 875 529 
Q 447 1150 447 2328 
Q 447 3434 972 4092 
Q 1497 4750 2381 4750 
Q 2619 4750 2861 4703 
Q 3103 4656 3366 4563 
z
" transform="scale(0.015625)"/>
       </defs>
       <use xlink:href="#DejaVuSans-32"/>
       <use xlink:href="#DejaVuSans-30" x="63.623047"/>
       <use xlink:href="#DejaVuSans-31" x="127.246094"/>
       <use xlink:href="#DejaVuSans-35" x="190.869141"/>
       <use xlink:href="#DejaVuSans-2d" x="254.492188"/>
       <use xlink:href="#DejaVuSans-30" x="290.576172"/>
       <use xlink:href="#DejaVuSans-36" x="354.199219"/>
      </g>
     </g>
    </g>
    <g id="xtick_2">
     <g id="line2d_3">
      <path d="M 789.80125 328.544964 
L 789.80125 35.7555 
" clip-path="url(#pc08ce6909d)" style="fill: none; stroke: #b0b0b0; stroke-opacity: 0.25; stroke-width: 0.8; stroke-linecap: square"/>
     </g>
     <g id="line2d_4">
      <g>
       <use xlink:href="#m71138d8184" x="789.80125" y="328.544964" style="stroke: #000000; stroke-width: 0.8"/>
      </g>
     </g>
     <g id="text_2">
      <!-- 2015-12 -->
      <g transform="translate(752.576429 363.01681) rotate(-30) scale(0.1 -0.1)">
       <use xlink:href="#DejaVuSans-32"/>
       <use xlink:href="#DejaVuSans-30" x="63.623047"/>
       <use xlink:href="#DejaVuSans-31" x="127.246094"/>
       <use xlink:href="#DejaVuSans-35" x="190.869141"/>
       <use xlink:href="#DejaVuSans-2d" x="254.492188"/>
       <use xlink:href="#DejaVuSans-31" x="290.576172"/>
       <use xlink:href="#DejaVuSans-32" x="354.199219"/>
      </g>
     </g>
    </g>
    <g id="text_3">
     <!-- Date -->
     <g transform="translate(506.570469 376.41631) scale(0.1 -0.1)">
      <defs>
       <path id="DejaVuSans-44" d="M 1259 4147 
L 1259 519 
L 2022 519 
Q 2988 519 3436 956 
Q 3884 1394 3884 2338 
Q 3884 3275 3436 3711 
Q 2988 4147 2022 4147 
L 1259 4147 
z
M 628 4666 
L 1925 4666 
Q 3281 4666 3915 4102 
Q 4550 3538 4550 2338 
Q 4550 1131 3912 565 
Q 3275 0 1925 0 
L 628 0 
L 628 4666 
z
" transform="scale(0.015625)"/>
       <path id="DejaVuSans-61" d="M 2194 1759 
Q 1497 1759 1228 1600 
Q 959 1441 959 1056 
Q 959 750 1161 570 
Q 1363 391 1709 391 
Q 2188 391 2477 730 
Q 2766 1069 2766 1631 
L 2766 1759 
L 2194 1759 
z
M 3341 1997 
L 3341 0 
L 2766 0 
L 2766 531 
Q 2569 213 2275 61 
Q 1981 -91 1556 -91 
Q 1019 -91 701 211 
Q 384 513 384 1019 
Q 384 1609 779 1909 
Q 1175 2209 1959 2209 
L 2766 2209 
L 2766 2266 
Q 2766 2663 2505 2880 
Q 2244 3097 1772 3097 
Q 1472 3097 1187 3025 
Q 903 2953 641 2809 
L 641 3341 
Q 956 3463 1253 3523 
Q 1550 3584 1831 3584 
Q 2591 3584 2966 3190 
Q 3341 2797 3341 1997 
z
" transform="scale(0.015625)"/>
       <path id="DejaVuSans-74" d="M 1172 4494 
L 1172 3500 
L 2356 3500 
L 2356 3053 
L 1172 3053 
L 1172 1153 
Q 1172 725 1289 603 
Q 1406 481 1766 481 
L 2356 481 
L 2356 0 
L 1766 0 
Q 1100 0 847 248 
Q 594 497 594 1153 
L 594 3053 
L 172 3053 
L 172 3500 
L 594 3500 
L 594 4494 
L 1172 4494 
z
" transform="scale(0.015625)"/>
       <path id="DejaVuSans-65" d="M 3597 1894 
L 3597 1613 
L 953 1613 
Q 991 1019 1311 708 
Q 1631 397 2203 397 
Q 2534 397 2845 478 
Q 3156 559 3463 722 
L 3463 178 
Q 3153 47 2828 -22 
Q 2503 -91 2169 -91 
Q 1331 -91 842 396 
Q 353 884 353 1716 
Q 353 2575 817 3079 
Q 1281 3584 2069 3584 
Q 2775 3584 3186 3129 
Q 3597 2675 3597 1894 
z
M 3022 2063 
Q 3016 2534 2758 2815 
Q 2500 3097 2075 3097 
Q 1594 3097 1305 2825 
Q 1016 2553 972 2059 
L 3022 2063 
z
" transform="scale(0.015625)"/>
      </defs>
      <use xlink:href="#DejaVuSans-44"/>
      <use xlink:href="#DejaVuSans-61" x="77.001953"/>
      <use xlink:href="#DejaVuSans-74" x="138.28125"/>
      <use xlink:href="#DejaVuSans-65" x="177.490234"/>
     </g>
    </g>
   </g>
   <g id="matplotlib.axis_2">
    <g id="ytick_1">
     <g id="line2d_5">
      <path d="M 43.78125 301.210534 
L 993.26125 301.210534 
" clip-path="url(#pc08ce6909d)" style="fill: none; stroke: #b0b0b0; stroke-opacity: 0.25; stroke-width: 0.8; stroke-linecap: square"/>
     </g>
     <g id="line2d_6">
      <defs>
       <path id="mf4d32c4f3b" d="M 0 0 
L -3.5 0 
" style="stroke: #000000; stroke-width: 0.8"/>
      </defs>
      <g>
       <use xlink:href="#mf4d32c4f3b" x="43.78125" y="301.210534" style="stroke: #000000; stroke-width: 0.8"/>
      </g>
     </g>
     <g id="text_4">
      <!-- 2.0 -->
      <g transform="translate(20.878125 305.009753) scale(0.1 -0.1)">
       <defs>
        <path id="DejaVuSans-2e" d="M 684 794 
L 1344 794 
L 1344 0 
L 684 0 
L 684 794 
z
" transform="scale(0.015625)"/>
       </defs>
       <use xlink:href="#DejaVuSans-32"/>
       <use xlink:href="#DejaVuSans-2e" x="63.623047"/>
       <use xlink:href="#DejaVuSans-30" x="95.410156"/>
      </g>
     </g>
    </g>
    <g id="ytick_2">
     <g id="line2d_7">
      <path d="M 43.78125 251.561584 
L 993.26125 251.561584 
" clip-path="url(#pc08ce6909d)" style="fill: none; stroke: #b0b0b0; stroke-opacity: 0.25; stroke-width: 0.8; stroke-linecap: square"/>
     </g>
     <g id="line2d_8">
      <g>
       <use xlink:href="#mf4d32c4f3b" x="43.78125" y="251.561584" style="stroke: #000000; stroke-width: 0.8"/>
      </g>
     </g>
     <g id="text_5">
      <!-- 2.2 -->
      <g transform="translate(20.878125 255.360802) scale(0.1 -0.1)">
       <use xlink:href="#DejaVuSans-32"/>
       <use xlink:href="#DejaVuSans-2e" x="63.623047"/>
       <use xlink:href="#DejaVuSans-32" x="95.410156"/>
      </g>
     </g>
    </g>
    <g id="ytick_3">
     <g id="line2d_9">
      <path d="M 43.78125 201.912633 
L 993.26125 201.912633 
" clip-path="url(#pc08ce6909d)" style="fill: none; stroke: #b0b0b0; stroke-opacity: 0.25; stroke-width: 0.8; stroke-linecap: square"/>
     </g>
     <g id="line2d_10">
      <g>
       <use xlink:href="#mf4d32c4f3b" x="43.78125" y="201.912633" style="stroke: #000000; stroke-width: 0.8"/>
      </g>
     </g>
     <g id="text_6">
      <!-- 2.4 -->
      <g transform="translate(20.878125 205.711852) scale(0.1 -0.1)">
       <defs>
        <path id="DejaVuSans-34" d="M 2419 4116 
L 825 1625 
L 2419 1625 
L 2419 4116 
z
M 2253 4666 
L 3047 4666 
L 3047 1625 
L 3713 1625 
L 3713 1100 
L 3047 1100 
L 3047 0 
L 2419 0 
L 2419 1100 
L 313 1100 
L 313 1709 
L 2253 4666 
z
" transform="scale(0.015625)"/>
       </defs>
       <use xlink:href="#DejaVuSans-32"/>
       <use xlink:href="#DejaVuSans-2e" x="63.623047"/>
       <use xlink:href="#DejaVuSans-34" x="95.410156"/>
      </g>
     </g>
    </g>
    <g id="ytick_4">
     <g id="line2d_11">
      <path d="M 43.78125 152.263683 
L 993.26125 152.263683 
" clip-path="url(#pc08ce6909d)" style="fill: none; stroke: #b0b0b0; stroke-opacity: 0.25; stroke-width: 0.8; stroke-linecap: square"/>
     </g>
     <g id="line2d_12">
      <g>
       <use xlink:href="#mf4d32c4f3b" x="43.78125" y="152.263683" style="stroke: #000000; stroke-width: 0.8"/>
      </g>
     </g>
     <g id="text_7">
      <!-- 2.6 -->
      <g transform="translate(20.878125 156.062902) scale(0.1 -0.1)">
       <use xlink:href="#DejaVuSans-32"/>
       <use xlink:href="#DejaVuSans-2e" x="63.623047"/>
       <use xlink:href="#DejaVuSans-36" x="95.410156"/>
      </g>
     </g>
    </g>
    <g id="ytick_5">
     <g id="line2d_13">
      <path d="M 43.78125 102.614732 
L 993.26125 102.614732 
" clip-path="url(#pc08ce6909d)" style="fill: none; stroke: #b0b0b0; stroke-opacity: 0.25; stroke-width: 0.8; stroke-linecap: square"/>
     </g>
     <g id="line2d_14">
      <g>
       <use xlink:href="#mf4d32c4f3b" x="43.78125" y="102.614732" style="stroke: #000000; stroke-width: 0.8"/>
      </g>
     </g>
     <g id="text_8">
      <!-- 2.8 -->
      <g transform="translate(20.878125 106.413951) scale(0.1 -0.1)">
       <defs>
        <path id="DejaVuSans-38" d="M 2034 2216 
Q 1584 2216 1326 1975 
Q 1069 1734 1069 1313 
Q 1069 891 1326 650 
Q 1584 409 2034 409 
Q 2484 409 2743 651 
Q 3003 894 3003 1313 
Q 3003 1734 2745 1975 
Q 2488 2216 2034 2216 
z
M 1403 2484 
Q 997 2584 770 2862 
Q 544 3141 544 3541 
Q 544 4100 942 4425 
Q 1341 4750 2034 4750 
Q 2731 4750 3128 4425 
Q 3525 4100 3525 3541 
Q 3525 3141 3298 2862 
Q 3072 2584 2669 2484 
Q 3125 2378 3379 2068 
Q 3634 1759 3634 1313 
Q 3634 634 3220 271 
Q 2806 -91 2034 -91 
Q 1263 -91 848 271 
Q 434 634 434 1313 
Q 434 1759 690 2068 
Q 947 2378 1403 2484 
z
M 1172 3481 
Q 1172 3119 1398 2916 
Q 1625 2713 2034 2713 
Q 2441 2713 2670 2916 
Q 2900 3119 2900 3481 
Q 2900 3844 2670 4047 
Q 2441 4250 2034 4250 
Q 1625 4250 1398 4047 
Q 1172 3844 1172 3481 
z
" transform="scale(0.015625)"/>
       </defs>
       <use xlink:href="#DejaVuSans-32"/>
       <use xlink:href="#DejaVuSans-2e" x="63.623047"/>
       <use xlink:href="#DejaVuSans-38" x="95.410156"/>
      </g>
     </g>
    </g>
    <g id="ytick_6">
     <g id="line2d_15">
      <path d="M 43.78125 52.965782 
L 993.26125 52.965782 
" clip-path="url(#pc08ce6909d)" style="fill: none; stroke: #b0b0b0; stroke-opacity: 0.25; stroke-width: 0.8; stroke-linecap: square"/>
     </g>
     <g id="line2d_16">
      <g>
       <use xlink:href="#mf4d32c4f3b" x="43.78125" y="52.965782" style="stroke: #000000; stroke-width: 0.8"/>
      </g>
     </g>
     <g id="text_9">
      <!-- 3.0 -->
      <g transform="translate(20.878125 56.765001) scale(0.1 -0.1)">
       <defs>
        <path id="DejaVuSans-33" d="M 2597 2516 
Q 3050 2419 3304 2112 
Q 3559 1806 3559 1356 
Q 3559 666 3084 287 
Q 2609 -91 1734 -91 
Q 1441 -91 1130 -33 
Q 819 25 488 141 
L 488 750 
Q 750 597 1062 519 
Q 1375 441 1716 441 
Q 2309 441 2620 675 
Q 2931 909 2931 1356 
Q 2931 1769 2642 2001 
Q 2353 2234 1838 2234 
L 1294 2234 
L 1294 2753 
L 1863 2753 
Q 2328 2753 2575 2939 
Q 2822 3125 2822 3475 
Q 2822 3834 2567 4026 
Q 2313 4219 1838 4219 
Q 1578 4219 1281 4162 
Q 984 4106 628 3988 
L 628 4550 
Q 988 4650 1302 4700 
Q 1616 4750 1894 4750 
Q 2613 4750 3031 4423 
Q 3450 4097 3450 3541 
Q 3450 3153 3228 2886 
Q 3006 2619 2597 2516 
z
" transform="scale(0.015625)"/>
       </defs>
       <use xlink:href="#DejaVuSans-33"/>
       <use xlink:href="#DejaVuSans-2e" x="63.623047"/>
       <use xlink:href="#DejaVuSans-30" x="95.410156"/>
      </g>
     </g>
    </g>
    <g id="text_10">
     <!-- Copper price (USD/lb) -->
     <g transform="translate(14.798438 236.636951) rotate(-90) scale(0.1 -0.1)">
      <defs>
       <path id="DejaVuSans-43" d="M 4122 4306 
L 4122 3641 
Q 3803 3938 3442 4084 
Q 3081 4231 2675 4231 
Q 1875 4231 1450 3742 
Q 1025 3253 1025 2328 
Q 1025 1406 1450 917 
Q 1875 428 2675 428 
Q 3081 428 3442 575 
Q 3803 722 4122 1019 
L 4122 359 
Q 3791 134 3420 21 
Q 3050 -91 2638 -91 
Q 1578 -91 968 557 
Q 359 1206 359 2328 
Q 359 3453 968 4101 
Q 1578 4750 2638 4750 
Q 3056 4750 3426 4639 
Q 3797 4528 4122 4306 
z
" transform="scale(0.015625)"/>
       <path id="DejaVuSans-6f" d="M 1959 3097 
Q 1497 3097 1228 2736 
Q 959 2375 959 1747 
Q 959 1119 1226 758 
Q 1494 397 1959 397 
Q 2419 397 2687 759 
Q 2956 1122 2956 1747 
Q 2956 2369 2687 2733 
Q 2419 3097 1959 3097 
z
M 1959 3584 
Q 2709 3584 3137 3096 
Q 3566 2609 3566 1747 
Q 3566 888 3137 398 
Q 2709 -91 1959 -91 
Q 1206 -91 779 398 
Q 353 888 353 1747 
Q 353 2609 779 3096 
Q 1206 3584 1959 3584 
z
" transform="scale(0.015625)"/>
       <path id="DejaVuSans-70" d="M 1159 525 
L 1159 -1331 
L 581 -1331 
L 581 3500 
L 1159 3500 
L 1159 2969 
Q 1341 3281 1617 3432 
Q 1894 3584 2278 3584 
Q 2916 3584 3314 3078 
Q 3713 2572 3713 1747 
Q 3713 922 3314 415 
Q 2916 -91 2278 -91 
Q 1894 -91 1617 61 
Q 1341 213 1159 525 
z
M 3116 1747 
Q 3116 2381 2855 2742 
Q 2594 3103 2138 3103 
Q 1681 3103 1420 2742 
Q 1159 2381 1159 1747 
Q 1159 1113 1420 752 
Q 1681 391 2138 391 
Q 2594 391 2855 752 
Q 3116 1113 3116 1747 
z
" transform="scale(0.015625)"/>
       <path id="DejaVuSans-72" d="M 2631 2963 
Q 2534 3019 2420 3045 
Q 2306 3072 2169 3072 
Q 1681 3072 1420 2755 
Q 1159 2438 1159 1844 
L 1159 0 
L 581 0 
L 581 3500 
L 1159 3500 
L 1159 2956 
Q 1341 3275 1631 3429 
Q 1922 3584 2338 3584 
Q 2397 3584 2469 3576 
Q 2541 3569 2628 3553 
L 2631 2963 
z
" transform="scale(0.015625)"/>
       <path id="DejaVuSans-20" transform="scale(0.015625)"/>
       <path id="DejaVuSans-69" d="M 603 3500 
L 1178 3500 
L 1178 0 
L 603 0 
L 603 3500 
z
M 603 4863 
L 1178 4863 
L 1178 4134 
L 603 4134 
L 603 4863 
z
" transform="scale(0.015625)"/>
       <path id="DejaVuSans-63" d="M 3122 3366 
L 3122 2828 
Q 2878 2963 2633 3030 
Q 2388 3097 2138 3097 
Q 1578 3097 1268 2742 
Q 959 2388 959 1747 
Q 959 1106 1268 751 
Q 1578 397 2138 397 
Q 2388 397 2633 464 
Q 2878 531 3122 666 
L 3122 134 
Q 2881 22 2623 -34 
Q 2366 -91 2075 -91 
Q 1284 -91 818 406 
Q 353 903 353 1747 
Q 353 2603 823 3093 
Q 1294 3584 2113 3584 
Q 2378 3584 2631 3529 
Q 2884 3475 3122 3366 
z
" transform="scale(0.015625)"/>
       <path id="DejaVuSans-28" d="M 1984 4856 
Q 1566 4138 1362 3434 
Q 1159 2731 1159 2009 
Q 1159 1288 1364 580 
Q 1569 -128 1984 -844 
L 1484 -844 
Q 1016 -109 783 600 
Q 550 1309 550 2009 
Q 550 2706 781 3412 
Q 1013 4119 1484 4856 
L 1984 4856 
z
" transform="scale(0.015625)"/>
       <path id="DejaVuSans-55" d="M 556 4666 
L 1191 4666 
L 1191 1831 
Q 1191 1081 1462 751 
Q 1734 422 2344 422 
Q 2950 422 3222 751 
Q 3494 1081 3494 1831 
L 3494 4666 
L 4128 4666 
L 4128 1753 
Q 4128 841 3676 375 
Q 3225 -91 2344 -91 
Q 1459 -91 1007 375 
Q 556 841 556 1753 
L 556 4666 
z
" transform="scale(0.015625)"/>
       <path id="DejaVuSans-53" d="M 3425 4513 
L 3425 3897 
Q 3066 4069 2747 4153 
Q 2428 4238 2131 4238 
Q 1616 4238 1336 4038 
Q 1056 3838 1056 3469 
Q 1056 3159 1242 3001 
Q 1428 2844 1947 2747 
L 2328 2669 
Q 3034 2534 3370 2195 
Q 3706 1856 3706 1288 
Q 3706 609 3251 259 
Q 2797 -91 1919 -91 
Q 1588 -91 1214 -16 
Q 841 59 441 206 
L 441 856 
Q 825 641 1194 531 
Q 1563 422 1919 422 
Q 2459 422 2753 634 
Q 3047 847 3047 1241 
Q 3047 1584 2836 1778 
Q 2625 1972 2144 2069 
L 1759 2144 
Q 1053 2284 737 2584 
Q 422 2884 422 3419 
Q 422 4038 858 4394 
Q 1294 4750 2059 4750 
Q 2388 4750 2728 4690 
Q 3069 4631 3425 4513 
z
" transform="scale(0.015625)"/>
       <path id="DejaVuSans-2f" d="M 1625 4666 
L 2156 4666 
L 531 -594 
L 0 -594 
L 1625 4666 
z
" transform="scale(0.015625)"/>
       <path id="DejaVuSans-6c" d="M 603 4863 
L 1178 4863 
L 1178 0 
L 603 0 
L 603 4863 
z
" transform="scale(0.015625)"/>
       <path id="DejaVuSans-62" d="M 3116 1747 
Q 3116 2381 2855 2742 
Q 2594 3103 2138 3103 
Q 1681 3103 1420 2742 
Q 1159 2381 1159 1747 
Q 1159 1113 1420 752 
Q 1681 391 2138 391 
Q 2594 391 2855 752 
Q 3116 1113 3116 1747 
z
M 1159 2969 
Q 1341 3281 1617 3432 
Q 1894 3584 2278 3584 
Q 2916 3584 3314 3078 
Q 3713 2572 3713 1747 
Q 3713 922 3314 415 
Q 2916 -91 2278 -91 
Q 1894 -91 1617 61 
Q 1341 213 1159 525 
L 1159 0 
L 581 0 
L 581 4863 
L 1159 4863 
L 1159 2969 
z
" transform="scale(0.015625)"/>
       <path id="DejaVuSans-29" d="M 513 4856 
L 1013 4856 
Q 1481 4119 1714 3412 
Q 1947 2706 1947 2009 
Q 1947 1309 1714 600 
Q 1481 -109 1013 -844 
L 513 -844 
Q 928 -128 1133 580 
Q 1338 1288 1338 2009 
Q 1338 2731 1133 3434 
Q 928 4138 513 4856 
z
" transform="scale(0.015625)"/>
      </defs>
      <use xlink:href="#DejaVuSans-43"/>
      <use xlink:href="#DejaVuSans-6f" x="69.824219"/>
      <use xlink:href="#DejaVuSans-70" x="131.005859"/>
      <use xlink:href="#DejaVuSans-70" x="194.482422"/>
      <use xlink:href="#DejaVuSans-65" x="257.958984"/>
      <use xlink:href="#DejaVuSans-72" x="319.482422"/>
      <use xlink:href="#DejaVuSans-20" x="360.595703"/>
      <use xlink:href="#DejaVuSans-70" x="392.382812"/>
      <use xlink:href="#DejaVuSans-72" x="455.859375"/>
      <use xlink:href="#DejaVuSans-69" x="496.972656"/>
      <use xlink:href="#DejaVuSans-63" x="524.755859"/>
      <use xlink:href="#DejaVuSans-65" x="579.736328"/>
      <use xlink:href="#DejaVuSans-20" x="641.259766"/>
      <use xlink:href="#DejaVuSans-28" x="673.046875"/>
      <use xlink:href="#DejaVuSans-55" x="712.060547"/>
      <use xlink:href="#DejaVuSans-53" x="785.253906"/>
      <use xlink:href="#DejaVuSans-44" x="848.730469"/>
      <use xlink:href="#DejaVuSans-2f" x="925.732422"/>
      <use xlink:href="#DejaVuSans-6c" x="959.423828"/>
      <use xlink:href="#DejaVuSans-62" x="987.207031"/>
      <use xlink:href="#DejaVuSans-29" x="1050.683594"/>
     </g>
    </g>
   </g>
   <g id="line2d_17">
    <path d="M 86.939432 109.441454 
L 108.518523 114.530457 
L 130.097614 70.467012 
L 151.676705 72.70123 
L 173.255795 71.708264 
L 194.834886 99.884013 
L 216.413977 119.247121 
L 237.993068 128.432162 
L 259.572159 131.659347 
L 281.15125 158.46979 
L 302.730341 142.458039 
L 324.309432 144.568085 
L 345.888523 167.779003 
L 367.467614 178.081124 
L 389.046705 206.256933 
L 410.625795 209.608231 
L 432.204886 217.552079 
L 453.783977 213.952495 
L 475.363068 226.240607 
L 496.942159 215.317861 
L 518.52125 223.634049 
L 540.100341 188.383304 
L 561.679432 205.015681 
L 583.258523 230.336645 
L 604.837614 220.406864 
L 626.416705 198.437198 
L 647.995795 201.043757 
L 669.574886 214.324894 
L 691.153977 220.903377 
L 712.733068 239.149346 
L 734.312159 258.015941 
L 755.89125 286.812316 
L 777.470341 287.432943 
L 799.049432 281.97154 
L 820.628523 273.034725 
L 842.207614 273.903637 
L 863.786705 271.29702 
L 885.365795 267.697554 
L 906.944886 295.749131 
L 928.523977 315.236352 
L 950.103068 300.589908 
" clip-path="url(#pc08ce6909d)" style="fill: none; stroke: #111111; stroke-width: 2; stroke-linecap: square"/>
   </g>
   <g id="line2d_18">
    <path d="M 86.939432 105.682363 
L 108.518523 108.800645 
L 130.097614 102.279691 
L 151.676705 108.750574 
L 173.255795 66.951531 
L 194.834886 70.765724 
L 216.413977 71.930449 
L 237.993068 100.503396 
L 259.572159 120.59769 
L 281.15125 128.828946 
L 302.730341 130.956511 
L 324.309432 157.2167 
L 345.888523 139.574549 
L 367.467614 139.845029 
L 389.046705 161.745981 
L 410.625795 170.082884 
L 432.204886 195.638225 
L 453.783977 195.143903 
L 475.363068 199.538238 
L 496.942159 195.882132 
L 518.52125 209.046022 
L 540.100341 199.38175 
L 561.679432 208.820937 
L 583.258523 172.309882 
L 604.837614 189.397163 
L 626.416705 216.439202 
L 647.995795 207.803053 
L 669.574886 186.349964 
L 691.153977 190.681148 
L 712.733068 206.606309 
L 734.312159 213.940954 
L 755.89125 232.321275 
L 777.470341 251.193848 
L 799.049432 279.116518 
L 820.628523 278.458131 
L 842.207614 271.010854 
L 863.786705 262.30167 
L 885.365795 262.703189 
L 906.944886 259.567329 
L 928.523977 255.381151 
L 950.103068 283.510912 
" clip-path="url(#pc08ce6909d)" style="fill: none; stroke: #d55e00; stroke-opacity: 0.9; stroke-width: 1.6; stroke-linecap: square"/>
   </g>
   <g id="line2d_19">
    <path d="M 86.939432 101.316792 
L 108.518523 99.485039 
L 130.097614 86.805055 
L 151.676705 92.317063 
L 173.255795 49.064112 
L 194.834886 57.031575 
L 216.413977 59.196309 
L 237.993068 87.99156 
L 259.572159 108.330115 
L 281.15125 115.273007 
L 302.730341 113.813062 
L 324.309432 139.35846 
L 345.888523 120.028615 
L 367.467614 122.399257 
L 389.046705 149.318603 
L 410.625795 159.711279 
L 432.204886 187.671886 
L 453.783977 186.453184 
L 475.363068 189.639826 
L 496.942159 183.474818 
L 518.52125 195.4815 
L 540.100341 183.575908 
L 561.679432 191.41553 
L 583.258523 156.432543 
L 604.837614 175.793638 
L 626.416705 202.576323 
L 647.995795 191.303786 
L 669.574886 164.859054 
L 691.153977 170.600289 
L 712.733068 185.987271 
L 734.312159 192.604047 
L 755.89125 211.543855 
L 777.470341 228.208133 
L 799.049432 255.081136 
L 820.628523 253.245655 
L 842.207614 247.025722 
L 863.786705 237.354111 
L 885.365795 239.027008 
L 906.944886 236.881747 
L 928.523977 235.612618 
L 950.103068 264.550271 
" clip-path="url(#pc08ce6909d)" style="fill: none; stroke-dasharray: 4.44,1.92; stroke-dashoffset: 0; stroke: #0072b2; stroke-opacity: 0.9; stroke-width: 1.2"/>
   </g>
   <g id="line2d_20">
    <path d="M 86.939432 122.003361 
L 108.518523 115.383271 
L 130.097614 110.106469 
L 151.676705 115.879606 
L 173.255795 77.112375 
L 194.834886 76.590885 
L 216.413977 76.442624 
L 237.993068 103.515676 
L 259.572159 120.715648 
L 281.15125 133.527972 
L 302.730341 133.74992 
L 324.309432 157.131827 
L 345.888523 141.266208 
L 367.467614 140.192926 
L 389.046705 172.862858 
L 410.625795 184.763952 
L 432.204886 211.738341 
L 453.783977 207.626797 
L 475.363068 211.438563 
L 496.942159 210.419377 
L 518.52125 222.314671 
L 540.100341 211.265207 
L 561.679432 221.180783 
L 583.258523 186.210521 
L 604.837614 208.416458 
L 626.416705 232.798079 
L 647.995795 220.988368 
L 669.574886 201.447821 
L 691.153977 203.453462 
L 712.733068 218.519003 
L 734.312159 224.643528 
L 755.89125 241.543189 
L 777.470341 260.181622 
L 799.049432 289.509903 
L 820.628523 291.990514 
L 842.207614 284.10088 
L 863.786705 275.088603 
L 885.365795 277.21747 
L 906.944886 276.758127 
L 928.523977 270.89994 
L 950.103068 300.686559 
" clip-path="url(#pc08ce6909d)" style="fill: none; stroke-dasharray: 4.44,1.92; stroke-dashoffset: 0; stroke: #009e73; stroke-opacity: 0.9; stroke-width: 1.2"/>
   </g>
   <g id="line2d_21">
    <path d="M 86.939432 120.706592 
L 108.518523 122.658611 
L 130.097614 116.312612 
L 151.676705 125.198112 
L 173.255795 84.20696 
L 194.834886 90.520171 
L 216.413977 92.859918 
L 237.993068 123.213008 
L 259.572159 143.130512 
L 281.15125 152.02495 
L 302.730341 155.071439 
L 324.309432 179.350253 
L 345.888523 161.816057 
L 367.467614 161.998173 
L 389.046705 181.661295 
L 410.625795 189.492038 
L 432.204886 217.61381 
L 453.783977 216.810003 
L 475.363068 218.712601 
L 496.942159 212.250064 
L 518.52125 223.551899 
L 540.100341 211.129374 
L 561.679432 219.812635 
L 583.258523 184.983414 
L 604.837614 203.882798 
L 626.416705 229.24395 
L 647.995795 219.095477 
L 669.574886 197.477495 
L 691.153977 201.14242 
L 712.733068 214.970615 
L 734.312159 221.954642 
L 755.89125 240.382845 
L 777.470341 259.526194 
L 799.049432 288.584232 
L 820.628523 289.385849 
L 842.207614 283.891124 
L 863.786705 274.814039 
L 885.365795 275.587188 
L 906.944886 272.902858 
L 928.523977 269.318604 
L 950.103068 296.487182 
" clip-path="url(#pc08ce6909d)" style="fill: none; stroke-dasharray: 4.44,1.92; stroke-dashoffset: 0; stroke: #cc79a7; stroke-opacity: 0.9; stroke-width: 1.2"/>
   </g>
   <g id="line2d_22">
    <path d="M 86.939432 118.502381 
L 108.518523 118.378268 
L 130.097614 109.441454 
L 151.676705 114.530457 
L 173.255795 70.467012 
L 194.834886 72.70123 
L 216.413977 71.708264 
L 237.993068 99.884013 
L 259.572159 119.247121 
L 281.15125 128.432162 
L 302.730341 131.659347 
L 324.309432 158.46979 
L 345.888523 142.458039 
L 367.467614 144.568085 
L 389.046705 167.779003 
L 410.625795 178.081124 
L 432.204886 206.256933 
L 453.783977 209.608231 
L 475.363068 217.552079 
L 496.942159 213.952495 
L 518.52125 226.240607 
L 540.100341 215.317861 
L 561.679432 223.634049 
L 583.258523 188.383304 
L 604.837614 205.015681 
L 626.416705 230.336645 
L 647.995795 220.406864 
L 669.574886 198.437198 
L 691.153977 201.043757 
L 712.733068 214.324894 
L 734.312159 220.903377 
L 755.89125 239.149346 
L 777.470341 258.015941 
L 799.049432 286.812316 
L 820.628523 287.432943 
L 842.207614 281.97154 
L 863.786705 273.034725 
L 885.365795 273.903637 
L 906.944886 271.29702 
L 928.523977 267.697495 
L 950.103068 295.749131 
" clip-path="url(#pc08ce6909d)" style="fill: none; stroke-dasharray: 4.44,1.92; stroke-dashoffset: 0; stroke: #7a7a7a; stroke-opacity: 0.9; stroke-width: 1.2"/>
   </g>
   <g id="patch_3">
    <path d="M 43.78125 328.544964 
L 43.78125 35.7555 
" style="fill: none; stroke: #000000; stroke-width: 0.8; stroke-linejoin: miter; stroke-linecap: square"/>
   </g>
   <g id="patch_4">
    <path d="M 993.26125 328.544964 
L 993.26125 35.7555 
" style="fill: none; stroke: #000000; stroke-width: 0.8; stroke-linejoin: miter; stroke-linecap: square"/>
   </g>
   <g id="patch_5">
    <path d="M 43.78125 328.544964 
L 993.26125 328.544964 
" style="fill: none; stroke: #000000; stroke-width: 0.8; stroke-linejoin: miter; stroke-linecap: square"/>
   </g>
   <g id="patch_6">
    <path d="M 43.78125 35.7555 
L 993.26125 35.7555 
" style="fill: none; stroke: #000000; stroke-width: 0.8; stroke-linejoin: miter; stroke-linecap: square"/>
   </g>
   <g id="text_11">
    <!-- Test-set copper price predictions, h=2 -->
    <g transform="translate(404.284063 16.318125) scale(0.12 -0.12)">
     <defs>
      <path id="DejaVuSans-54" d="M -19 4666 
L 3928 4666 
L 3928 4134 
L 2272 4134 
L 2272 0 
L 1638 0 
L 1638 4134 
L -19 4134 
L -19 4666 
z
" transform="scale(0.015625)"/>
      <path id="DejaVuSans-73" d="M 2834 3397 
L 2834 2853 
Q 2591 2978 2328 3040 
Q 2066 3103 1784 3103 
Q 1356 3103 1142 2972 
Q 928 2841 928 2578 
Q 928 2378 1081 2264 
Q 1234 2150 1697 2047 
L 1894 2003 
Q 2506 1872 2764 1633 
Q 3022 1394 3022 966 
Q 3022 478 2636 193 
Q 2250 -91 1575 -91 
Q 1294 -91 989 -36 
Q 684 19 347 128 
L 347 722 
Q 666 556 975 473 
Q 1284 391 1588 391 
Q 1994 391 2212 530 
Q 2431 669 2431 922 
Q 2431 1156 2273 1281 
Q 2116 1406 1581 1522 
L 1381 1569 
Q 847 1681 609 1914 
Q 372 2147 372 2553 
Q 372 3047 722 3315 
Q 1072 3584 1716 3584 
Q 2034 3584 2315 3537 
Q 2597 3491 2834 3397 
z
" transform="scale(0.015625)"/>
      <path id="DejaVuSans-64" d="M 2906 2969 
L 2906 4863 
L 3481 4863 
L 3481 0 
L 2906 0 
L 2906 525 
Q 2725 213 2448 61 
Q 2172 -91 1784 -91 
Q 1150 -91 751 415 
Q 353 922 353 1747 
Q 353 2572 751 3078 
Q 1150 3584 1784 3584 
Q 2172 3584 2448 3432 
Q 2725 3281 2906 2969 
z
M 947 1747 
Q 947 1113 1208 752 
Q 1469 391 1925 391 
Q 2381 391 2643 752 
Q 2906 1113 2906 1747 
Q 2906 2381 2643 2742 
Q 2381 3103 1925 3103 
Q 1469 3103 1208 2742 
Q 947 2381 947 1747 
z
" transform="scale(0.015625)"/>
      <path id="DejaVuSans-6e" d="M 3513 2113 
L 3513 0 
L 2938 0 
L 2938 2094 
Q 2938 2591 2744 2837 
Q 2550 3084 2163 3084 
Q 1697 3084 1428 2787 
Q 1159 2491 1159 1978 
L 1159 0 
L 581 0 
L 581 3500 
L 1159 3500 
L 1159 2956 
Q 1366 3272 1645 3428 
Q 1925 3584 2291 3584 
Q 2894 3584 3203 3211 
Q 3513 2838 3513 2113 
z
" transform="scale(0.015625)"/>
      <path id="DejaVuSans-2c" d="M 750 794 
L 1409 794 
L 1409 256 
L 897 -744 
L 494 -744 
L 750 256 
L 750 794 
z
" transform="scale(0.015625)"/>
      <path id="DejaVuSans-68" d="M 3513 2113 
L 3513 0 
L 2938 0 
L 2938 2094 
Q 2938 2591 2744 2837 
Q 2550 3084 2163 3084 
Q 1697 3084 1428 2787 
Q 1159 2491 1159 1978 
L 1159 0 
L 581 0 
L 581 4863 
L 1159 4863 
L 1159 2956 
Q 1366 3272 1645 3428 
Q 1925 3584 2291 3584 
Q 2894 3584 3203 3211 
Q 3513 2838 3513 2113 
z
" transform="scale(0.015625)"/>
      <path id="DejaVuSans-3d" d="M 678 2906 
L 4684 2906 
L 4684 2381 
L 678 2381 
L 678 2906 
z
M 678 1631 
L 4684 1631 
L 4684 1100 
L 678 1100 
L 678 1631 
z
" transform="scale(0.015625)"/>
     </defs>
     <use xlink:href="#DejaVuSans-54"/>
     <use xlink:href="#DejaVuSans-65" x="44.083984"/>
     <use xlink:href="#DejaVuSans-73" x="105.607422"/>
     <use xlink:href="#DejaVuSans-74" x="157.707031"/>
     <use xlink:href="#DejaVuSans-2d" x="196.916016"/>
     <use xlink:href="#DejaVuSans-73" x="233"/>
     <use xlink:href="#DejaVuSans-65" x="285.099609"/>
     <use xlink:href="#DejaVuSans-74" x="346.623047"/>
     <use xlink:href="#DejaVuSans-20" x="385.832031"/>
     <use xlink:href="#DejaVuSans-63" x="417.619141"/>
     <use xlink:href="#DejaVuSans-6f" x="472.599609"/>
     <use xlink:href="#DejaVuSans-70" x="533.78125"/>
     <use xlink:href="#DejaVuSans-70" x="597.257812"/>
     <use xlink:href="#DejaVuSans-65" x="660.734375"/>
     <use xlink:href="#DejaVuSans-72" x="722.257812"/>
     <use xlink:href="#DejaVuSans-20" x="763.371094"/>
     <use xlink:href="#DejaVuSans-70" x="795.158203"/>
     <use xlink:href="#DejaVuSans-72" x="858.634766"/>
     <use xlink:href="#DejaVuSans-69" x="899.748047"/>
     <use xlink:href="#DejaVuSans-63" x="927.53125"/>
     <use xlink:href="#DejaVuSans-65" x="982.511719"/>
     <use xlink:href="#DejaVuSans-20" x="1044.035156"/>
     <use xlink:href="#DejaVuSans-70" x="1075.822266"/>
     <use xlink:href="#DejaVuSans-72" x="1139.298828"/>
     <use xlink:href="#DejaVuSans-65" x="1178.162109"/>
     <use xlink:href="#DejaVuSans-64" x="1239.685547"/>
     <use xlink:href="#DejaVuSans-69" x="1303.162109"/>
     <use xlink:href="#DejaVuSans-63" x="1330.945312"/>
     <use xlink:href="#DejaVuSans-74" x="1385.925781"/>
     <use xlink:href="#DejaVuSans-69" x="1425.134766"/>
     <use xlink:href="#DejaVuSans-6f" x="1452.917969"/>
     <use xlink:href="#DejaVuSans-6e" x="1514.099609"/>
     <use xlink:href="#DejaVuSans-73" x="1577.478516"/>
     <use xlink:href="#DejaVuSans-2c" x="1629.578125"/>
     <use xlink:href="#DejaVuSans-20" x="1661.365234"/>
     <use xlink:href="#DejaVuSans-68" x="1693.152344"/>
     <use xlink:href="#DejaVuSans-3d" x="1756.53125"/>
     <use xlink:href="#DejaVuSans-32" x="1840.320312"/>
    </g>
    <!-- Test period: 2015-04-17 to 2016-01-22 -->
    <g transform="translate(402.18125 29.7555) scale(0.12 -0.12)">
     <defs>
      <path id="DejaVuSans-3a" d="M 750 794 
L 1409 794 
L 1409 0 
L 750 0 
L 750 794 
z
M 750 3309 
L 1409 3309 
L 1409 2516 
L 750 2516 
L 750 3309 
z
" transform="scale(0.015625)"/>
      <path id="DejaVuSans-37" d="M 525 4666 
L 3525 4666 
L 3525 4397 
L 1831 0 
L 1172 0 
L 2766 4134 
L 525 4134 
L 525 4666 
z
" transform="scale(0.015625)"/>
     </defs>
     <use xlink:href="#DejaVuSans-54"/>
     <use xlink:href="#DejaVuSans-65" x="44.083984"/>
     <use xlink:href="#DejaVuSans-73" x="105.607422"/>
     <use xlink:href="#DejaVuSans-74" x="157.707031"/>
     <use xlink:href="#DejaVuSans-20" x="196.916016"/>
     <use xlink:href="#DejaVuSans-70" x="228.703125"/>
     <use xlink:href="#DejaVuSans-65" x="292.179688"/>
     <use xlink:href="#DejaVuSans-72" x="353.703125"/>
     <use xlink:href="#DejaVuSans-69" x="394.816406"/>
     <use xlink:href="#DejaVuSans-6f" x="422.599609"/>
     <use xlink:href="#DejaVuSans-64" x="483.78125"/>
     <use xlink:href="#DejaVuSans-3a" x="547.257812"/>
     <use xlink:href="#DejaVuSans-20" x="580.949219"/>
     <use xlink:href="#DejaVuSans-32" x="612.736328"/>
     <use xlink:href="#DejaVuSans-30" x="676.359375"/>
     <use xlink:href="#DejaVuSans-31" x="739.982422"/>
     <use xlink:href="#DejaVuSans-35" x="803.605469"/>
     <use xlink:href="#DejaVuSans-2d" x="867.228516"/>
     <use xlink:href="#DejaVuSans-30" x="903.3125"/>
     <use xlink:href="#DejaVuSans-34" x="966.935547"/>
     <use xlink:href="#DejaVuSans-2d" x="1030.558594"/>
     <use xlink:href="#DejaVuSans-31" x="1066.642578"/>
     <use xlink:href="#DejaVuSans-37" x="1130.265625"/>
     <use xlink:href="#DejaVuSans-20" x="1193.888672"/>
     <use xlink:href="#DejaVuSans-74" x="1225.675781"/>
     <use xlink:href="#DejaVuSans-6f" x="1264.884766"/>
     <use xlink:href="#DejaVuSans-20" x="1326.066406"/>
     <use xlink:href="#DejaVuSans-32" x="1357.853516"/>
     <use xlink:href="#DejaVuSans-30" x="1421.476562"/>
     <use xlink:href="#DejaVuSans-31" x="1485.099609"/>
     <use xlink:href="#DejaVuSans-36" x="1548.722656"/>
     <use xlink:href="#DejaVuSans-2d" x="1612.345703"/>
     <use xlink:href="#DejaVuSans-30" x="1648.429688"/>
     <use xlink:href="#DejaVuSans-31" x="1712.052734"/>
     <use xlink:href="#DejaVuSans-2d" x="1775.675781"/>
     <use xlink:href="#DejaVuSans-32" x="1811.759766"/>
     <use xlink:href="#DejaVuSans-32" x="1875.382812"/>
    </g>
   </g>
   <g id="legend_1">
    <g id="patch_7">
     <path d="M 687.340937 73.11175 
L 986.26125 73.11175 
Q 988.26125 73.11175 988.26125 71.11175 
L 988.26125 42.7555 
Q 988.26125 40.7555 986.26125 40.7555 
L 687.340937 40.7555 
Q 685.340937 40.7555 685.340937 42.7555 
L 685.340937 71.11175 
Q 685.340937 73.11175 687.340937 73.11175 
z
" style="fill: #ffffff; opacity: 0.8; stroke: #cccccc; stroke-linejoin: miter"/>
    </g>
    <g id="line2d_23">
     <path d="M 689.340937 48.853937 
L 699.340937 48.853937 
L 709.340937 48.853937 
" style="fill: none; stroke: #111111; stroke-width: 2; stroke-linecap: square"/>
    </g>
    <g id="text_12">
     <!-- Actual price -->
     <g transform="translate(717.340937 52.353937) scale(0.1 -0.1)">
      <defs>
       <path id="DejaVuSans-41" d="M 2188 4044 
L 1331 1722 
L 3047 1722 
L 2188 4044 
z
M 1831 4666 
L 2547 4666 
L 4325 0 
L 3669 0 
L 3244 1197 
L 1141 1197 
L 716 0 
L 50 0 
L 1831 4666 
z
" transform="scale(0.015625)"/>
       <path id="DejaVuSans-75" d="M 544 1381 
L 544 3500 
L 1119 3500 
L 1119 1403 
Q 1119 906 1312 657 
Q 1506 409 1894 409 
Q 2359 409 2629 706 
Q 2900 1003 2900 1516 
L 2900 3500 
L 3475 3500 
L 3475 0 
L 2900 0 
L 2900 538 
Q 2691 219 2414 64 
Q 2138 -91 1772 -91 
Q 1169 -91 856 284 
Q 544 659 544 1381 
z
M 1991 3584 
L 1991 3584 
z
" transform="scale(0.015625)"/>
      </defs>
      <use xlink:href="#DejaVuSans-41"/>
      <use xlink:href="#DejaVuSans-63" x="66.658203"/>
      <use xlink:href="#DejaVuSans-74" x="121.638672"/>
      <use xlink:href="#DejaVuSans-75" x="160.847656"/>
      <use xlink:href="#DejaVuSans-61" x="224.226562"/>
      <use xlink:href="#DejaVuSans-6c" x="285.505859"/>
      <use xlink:href="#DejaVuSans-20" x="313.289062"/>
      <use xlink:href="#DejaVuSans-70" x="345.076172"/>
      <use xlink:href="#DejaVuSans-72" x="408.552734"/>
      <use xlink:href="#DejaVuSans-69" x="449.666016"/>
      <use xlink:href="#DejaVuSans-63" x="477.449219"/>
      <use xlink:href="#DejaVuSans-65" x="532.429688"/>
     </g>
    </g>
    <g id="line2d_24">
     <path d="M 689.340937 63.532062 
L 699.340937 63.532062 
L 709.340937 63.532062 
" style="fill: none; stroke: #d55e00; stroke-opacity: 0.9; stroke-width: 1.6; stroke-linecap: square"/>
    </g>
    <g id="text_13">
     <!-- MDHGNN -->
     <g transform="translate(717.340937 67.032062) scale(0.1 -0.1)">
      <defs>
       <path id="DejaVuSans-4d" d="M 628 4666 
L 1569 4666 
L 2759 1491 
L 3956 4666 
L 4897 4666 
L 4897 0 
L 4281 0 
L 4281 4097 
L 3078 897 
L 2444 897 
L 1241 4097 
L 1241 0 
L 628 0 
L 628 4666 
z
" transform="scale(0.015625)"/>
       <path id="DejaVuSans-48" d="M 628 4666 
L 1259 4666 
L 1259 2753 
L 3553 2753 
L 3553 4666 
L 4184 4666 
L 4184 0 
L 3553 0 
L 3553 2222 
L 1259 2222 
L 1259 0 
L 628 0 
L 628 4666 
z
" transform="scale(0.015625)"/>
       <path id="DejaVuSans-47" d="M 3809 666 
L 3809 1919 
L 2778 1919 
L 2778 2438 
L 4434 2438 
L 4434 434 
Q 4069 175 3628 42 
Q 3188 -91 2688 -91 
Q 1594 -91 976 548 
Q 359 1188 359 2328 
Q 359 3472 976 4111 
Q 1594 4750 2688 4750 
Q 3144 4750 3555 4637 
Q 3966 4525 4313 4306 
L 4313 3634 
Q 3963 3931 3569 4081 
Q 3175 4231 2741 4231 
Q 1884 4231 1454 3753 
Q 1025 3275 1025 2328 
Q 1025 1384 1454 906 
Q 1884 428 2741 428 
Q 3075 428 3337 486 
Q 3600 544 3809 666 
z
" transform="scale(0.015625)"/>
       <path id="DejaVuSans-4e" d="M 628 4666 
L 1478 4666 
L 3547 763 
L 3547 4666 
L 4159 4666 
L 4159 0 
L 3309 0 
L 1241 3903 
L 1241 0 
L 628 0 
L 628 4666 
z
" transform="scale(0.015625)"/>
      </defs>
      <use xlink:href="#DejaVuSans-4d"/>
      <use xlink:href="#DejaVuSans-44" x="86.279297"/>
      <use xlink:href="#DejaVuSans-48" x="163.28125"/>
      <use xlink:href="#DejaVuSans-47" x="238.476562"/>
      <use xlink:href="#DejaVuSans-4e" x="315.966797"/>
      <use xlink:href="#DejaVuSans-4e" x="390.771484"/>
     </g>
    </g>
    <g id="line2d_25">
     <path d="M 796.73625 48.853937 
L 806.73625 48.853937 
L 816.73625 48.853937 
" style="fill: none; stroke-dasharray: 4.44,1.92; stroke-dashoffset: 0; stroke: #0072b2; stroke-opacity: 0.9; stroke-width: 1.2"/>
    </g>
    <g id="text_14">
     <!-- GRU -->
     <g transform="translate(824.73625 52.353937) scale(0.1 -0.1)">
      <defs>
       <path id="DejaVuSans-52" d="M 2841 2188 
Q 3044 2119 3236 1894 
Q 3428 1669 3622 1275 
L 4263 0 
L 3584 0 
L 2988 1197 
Q 2756 1666 2539 1819 
Q 2322 1972 1947 1972 
L 1259 1972 
L 1259 0 
L 628 0 
L 628 4666 
L 2053 4666 
Q 2853 4666 3247 4331 
Q 3641 3997 3641 3322 
Q 3641 2881 3436 2590 
Q 3231 2300 2841 2188 
z
M 1259 4147 
L 1259 2491 
L 2053 2491 
Q 2509 2491 2742 2702 
Q 2975 2913 2975 3322 
Q 2975 3731 2742 3939 
Q 2509 4147 2053 4147 
L 1259 4147 
z
" transform="scale(0.015625)"/>
      </defs>
      <use xlink:href="#DejaVuSans-47"/>
      <use xlink:href="#DejaVuSans-52" x="77.490234"/>
      <use xlink:href="#DejaVuSans-55" x="146.972656"/>
     </g>
    </g>
    <g id="line2d_26">
     <path d="M 796.73625 63.532062 
L 806.73625 63.532062 
L 816.73625 63.532062 
" style="fill: none; stroke-dasharray: 4.44,1.92; stroke-dashoffset: 0; stroke: #009e73; stroke-opacity: 0.9; stroke-width: 1.2"/>
    </g>
    <g id="text_15">
     <!-- MLP -->
     <g transform="translate(824.73625 67.032062) scale(0.1 -0.1)">
      <defs>
       <path id="DejaVuSans-4c" d="M 628 4666 
L 1259 4666 
L 1259 531 
L 3531 531 
L 3531 0 
L 628 0 
L 628 4666 
z
" transform="scale(0.015625)"/>
       <path id="DejaVuSans-50" d="M 1259 4147 
L 1259 2394 
L 2053 2394 
Q 2494 2394 2734 2622 
Q 2975 2850 2975 3272 
Q 2975 3691 2734 3919 
Q 2494 4147 2053 4147 
L 1259 4147 
z
M 628 4666 
L 2053 4666 
Q 2838 4666 3239 4311 
Q 3641 3956 3641 3272 
Q 3641 2581 3239 2228 
Q 2838 1875 2053 1875 
L 1259 1875 
L 1259 0 
L 628 0 
L 628 4666 
z
" transform="scale(0.015625)"/>
      </defs>
      <use xlink:href="#DejaVuSans-4d"/>
      <use xlink:href="#DejaVuSans-4c" x="86.279297"/>
      <use xlink:href="#DejaVuSans-50" x="141.992188"/>
     </g>
    </g>
    <g id="line2d_27">
     <path d="M 866.751875 48.853937 
L 876.751875 48.853937 
L 886.751875 48.853937 
" style="fill: none; stroke-dasharray: 4.44,1.92; stroke-dashoffset: 0; stroke: #cc79a7; stroke-opacity: 0.9; stroke-width: 1.2"/>
    </g>
    <g id="text_16">
     <!-- Transformer -->
     <g transform="translate(894.751875 52.353937) scale(0.1 -0.1)">
      <defs>
       <path id="DejaVuSans-66" d="M 2375 4863 
L 2375 4384 
L 1825 4384 
Q 1516 4384 1395 4259 
Q 1275 4134 1275 3809 
L 1275 3500 
L 2222 3500 
L 2222 3053 
L 1275 3053 
L 1275 0 
L 697 0 
L 697 3053 
L 147 3053 
L 147 3500 
L 697 3500 
L 697 3744 
Q 697 4328 969 4595 
Q 1241 4863 1831 4863 
L 2375 4863 
z
" transform="scale(0.015625)"/>
       <path id="DejaVuSans-6d" d="M 3328 2828 
Q 3544 3216 3844 3400 
Q 4144 3584 4550 3584 
Q 5097 3584 5394 3201 
Q 5691 2819 5691 2113 
L 5691 0 
L 5113 0 
L 5113 2094 
Q 5113 2597 4934 2840 
Q 4756 3084 4391 3084 
Q 3944 3084 3684 2787 
Q 3425 2491 3425 1978 
L 3425 0 
L 2847 0 
L 2847 2094 
Q 2847 2600 2669 2842 
Q 2491 3084 2119 3084 
Q 1678 3084 1418 2786 
Q 1159 2488 1159 1978 
L 1159 0 
L 581 0 
L 581 3500 
L 1159 3500 
L 1159 2956 
Q 1356 3278 1631 3431 
Q 1906 3584 2284 3584 
Q 2666 3584 2933 3390 
Q 3200 3197 3328 2828 
z
" transform="scale(0.015625)"/>
      </defs>
      <use xlink:href="#DejaVuSans-54"/>
      <use xlink:href="#DejaVuSans-72" x="46.333984"/>
      <use xlink:href="#DejaVuSans-61" x="87.447266"/>
      <use xlink:href="#DejaVuSans-6e" x="148.726562"/>
      <use xlink:href="#DejaVuSans-73" x="212.105469"/>
      <use xlink:href="#DejaVuSans-66" x="264.205078"/>
      <use xlink:href="#DejaVuSans-6f" x="299.410156"/>
      <use xlink:href="#DejaVuSans-72" x="360.591797"/>
      <use xlink:href="#DejaVuSans-6d" x="399.955078"/>
      <use xlink:href="#DejaVuSans-65" x="497.367188"/>
      <use xlink:href="#DejaVuSans-72" x="558.890625"/>
     </g>
    </g>
    <g id="line2d_28">
     <path d="M 866.751875 63.532062 
L 876.751875 63.532062 
L 886.751875 63.532062 
" style="fill: none; stroke-dasharray: 4.44,1.92; stroke-dashoffset: 0; stroke: #7a7a7a; stroke-opacity: 0.9; stroke-width: 1.2"/>
    </g>
    <g id="text_17">
     <!-- Naive persistence -->
     <g transform="translate(894.751875 67.032062) scale(0.1 -0.1)">
      <defs>
       <path id="DejaVuSans-76" d="M 191 3500 
L 800 3500 
L 1894 563 
L 2988 3500 
L 3597 3500 
L 2284 0 
L 1503 0 
L 191 3500 
z
" transform="scale(0.015625)"/>
      </defs>
      <use xlink:href="#DejaVuSans-4e"/>
      <use xlink:href="#DejaVuSans-61" x="74.804688"/>
      <use xlink:href="#DejaVuSans-69" x="136.083984"/>
      <use xlink:href="#DejaVuSans-76" x="163.867188"/>
      <use xlink:href="#DejaVuSans-65" x="223.046875"/>
      <use xlink:href="#DejaVuSans-20" x="284.570312"/>
      <use xlink:href="#DejaVuSans-70" x="316.357422"/>
      <use xlink:href="#DejaVuSans-65" x="379.833984"/>
      <use xlink:href="#DejaVuSans-72" x="441.357422"/>
      <use xlink:href="#DejaVuSans-73" x="482.470703"/>
      <use xlink:href="#DejaVuSans-69" x="534.570312"/>
      <use xlink:href="#DejaVuSans-73" x="562.353516"/>
      <use xlink:href="#DejaVuSans-74" x="614.453125"/>
      <use xlink:href="#DejaVuSans-65" x="653.662109"/>
      <use xlink:href="#DejaVuSans-6e" x="715.185547"/>
      <use xlink:href="#DejaVuSans-63" x="778.564453"/>
      <use xlink:href="#DejaVuSans-65" x="833.544922"/>
     </g>
    </g>
   </g>
  </g>
 </g>
 <defs>
  <clipPath id="pc08ce6909d">
   <rect x="43.78125" y="35.7555" width="949.48" height="292.789464"/>
  </clipPath>
 </defs>
</svg>
