<?xml version="1.0" encoding="utf-8" standalone="no"?>
<!DOCTYPE svg PUBLIC "-//W3C//DTD SVG 1.1//EN"
  "http://www.w3.org/Graphics/SVG/1.1/DTD/svg11.dtd">
<svg xmlns:xlink="http://www.w3.org/1999/xlink" width="1000.46125pt" height="385.650997pt" viewBox="0 0 1000.46125 385.650997" xmlns="http://www.w3.org/2000/svg" version="1.1">
 <metadata>
  <rdf:RDF xmlns:dc="http://purl.org/dc/elements/1.1/" xmlns:cc="http://creativecommons.org/ns#" xmlns:rdf="http://www.w3.org/1999/02/22-rdf-syntax-ns#">
   <cc:Work>
    <dc:type rdf:resource="http://purl.org/dc/dcmitype/StillImage"/>
    <dc:date>2026-07-04T16:25:59.639891</dc:date>
    <dc:format>image/svg+xml</dc:format>
    <dc:creator>
     <cc:Agent>
      <dc:title>Matplotlib v3.9.4, https://matplotlib.org/</dc:title>
     </cc:Agent>
    </dc:creator>
   </cc:Work>
  </rdf:RDF>
 </metadata>
 <defs>
  <style type="text/css">*{stroke-linejoin: round; stroke-linecap: butt}</style>
 </defs>
 <g id="figure_1">
  <g id="patch_1">
   <path d="M 0 385.650997 
L 1000.46125 385.650997 
L 1000.46125 0 
L 0 0 
z
" style="fill: #ffffff"/>
  </g>
  <g id="axes_1">
   <g id="patch_2">
    <path d="M 43.78125 328.499964 
L 993.26125 328.499964 
L 993.26125 35.7555 
L 43.78125 35.7555 
z
" style="fill: #ffffff"/>
   </g>
   <g id="matplotlib.axis_1">
    <g id="xtick_1">
     <g id="line2d_1">
      <path d="M 150.097747 328.499964 
L 150.097747 35.7555 
" clip-path="url(#p4231d6540d)" style="fill: none; stroke: #b0b0b0; stroke-opacity: 0.25; stroke-width: 0.8; stroke-linecap: square"/>
     </g>
     <g id="line2d_2">
      <defs>
       <path id="m849ebab5fb" d="M 0 0 
L 0 3.5 
" style="stroke: #000000; stroke-width: 0.8"/>
      </defs>
      <g>
       <use xlink:href="#m849ebab5fb" x="150.097747" y="328.499964" style="stroke: #000000; stroke-width: 0.8"/>
      </g>
     </g>
     <g id="text_1">
      <!-- 2015-05 -->
      <g transform="translate(112.872926 362.97181) rotate(-30) scale(0.1 -0.1)">
       <defs>
        <path id="DejaVuSans-32" d="M 1228 531 
L 3431 531 
L 3431 0 
L 469 0 
L 469 531 
Q 828 903 1448 1529 
Q 2069 2156 2228 2338 
Q 2531 2678 2651 2914 
Q 2772 3150 2772 3378 
Q 2772 3750 2511 3984 
Q 2250 4219 1831 4219 
Q 1534 4219 1204 4116 
Q 875 4013 500 3803 
L 500 4441 
Q 881 4594 1212 4672 
Q 1544 4750 1819 4750 
Q 2544 4750 2975 4387 
Q 3406 4025 3406 3419 
Q 3406 3131 3298 2873 
Q 3191 2616 2906 2266 
Q 2828 2175 2409 1742 
Q 1991 1309 1228 531 
z
" transform="scale(0.015625)"/>
        <path id="DejaVuSans-30" d="M 2034 4250 
Q 1547 4250 1301 3770 
Q 1056 3291 1056 2328 
Q 1056 1369 1301 889 
Q 1547 409 2034 409 
Q 2525 409 2770 889 
Q 3016 1369 3016 2328 
Q 3016 3291 2770 3770 
Q 2525 4250 2034 4250 
z
M 2034 4750 
Q 2819 4750 3233 4129 
Q 3647 3509 3647 2328 
Q 3647 1150 3233 529 
Q 2819 -91 2034 -91 
Q 1250 -91 836 529 
Q 422 1150 422 2328 
Q 422 3509 836 4129 
Q 1250 4750 2034 4750 
z
" transform="scale(0.015625)"/>
        <path id="DejaVuSans-31" d="M 794 531 
L 1825 531 
L 1825 4091 
L 703 3866 
L 703 4441 
L 1819 4666 
L 2450 4666 
L 2450 531 
L 3481 531 
L 3481 0 
L 794 0 
L 794 531 
z
" transform="scale(0.015625)"/>
        <path id="DejaVuSans-35" d="M 691 4666 
L 3169 4666 
L 3169 4134 
L 1269 4134 
L 1269 2991 
Q 1406 3038 1543 3061 
Q 1681 3084 1819 3084 
Q 2600 3084 3056 2656 
Q 3513 2228 3513 1497 
Q 3513 744 3044 326 
Q 2575 -91 1722 -91 
Q 1428 -91 1123 -41 
Q 819 9 494 109 
L 494 744 
Q 775 591 1075 516 
Q 1375 441 1709 441 
Q 2250 441 2565 725 
Q 2881 1009 2881 1497 
Q 2881 1984 2565 2268 
Q 2250 2553 1709 2553 
Q 1456 2553 1204 2497 
Q 953 2441 691 2322 
L 691 4666 
z
" transform="scale(0.015625)"/>
        <path id="DejaVuSans-2d" d="M 313 2009 
L 1997 2009 
L 1997 1497 
L 313 1497 
L 313 2009 
z
" transform="scale(0.015625)"/>
       </defs>
       <use xlink:href="#DejaVuSans-32"/>
       <use xlink:href="#DejaVuSans-30" x="63.623047"/>
       <use xlink:href="#DejaVuSans-31" x="127.246094"/>
       <use xlink:href="#DejaVuSans-35" x="190.869141"/>
       <use xlink:href="#DejaVuSans-2d" x="254.492188"/>
       <use xlink:href="#DejaVuSans-30" x="290.576172"/>
       <use xlink:href="#DejaVuSans-35" x="354.199219"/>
      </g>
     </g>
    </g>
    <g id="xtick_2">
     <g id="line2d_3">
      <path d="M 703.484886 328.499964 
L 703.484886 35.7555 
" clip-path="url(#p4231d6540d)" style="fill: none; stroke: #b0b0b0; stroke-opacity: 0.25; stroke-width: 0.8; stroke-linecap: square"/>
     </g>
     <g id="line2d_4">
      <g>
       <use xlink:href="#m849ebab5fb" x="703.484886" y="328.499964" style="stroke: #000000; stroke-width: 0.8"/>
      </g>
     </g>
     <g id="text_2">
      <!-- 2015-11 -->
      <g transform="translate(666.260066 362.97181) rotate(-30) scale(0.1 -0.1)">
       <use xlink:href="#DejaVuSans-32"/>
       <use xlink:href="#DejaVuSans-30" x="63.623047"/>
       <use xlink:href="#DejaVuSans-31" x="127.246094"/>
       <use xlink:href="#DejaVuSans-35" x="190.869141"/>
       <use xlink:href="#DejaVuSans-2d" x="254.492188"/>
       <use xlink:href="#DejaVuSans-31" x="290.576172"/>
       <use xlink:href="#DejaVuSans-31" x="354.199219"/>
      </g>
     </g>
    </g>
    <g id="text_3">
     <!-- Date -->
     <g transform="translate(506.570469 376.37131) scale(0.1 -0.1)">
      <defs>
       <path id="DejaVuSans-44" d="M 1259 4147 
L 1259 519 
L 2022 519 
Q 2988 519 3436 956 
Q 3884 1394 3884 2338 
Q 3884 3275 3436 3711 
Q 2988 4147 2022 4147 
L 1259 4147 
z
M 628 4666 
L 1925 4666 
Q 3281 4666 3915 4102 
Q 4550 3538 4550 2338 
Q 4550 1131 3912 565 
Q 3275 0 1925 0 
L 628 0 
L 628 4666 
z
" transform="scale(0.015625)"/>
       <path id="DejaVuSans-61" d="M 2194 1759 
Q 1497 1759 1228 1600 
Q 959 1441 959 1056 
Q 959 750 1161 570 
Q 1363 391 1709 391 
Q 2188 391 2477 730 
Q 2766 1069 2766 1631 
L 2766 1759 
L 2194 1759 
z
M 3341 1997 
L 3341 0 
L 2766 0 
L 2766 531 
Q 2569 213 2275 61 
Q 1981 -91 1556 -91 
Q 1019 -91 701 211 
Q 384 513 384 1019 
Q 384 1609 779 1909 
Q 1175 2209 1959 2209 
L 2766 2209 
L 2766 2266 
Q 2766 2663 2505 2880 
Q 2244 3097 1772 3097 
Q 1472 3097 1187 3025 
Q 903 2953 641 2809 
L 641 3341 
Q 956 3463 1253 3523 
Q 1550 3584 1831 3584 
Q 2591 3584 2966 3190 
Q 3341 2797 3341 1997 
z
" transform="scale(0.015625)"/>
       <path id="DejaVuSans-74" d="M 1172 4494 
L 1172 3500 
L 2356 3500 
L 2356 3053 
L 1172 3053 
L 1172 1153 
Q 1172 725 1289 603 
Q 1406 481 1766 481 
L 2356 481 
L 2356 0 
L 1766 0 
Q 1100 0 847 248 
Q 594 497 594 1153 
L 594 3053 
L 172 3053 
L 172 3500 
L 594 3500 
L 594 4494 
L 1172 4494 
z
" transform="scale(0.015625)"/>
       <path id="DejaVuSans-65" d="M 3597 1894 
L 3597 1613 
L 953 1613 
Q 991 1019 1311 708 
Q 1631 397 2203 397 
Q 2534 397 2845 478 
Q 3156 559 3463 722 
L 3463 178 
Q 3153 47 2828 -22 
Q 2503 -91 2169 -91 
Q 1331 -91 842 396 
Q 353 884 353 1716 
Q 353 2575 817 3079 
Q 1281 3584 2069 3584 
Q 2775 3584 3186 3129 
Q 3597 2675 3597 1894 
z
M 3022 2063 
Q 3016 2534 2758 2815 
Q 2500 3097 2075 3097 
Q 1594 3097 1305 2825 
Q 1016 2553 972 2059 
L 3022 2063 
z
" transform="scale(0.015625)"/>
      </defs>
      <use xlink:href="#DejaVuSans-44"/>
      <use xlink:href="#DejaVuSans-61" x="77.001953"/>
      <use xlink:href="#DejaVuSans-74" x="138.28125"/>
      <use xlink:href="#DejaVuSans-65" x="177.490234"/>
     </g>
    </g>
   </g>
   <g id="matplotlib.axis_2">
    <g id="ytick_1">
     <g id="line2d_5">
      <path d="M 43.78125 298.457269 
L 993.26125 298.457269 
" clip-path="url(#p4231d6540d)" style="fill: none; stroke: #b0b0b0; stroke-opacity: 0.25; stroke-width: 0.8; stroke-linecap: square"/>
     </g>
     <g id="line2d_6">
      <defs>
       <path id="ma32dd83a1f" d="M 0 0 
L -3.5 0 
" style="stroke: #000000; stroke-width: 0.8"/>
      </defs>
      <g>
       <use xlink:href="#ma32dd83a1f" x="43.78125" y="298.457269" style="stroke: #000000; stroke-width: 0.8"/>
      </g>
     </g>
     <g id="text_4">
      <!-- 2.0 -->
      <g transform="translate(20.878125 302.256488) scale(0.1 -0.1)">
       <defs>
        <path id="DejaVuSans-2e" d="M 684 794 
L 1344 794 
L 1344 0 
L 684 0 
L 684 794 
z
" transform="scale(0.015625)"/>
       </defs>
       <use xlink:href="#DejaVuSans-32"/>
       <use xlink:href="#DejaVuSans-2e" x="63.623047"/>
       <use xlink:href="#DejaVuSans-30" x="95.410156"/>
      </g>
     </g>
    </g>
    <g id="ytick_2">
     <g id="line2d_7">
      <path d="M 43.78125 245.276357 
L 993.26125 245.276357 
" clip-path="url(#p4231d6540d)" style="fill: none; stroke: #b0b0b0; stroke-opacity: 0.25; stroke-width: 0.8; stroke-linecap: square"/>
     </g>
     <g id="line2d_8">
      <g>
       <use xlink:href="#ma32dd83a1f" x="43.78125" y="245.276357" style="stroke: #000000; stroke-width: 0.8"/>
      </g>
     </g>
     <g id="text_5">
      <!-- 2.2 -->
      <g transform="translate(20.878125 249.075575) scale(0.1 -0.1)">
       <use xlink:href="#DejaVuSans-32"/>
       <use xlink:href="#DejaVuSans-2e" x="63.623047"/>
       <use xlink:href="#DejaVuSans-32" x="95.410156"/>
      </g>
     </g>
    </g>
    <g id="ytick_3">
     <g id="line2d_9">
      <path d="M 43.78125 192.095444 
L 993.26125 192.095444 
" clip-path="url(#p4231d6540d)" style="fill: none; stroke: #b0b0b0; stroke-opacity: 0.25; stroke-width: 0.8; stroke-linecap: square"/>
     </g>
     <g id="line2d_10">
      <g>
       <use xlink:href="#ma32dd83a1f" x="43.78125" y="192.095444" style="stroke: #000000; stroke-width: 0.8"/>
      </g>
     </g>
     <g id="text_6">
      <!-- 2.4 -->
      <g transform="translate(20.878125 195.894663) scale(0.1 -0.1)">
       <defs>
        <path id="DejaVuSans-34" d="M 2419 4116 
L 825 1625 
L 2419 1625 
L 2419 4116 
z
M 2253 4666 
L 3047 4666 
L 3047 1625 
L 3713 1625 
L 3713 1100 
L 3047 1100 
L 3047 0 
L 2419 0 
L 2419 1100 
L 313 1100 
L 313 1709 
L 2253 4666 
z
" transform="scale(0.015625)"/>
       </defs>
       <use xlink:href="#DejaVuSans-32"/>
       <use xlink:href="#DejaVuSans-2e" x="63.623047"/>
       <use xlink:href="#DejaVuSans-34" x="95.410156"/>
      </g>
     </g>
    </g>
    <g id="ytick_4">
     <g id="line2d_11">
      <path d="M 43.78125 138.914532 
L 993.26125 138.914532 
" clip-path="url(#p4231d6540d)" style="fill: none; stroke: #b0b0b0; stroke-opacity: 0.25; stroke-width: 0.8; stroke-linecap: square"/>
     </g>
     <g id="line2d_12">
      <g>
       <use xlink:href="#ma32dd83a1f" x="43.78125" y="138.914532" style="stroke: #000000; stroke-width: 0.8"/>
      </g>
     </g>
     <g id="text_7">
      <!-- 2.6 -->
      <g transform="translate(20.878125 142.713751) scale(0.1 -0.1)">
       <defs>
        <path id="DejaVuSans-36" d="M 2113 2584 
Q 1688 2584 1439 2293 
Q 1191 2003 1191 1497 
Q 1191 994 1439 701 
Q 1688 409 2113 409 
Q 2538 409 2786 701 
Q 3034 994 3034 1497 
Q 3034 2003 2786 2293 
Q 2538 2584 2113 2584 
z
M 3366 4563 
L 3366 3988 
Q 3128 4100 2886 4159 
Q 2644 4219 2406 4219 
Q 1781 4219 1451 3797 
Q 1122 3375 1075 2522 
Q 1259 2794 1537 2939 
Q 1816 3084 2150 3084 
Q 2853 3084 3261 2657 
Q 3669 2231 3669 1497 
Q 3669 778 3244 343 
Q 2819 -91 2113 -91 
Q 1303 -91 875 529 
Q 447 1150 447 2328 
Q 447 3434 972 4092 
Q 1497 4750 2381 4750 
Q 2619 4750 2861 4703 
Q 3103 4656 3366 4563 
z
" transform="scale(0.015625)"/>
       </defs>
       <use xlink:href="#DejaVuSans-32"/>
       <use xlink:href="#DejaVuSans-2e" x="63.623047"/>
       <use xlink:href="#DejaVuSans-36" x="95.410156"/>
      </g>
     </g>
    </g>
    <g id="ytick_5">
     <g id="line2d_13">
      <path d="M 43.78125 85.73362 
L 993.26125 85.73362 
" clip-path="url(#p4231d6540d)" style="fill: none; stroke: #b0b0b0; stroke-opacity: 0.25; stroke-width: 0.8; stroke-linecap: square"/>
     </g>
     <g id="line2d_14">
      <g>
       <use xlink:href="#ma32dd83a1f" x="43.78125" y="85.73362" style="stroke: #000000; stroke-width: 0.8"/>
      </g>
     </g>
     <g id="text_8">
      <!-- 2.8 -->
      <g transform="translate(20.878125 89.532839) scale(0.1 -0.1)">
       <defs>
        <path id="DejaVuSans-38" d="M 2034 2216 
Q 1584 2216 1326 1975 
Q 1069 1734 1069 1313 
Q 1069 891 1326 650 
Q 1584 409 2034 409 
Q 2484 409 2743 651 
Q 3003 894 3003 1313 
Q 3003 1734 2745 1975 
Q 2488 2216 2034 2216 
z
M 1403 2484 
Q 997 2584 770 2862 
Q 544 3141 544 3541 
Q 544 4100 942 4425 
Q 1341 4750 2034 4750 
Q 2731 4750 3128 4425 
Q 3525 4100 3525 3541 
Q 3525 3141 3298 2862 
Q 3072 2584 2669 2484 
Q 3125 2378 3379 2068 
Q 3634 1759 3634 1313 
Q 3634 634 3220 271 
Q 2806 -91 2034 -91 
Q 1263 -91 848 271 
Q 434 634 434 1313 
Q 434 1759 690 2068 
Q 947 2378 1403 2484 
z
M 1172 3481 
Q 1172 3119 1398 2916 
Q 1625 2713 2034 2713 
Q 2441 2713 2670 2916 
Q 2900 3119 2900 3481 
Q 2900 3844 2670 4047 
Q 2441 4250 2034 4250 
Q 1625 4250 1398 4047 
Q 1172 3844 1172 3481 
z
" transform="scale(0.015625)"/>
       </defs>
       <use xlink:href="#DejaVuSans-32"/>
       <use xlink:href="#DejaVuSans-2e" x="63.623047"/>
       <use xlink:href="#DejaVuSans-38" x="95.410156"/>
      </g>
     </g>
    </g>
    <g id="text_9">
     <!-- Copper price (USD/lb) -->
     <g transform="translate(14.798438 236.614451) rotate(-90) scale(0.1 -0.1)">
      <defs>
       <path id="DejaVuSans-43" d="M 4122 4306 
L 4122 3641 
Q 3803 3938 3442 4084 
Q 3081 4231 2675 4231 
Q 1875 4231 1450 3742 
Q 1025 3253 1025 2328 
Q 1025 1406 1450 917 
Q 1875 428 2675 428 
Q 3081 428 3442 575 
Q 3803 722 4122 1019 
L 4122 359 
Q 3791 134 3420 21 
Q 3050 -91 2638 -91 
Q 1578 -91 968 557 
Q 359 1206 359 2328 
Q 359 3453 968 4101 
Q 1578 4750 2638 4750 
Q 3056 4750 3426 4639 
Q 3797 4528 4122 4306 
z
" transform="scale(0.015625)"/>
       <path id="DejaVuSans-6f" d="M 1959 3097 
Q 1497 3097 1228 2736 
Q 959 2375 959 1747 
Q 959 1119 1226 758 
Q 1494 397 1959 397 
Q 2419 397 2687 759 
Q 2956 1122 2956 1747 
Q 2956 2369 2687 2733 
Q 2419 3097 1959 3097 
z
M 1959 3584 
Q 2709 3584 3137 3096 
Q 3566 2609 3566 1747 
Q 3566 888 3137 398 
Q 2709 -91 1959 -91 
Q 1206 -91 779 398 
Q 353 888 353 1747 
Q 353 2609 779 3096 
Q 1206 3584 1959 3584 
z
" transform="scale(0.015625)"/>
       <path id="DejaVuSans-70" d="M 1159 525 
L 1159 -1331 
L 581 -1331 
L 581 3500 
L 1159 3500 
L 1159 2969 
Q 1341 3281 1617 3432 
Q 1894 3584 2278 3584 
Q 2916 3584 3314 3078 
Q 3713 2572 3713 1747 
Q 3713 922 3314 415 
Q 2916 -91 2278 -91 
Q 1894 -91 1617 61 
Q 1341 213 1159 525 
z
M 3116 1747 
Q 3116 2381 2855 2742 
Q 2594 3103 2138 3103 
Q 1681 3103 1420 2742 
Q 1159 2381 1159 1747 
Q 1159 1113 1420 752 
Q 1681 391 2138 391 
Q 2594 391 2855 752 
Q 3116 1113 3116 1747 
z
" transform="scale(0.015625)"/>
       <path id="DejaVuSans-72" d="M 2631 2963 
Q 2534 3019 2420 3045 
Q 2306 3072 2169 3072 
Q 1681 3072 1420 2755 
Q 1159 2438 1159 1844 
L 1159 0 
L 581 0 
L 581 3500 
L 1159 3500 
L 1159 2956 
Q 1341 3275 1631 3429 
Q 1922 3584 2338 3584 
Q 2397 3584 2469 3576 
Q 2541 3569 2628 3553 
L 2631 2963 
z
" transform="scale(0.015625)"/>
       <path id="DejaVuSans-20" transform="scale(0.015625)"/>
       <path id="DejaVuSans-69" d="M 603 3500 
L 1178 3500 
L 1178 0 
L 603 0 
L 603 3500 
z
M 603 4863 
L 1178 4863 
L 1178 4134 
L 603 4134 
L 603 4863 
z
" transform="scale(0.015625)"/>
       <path id="DejaVuSans-63" d="M 3122 3366 
L 3122 2828 
Q 2878 2963 2633 3030 
Q 2388 3097 2138 3097 
Q 1578 3097 1268 2742 
Q 959 2388 959 1747 
Q 959 1106 1268 751 
Q 1578 397 2138 397 
Q 2388 397 2633 464 
Q 2878 531 3122 666 
L 3122 134 
Q 2881 22 2623 -34 
Q 2366 -91 2075 -91 
Q 1284 -91 818 406 
Q 353 903 353 1747 
Q 353 2603 823 3093 
Q 1294 3584 2113 3584 
Q 2378 3584 2631 3529 
Q 2884 3475 3122 3366 
z
" transform="scale(0.015625)"/>
       <path id="DejaVuSans-28" d="M 1984 4856 
Q 1566 4138 1362 3434 
Q 1159 2731 1159 2009 
Q 1159 1288 1364 580 
Q 1569 -128 1984 -844 
L 1484 -844 
Q 1016 -109 783 600 
Q 550 1309 550 2009 
Q 550 2706 781 3412 
Q 1013 4119 1484 4856 
L 1984 4856 
z
" transform="scale(0.015625)"/>
       <path id="DejaVuSans-55" d="M 556 4666 
L 1191 4666 
L 1191 1831 
Q 1191 1081 1462 751 
Q 1734 422 2344 422 
Q 2950 422 3222 751 
Q 3494 1081 3494 1831 
L 3494 4666 
L 4128 4666 
L 4128 1753 
Q 4128 841 3676 375 
Q 3225 -91 2344 -91 
Q 1459 -91 1007 375 
Q 556 841 556 1753 
L 556 4666 
z
" transform="scale(0.015625)"/>
       <path id="DejaVuSans-53" d="M 3425 4513 
L 3425 3897 
Q 3066 4069 2747 4153 
Q 2428 4238 2131 4238 
Q 1616 4238 1336 4038 
Q 1056 3838 1056 3469 
Q 1056 3159 1242 3001 
Q 1428 2844 1947 2747 
L 2328 2669 
Q 3034 2534 3370 2195 
Q 3706 1856 3706 1288 
Q 3706 609 3251 259 
Q 2797 -91 1919 -91 
Q 1588 -91 1214 -16 
Q 841 59 441 206 
L 441 856 
Q 825 641 1194 531 
Q 1563 422 1919 422 
Q 2459 422 2753 634 
Q 3047 847 3047 1241 
Q 3047 1584 2836 1778 
Q 2625 1972 2144 2069 
L 1759 2144 
Q 1053 2284 737 2584 
Q 422 2884 422 3419 
Q 422 4038 858 4394 
Q 1294 4750 2059 4750 
Q 2388 4750 2728 4690 
Q 3069 4631 3425 4513 
z
" transform="scale(0.015625)"/>
       <path id="DejaVuSans-2f" d="M 1625 4666 
L 2156 4666 
L 531 -594 
L 0 -594 
L 1625 4666 
z
" transform="scale(0.015625)"/>
       <path id="DejaVuSans-6c" d="M 603 4863 
L 1178 4863 
L 1178 0 
L 603 0 
L 603 4863 
z
" transform="scale(0.015625)"/>
       <path id="DejaVuSans-62" d="M 3116 1747 
Q 3116 2381 2855 2742 
Q 2594 3103 2138 3103 
Q 1681 3103 1420 2742 
Q 1159 2381 1159 1747 
Q 1159 1113 1420 752 
Q 1681 391 2138 391 
Q 2594 391 2855 752 
Q 3116 1113 3116 1747 
z
M 1159 2969 
Q 1341 3281 1617 3432 
Q 1894 3584 2278 3584 
Q 2916 3584 3314 3078 
Q 3713 2572 3713 1747 
Q 3713 922 3314 415 
Q 2916 -91 2278 -91 
Q 1894 -91 1617 61 
Q 1341 213 1159 525 
L 1159 0 
L 581 0 
L 581 4863 
L 1159 4863 
L 1159 2969 
z
" transform="scale(0.015625)"/>
       <path id="DejaVuSans-29" d="M 513 4856 
L 1013 4856 
Q 1481 4119 1714 3412 
Q 1947 2706 1947 2009 
Q 1947 1309 1714 600 
Q 1481 -109 1013 -844 
L 513 -844 
Q 928 -128 1133 580 
Q 1338 1288 1338 2009 
Q 1338 2731 1133 3434 
Q 928 4138 513 4856 
z
" transform="scale(0.015625)"/>
      </defs>
      <use xlink:href="#DejaVuSans-43"/>
      <use xlink:href="#DejaVuSans-6f" x="69.824219"/>
      <use xlink:href="#DejaVuSans-70" x="131.005859"/>
      <use xlink:href="#DejaVuSans-70" x="194.482422"/>
      <use xlink:href="#DejaVuSans-65" x="257.958984"/>
      <use xlink:href="#DejaVuSans-72" x="319.482422"/>
      <use xlink:href="#DejaVuSans-20" x="360.595703"/>
      <use xlink:href="#DejaVuSans-70" x="392.382812"/>
      <use xlink:href="#DejaVuSans-72" x="455.859375"/>
      <use xlink:href="#DejaVuSans-69" x="496.972656"/>
      <use xlink:href="#DejaVuSans-63" x="524.755859"/>
      <use xlink:href="#DejaVuSans-65" x="579.736328"/>
      <use xlink:href="#DejaVuSans-20" x="641.259766"/>
      <use xlink:href="#DejaVuSans-28" x="673.046875"/>
      <use xlink:href="#DejaVuSans-55" x="712.060547"/>
      <use xlink:href="#DejaVuSans-53" x="785.253906"/>
      <use xlink:href="#DejaVuSans-44" x="848.730469"/>
      <use xlink:href="#DejaVuSans-2f" x="925.732422"/>
      <use xlink:href="#DejaVuSans-6c" x="959.423828"/>
      <use xlink:href="#DejaVuSans-62" x="987.207031"/>
      <use xlink:href="#DejaVuSans-29" x="1050.683594"/>
     </g>
    </g>
   </g>
   <g id="line2d_15">
    <path d="M 86.939432 102.618553 
L 107.992203 93.045985 
L 129.044975 98.497014 
L 150.097747 51.298952 
L 171.150518 53.69211 
L 192.20329 52.628505 
L 213.256062 82.808641 
L 234.308833 103.549215 
L 255.361605 113.387668 
L 276.414376 116.84443 
L 297.467148 145.562133 
L 318.51992 128.411328 
L 339.572691 130.67148 
L 360.625463 155.533592 
L 381.678234 166.568593 
L 402.731006 196.748792 
L 423.783778 200.338497 
L 444.836549 208.84746 
L 465.889321 204.991806 
L 486.942093 218.154079 
L 507.994864 206.454302 
L 529.047636 215.362093 
L 550.100407 177.603656 
L 571.153179 195.419239 
L 592.205951 222.541503 
L 613.258722 211.905331 
L 634.311494 188.372771 
L 655.364266 191.164757 
L 676.417037 205.390698 
L 697.469809 212.437165 
L 718.52258 231.981128 
L 739.575352 252.189869 
L 760.628124 283.034781 
L 781.680895 283.699558 
L 802.733667 277.849574 
L 823.786438 268.27707 
L 844.83921 269.207795 
L 865.891982 266.415746 
L 886.944753 262.560156 
L 907.997525 292.607349 
L 929.050297 313.480865 
L 950.103068 297.792492 
" clip-path="url(#p4231d6540d)" style="fill: none; stroke: #111111; stroke-width: 2; stroke-linecap: square"/>
   </g>
   <g id="line2d_16">
    <path d="M 86.939432 102.539307 
L 107.992203 101.789325 
L 129.044975 91.86123 
L 150.097747 96.330119 
L 171.150518 49.062067 
L 192.20329 50.837551 
L 213.256062 49.35965 
L 234.308833 79.660303 
L 255.361605 100.277063 
L 276.414376 110.71024 
L 297.467148 115.06996 
L 318.51992 144.520147 
L 339.572691 127.780468 
L 360.625463 130.41504 
L 381.678234 155.735194 
L 402.731006 167.253403 
L 423.783778 198.074541 
L 444.836549 202.202103 
L 465.889321 210.628017 
L 486.942093 206.964201 
L 507.994864 219.909974 
L 529.047636 208.500617 
L 550.100407 217.582812 
L 571.153179 179.410459 
L 592.205951 196.764578 
L 613.258722 223.289773 
L 634.311494 212.287296 
L 655.364266 188.984295 
L 676.417037 190.56008 
L 697.469809 204.013724 
L 718.52258 210.71842 
L 739.575352 230.595216 
L 760.628124 250.936455 
L 781.680895 282.435049 
L 802.733667 283.593622 
L 823.786438 278.082493 
L 844.83921 268.242962 
L 865.891982 269.063378 
L 886.944753 266.796252 
L 907.997525 262.767906 
L 929.050297 293.1996 
L 950.103068 314.079519 
" clip-path="url(#p4231d6540d)" style="fill: none; stroke: #d55e00; stroke-opacity: 0.9; stroke-width: 1.6; stroke-linecap: square"/>
   </g>
   <g id="line2d_17">
    <path d="M 86.939432 109.78541 
L 107.992203 112.924746 
L 129.044975 108.624302 
L 150.097747 111.515757 
L 171.150518 69.200246 
L 192.20329 70.43648 
L 213.256062 68.231103 
L 234.308833 96.721466 
L 255.361605 115.277076 
L 276.414376 123.537588 
L 297.467148 124.686334 
L 318.51992 150.487604 
L 339.572691 133.856587 
L 360.625463 134.529986 
L 381.678234 156.186324 
L 402.731006 167.223289 
L 423.783778 196.627578 
L 444.836549 199.002731 
L 465.889321 203.773007 
L 486.942093 198.089249 
L 507.994864 210.101318 
L 529.047636 201.603703 
L 550.100407 214.423634 
L 571.153179 178.550548 
L 592.205951 195.659512 
L 613.258722 219.45111 
L 634.311494 210.954446 
L 655.364266 191.421894 
L 676.417037 190.261863 
L 697.469809 205.250781 
L 718.52258 213.919187 
L 739.575352 231.797278 
L 760.628124 249.015348 
L 781.680895 277.534049 
L 802.733667 277.885076 
L 823.786438 271.093653 
L 844.83921 258.386948 
L 865.891982 261.135444 
L 886.944753 261.663601 
L 907.997525 258.154029 
L 929.050297 284.634784 
L 950.103068 306.241704 
" clip-path="url(#p4231d6540d)" style="fill: none; stroke-dasharray: 4.44,1.92; stroke-dashoffset: 0; stroke: #0072b2; stroke-opacity: 0.9; stroke-width: 1.2"/>
   </g>
   <g id="line2d_18">
    <path d="M 86.939432 108.312517 
L 107.992203 108.514943 
L 129.044975 90.095888 
L 150.097747 103.937455 
L 171.150518 49.128189 
L 192.20329 51.943061 
L 213.256062 50.838629 
L 234.308833 82.572615 
L 255.361605 102.791816 
L 276.414376 103.82835 
L 297.467148 120.161974 
L 318.51992 150.816126 
L 339.572691 123.305684 
L 360.625463 130.51172 
L 381.678234 146.58453 
L 402.731006 158.708113 
L 423.783778 193.916993 
L 444.836549 197.766941 
L 465.889321 210.158565 
L 486.942093 204.639638 
L 507.994864 216.235445 
L 529.047636 205.565419 
L 550.100407 211.83103 
L 571.153179 178.999459 
L 592.205951 194.109085 
L 613.258722 224.712076 
L 634.311494 213.00672 
L 655.364266 182.203459 
L 676.417037 187.874474 
L 697.469809 201.371734 
L 718.52258 212.907568 
L 739.575352 232.087445 
L 760.628124 250.602989 
L 781.680895 283.284437 
L 802.733667 282.37552 
L 823.786438 276.449904 
L 844.83921 265.901156 
L 865.891982 264.879647 
L 886.944753 264.317763 
L 907.997525 261.115094 
L 929.050297 291.549323 
L 950.103068 314.126813 
" clip-path="url(#p4231d6540d)" style="fill: none; stroke-dasharray: 4.44,1.92; stroke-dashoffset: 0; stroke: #009e73; stroke-opacity: 0.9; stroke-width: 1.2"/>
   </g>
   <g id="line2d_19">
    <path d="M 86.939432 107.932835 
L 107.992203 108.511583 
L 129.044975 98.02883 
L 150.097747 104.140134 
L 171.150518 58.059057 
L 192.20329 62.93977 
L 213.256062 66.427026 
L 234.308833 97.360567 
L 255.361605 123.504242 
L 276.414376 130.277089 
L 297.467148 129.663601 
L 318.51992 157.099235 
L 339.572691 140.22655 
L 360.625463 141.354692 
L 381.678234 165.796676 
L 402.731006 176.634513 
L 423.783778 204.46067 
L 444.836549 208.577264 
L 465.889321 218.424339 
L 486.942093 213.694953 
L 507.994864 226.126454 
L 529.047636 213.049386 
L 550.100407 220.229937 
L 571.153179 182.831085 
L 592.205951 198.701407 
L 613.258722 224.640374 
L 634.311494 213.067137 
L 655.364266 188.831826 
L 676.417037 192.235652 
L 697.469809 206.798736 
L 718.52258 213.731597 
L 739.575352 232.838948 
L 760.628124 252.857688 
L 781.680895 284.194685 
L 802.733667 285.05878 
L 823.786438 279.231112 
L 844.83921 270.124383 
L 865.891982 271.132515 
L 886.944753 268.386873 
L 907.997525 264.985646 
L 929.050297 294.704698 
L 950.103068 315.193397 
" clip-path="url(#p4231d6540d)" style="fill: none; stroke-dasharray: 4.44,1.92; stroke-dashoffset: 0; stroke: #cc79a7; stroke-opacity: 0.9; stroke-width: 1.2"/>
   </g>
   <g id="line2d_20">
    <path d="M 86.939432 102.751496 
L 107.992203 102.618553 
L 129.044975 93.045985 
L 150.097747 98.497014 
L 171.150518 51.298952 
L 192.20329 53.69211 
L 213.256062 52.628505 
L 234.308833 82.808641 
L 255.361605 103.549215 
L 276.414376 113.387668 
L 297.467148 116.84443 
L 318.51992 145.562133 
L 339.572691 128.411328 
L 360.625463 130.67148 
L 381.678234 155.533592 
L 402.731006 166.568593 
L 423.783778 196.748792 
L 444.836549 200.338497 
L 465.889321 208.84746 
L 486.942093 204.991806 
L 507.994864 218.154079 
L 529.047636 206.454302 
L 550.100407 215.362093 
L 571.153179 177.603656 
L 592.205951 195.419239 
L 613.258722 222.541503 
L 634.311494 211.905331 
L 655.364266 188.372771 
L 676.417037 191.164757 
L 697.469809 205.390698 
L 718.52258 212.437165 
L 739.575352 231.981128 
L 760.628124 252.189869 
L 781.680895 283.034781 
L 802.733667 283.699558 
L 823.786438 277.849637 
L 844.83921 268.27707 
L 865.891982 269.207795 
L 886.944753 266.415746 
L 907.997525 262.560156 
L 929.050297 292.607349 
L 950.103068 313.480865 
" clip-path="url(#p4231d6540d)" style="fill: none; stroke-dasharray: 4.44,1.92; stroke-dashoffset: 0; stroke: #7a7a7a; stroke-opacity: 0.9; stroke-width: 1.2"/>
   </g>
   <g id="patch_3">
    <path d="M 43.78125 328.499964 
L 43.78125 35.7555 
" style="fill: none; stroke: #000000; stroke-width: 0.8; stroke-linejoin: miter; stroke-linecap: square"/>
   </g>
   <g id="patch_4">
    <path d="M 993.26125 328.499964 
L 993.26125 35.7555 
" style="fill: none; stroke: #000000; stroke-width: 0.8; stroke-linejoin: miter; stroke-linecap: square"/>
   </g>
   <g id="patch_5">
    <path d="M 43.78125 328.499964 
L 993.26125 328.499964 
" style="fill: none; stroke: #000000; stroke-width: 0.8; stroke-linejoin: miter; stroke-linecap: square"/>
   </g>
   <g id="patch_6">
    <path d="M 43.78125 35.7555 
L 993.26125 35.7555 
" style="fill: none; stroke: #000000; stroke-width: 0.8; stroke-linejoin: miter; stroke-linecap: square"/>
   </g>
   <g id="text_10">
    <!-- Test-set copper price predictions, h=1 -->
    <g transform="translate(404.284062 16.318125) scale(0.12 -0.12)">
     <defs>
      <path id="DejaVuSans-54" d="M -19 4666 
L 3928 4666 
L 3928 4134 
L 2272 4134 
L 2272 0 
L 1638 0 
L 1638 4134 
L -19 4134 
L -19 4666 
z
" transform="scale(0.015625)"/>
      <path id="DejaVuSans-73" d="M 2834 3397 
L 2834 2853 
Q 2591 2978 2328 3040 
Q 2066 3103 1784 3103 
Q 1356 3103 1142 2972 
Q 928 2841 928 2578 
Q 928 2378 1081 2264 
Q 1234 2150 1697 2047 
L 1894 2003 
Q 2506 1872 2764 1633 
Q 3022 1394 3022 966 
Q 3022 478 2636 193 
Q 2250 -91 1575 -91 
Q 1294 -91 989 -36 
Q 684 19 347 128 
L 347 722 
Q 666 556 975 473 
Q 1284 391 1588 391 
Q 1994 391 2212 530 
Q 2431 669 2431 922 
Q 2431 1156 2273 1281 
Q 2116 1406 1581 1522 
L 1381 1569 
Q 847 1681 609 1914 
Q 372 2147 372 2553 
Q 372 3047 722 3315 
Q 1072 3584 1716 3584 
Q 2034 3584 2315 3537 
Q 2597 3491 2834 3397 
z
" transform="scale(0.015625)"/>
      <path id="DejaVuSans-64" d="M 2906 2969 
L 2906 4863 
L 3481 4863 
L 3481 0 
L 2906 0 
L 2906 525 
Q 2725 213 2448 61 
Q 2172 -91 1784 -91 
Q 1150 -91 751 415 
Q 353 922 353 1747 
Q 353 2572 751 3078 
Q 1150 3584 1784 3584 
Q 2172 3584 2448 3432 
Q 2725 3281 2906 2969 
z
M 947 1747 
Q 947 1113 1208 752 
Q 1469 391 1925 391 
Q 2381 391 2643 752 
Q 2906 1113 2906 1747 
Q 2906 2381 2643 2742 
Q 2381 3103 1925 3103 
Q 1469 3103 1208 2742 
Q 947 2381 947 1747 
z
" transform="scale(0.015625)"/>
      <path id="DejaVuSans-6e" d="M 3513 2113 
L 3513 0 
L 2938 0 
L 2938 2094 
Q 2938 2591 2744 2837 
Q 2550 3084 2163 3084 
Q 1697 3084 1428 2787 
Q 1159 2491 1159 1978 
L 1159 0 
L 581 0 
L 581 3500 
L 1159 3500 
L 1159 2956 
Q 1366 3272 1645 3428 
Q 1925 3584 2291 3584 
Q 2894 3584 3203 3211 
Q 3513 2838 3513 2113 
z
" transform="scale(0.015625)"/>
      <path id="DejaVuSans-2c" d="M 750 794 
L 1409 794 
L 1409 256 
L 897 -744 
L 494 -744 
L 750 256 
L 750 794 
z
" transform="scale(0.015625)"/>
      <path id="DejaVuSans-68" d="M 3513 2113 
L 3513 0 
L 2938 0 
L 2938 2094 
Q 2938 2591 2744 2837 
Q 2550 3084 2163 3084 
Q 1697 3084 1428 2787 
Q 1159 2491 1159 1978 
L 1159 0 
L 581 0 
L 581 4863 
L 1159 4863 
L 1159 2956 
Q 1366 3272 1645 3428 
Q 1925 3584 2291 3584 
Q 2894 3584 3203 3211 
Q 3513 2838 3513 2113 
z
" transform="scale(0.015625)"/>
      <path id="DejaVuSans-3d" d="M 678 2906 
L 4684 2906 
L 4684 2381 
L 678 2381 
L 678 2906 
z
M 678 1631 
L 4684 1631 
L 4684 1100 
L 678 1100 
L 678 1631 
z
" transform="scale(0.015625)"/>
     </defs>
     <use xlink:href="#DejaVuSans-54"/>
     <use xlink:href="#DejaVuSans-65" x="44.083984"/>
     <use xlink:href="#DejaVuSans-73" x="105.607422"/>
     <use xlink:href="#DejaVuSans-74" x="157.707031"/>
     <use xlink:href="#DejaVuSans-2d" x="196.916016"/>
     <use xlink:href="#DejaVuSans-73" x="233"/>
     <use xlink:href="#DejaVuSans-65" x="285.099609"/>
     <use xlink:href="#DejaVuSans-74" x="346.623047"/>
     <use xlink:href="#DejaVuSans-20" x="385.832031"/>
     <use xlink:href="#DejaVuSans-63" x="417.619141"/>
     <use xlink:href="#DejaVuSans-6f" x="472.599609"/>
     <use xlink:href="#DejaVuSans-70" x="533.78125"/>
     <use xlink:href="#DejaVuSans-70" x="597.257812"/>
     <use xlink:href="#DejaVuSans-65" x="660.734375"/>
     <use xlink:href="#DejaVuSans-72" x="722.257812"/>
     <use xlink:href="#DejaVuSans-20" x="763.371094"/>
     <use xlink:href="#DejaVuSans-70" x="795.158203"/>
     <use xlink:href="#DejaVuSans-72" x="858.634766"/>
     <use xlink:href="#DejaVuSans-69" x="899.748047"/>
     <use xlink:href="#DejaVuSans-63" x="927.53125"/>
     <use xlink:href="#DejaVuSans-65" x="982.511719"/>
     <use xlink:href="#DejaVuSans-20" x="1044.035156"/>
     <use xlink:href="#DejaVuSans-70" x="1075.822266"/>
     <use xlink:href="#DejaVuSans-72" x="1139.298828"/>
     <use xlink:href="#DejaVuSans-65" x="1178.162109"/>
     <use xlink:href="#DejaVuSans-64" x="1239.685547"/>
     <use xlink:href="#DejaVuSans-69" x="1303.162109"/>
     <use xlink:href="#DejaVuSans-63" x="1330.945312"/>
     <use xlink:href="#DejaVuSans-74" x="1385.925781"/>
     <use xlink:href="#DejaVuSans-69" x="1425.134766"/>
     <use xlink:href="#DejaVuSans-6f" x="1452.917969"/>
     <use xlink:href="#DejaVuSans-6e" x="1514.099609"/>
     <use xlink:href="#DejaVuSans-73" x="1577.478516"/>
     <use xlink:href="#DejaVuSans-2c" x="1629.578125"/>
     <use xlink:href="#DejaVuSans-20" x="1661.365234"/>
     <use xlink:href="#DejaVuSans-68" x="1693.152344"/>
     <use xlink:href="#DejaVuSans-3d" x="1756.53125"/>
     <use xlink:href="#DejaVuSans-31" x="1840.320312"/>
    </g>
    <!-- Test period: 2015-04-10 to 2016-01-22 -->
    <g transform="translate(402.18125 29.7555) scale(0.12 -0.12)">
     <defs>
      <path id="DejaVuSans-3a" d="M 750 794 
L 1409 794 
L 1409 0 
L 750 0 
L 750 794 
z
M 750 3309 
L 1409 3309 
L 1409 2516 
L 750 2516 
L 750 3309 
z
" transform="scale(0.015625)"/>
     </defs>
     <use xlink:href="#DejaVuSans-54"/>
     <use xlink:href="#DejaVuSans-65" x="44.083984"/>
     <use xlink:href="#DejaVuSans-73" x="105.607422"/>
     <use xlink:href="#DejaVuSans-74" x="157.707031"/>
     <use xlink:href="#DejaVuSans-20" x="196.916016"/>
     <use xlink:href="#DejaVuSans-70" x="228.703125"/>
     <use xlink:href="#DejaVuSans-65" x="292.179688"/>
     <use xlink:href="#DejaVuSans-72" x="353.703125"/>
     <use xlink:href="#DejaVuSans-69" x="394.816406"/>
     <use xlink:href="#DejaVuSans-6f" x="422.599609"/>
     <use xlink:href="#DejaVuSans-64" x="483.78125"/>
     <use xlink:href="#DejaVuSans-3a" x="547.257812"/>
     <use xlink:href="#DejaVuSans-20" x="580.949219"/>
     <use xlink:href="#DejaVuSans-32" x="612.736328"/>
     <use xlink:href="#DejaVuSans-30" x="676.359375"/>
     <use xlink:href="#DejaVuSans-31" x="739.982422"/>
     <use xlink:href="#DejaVuSans-35" x="803.605469"/>
     <use xlink:href="#DejaVuSans-2d" x="867.228516"/>
     <use xlink:href="#DejaVuSans-30" x="903.3125"/>
     <use xlink:href="#DejaVuSans-34" x="966.935547"/>
     <use xlink:href="#DejaVuSans-2d" x="1030.558594"/>
     <use xlink:href="#DejaVuSans-31" x="1066.642578"/>
     <use xlink:href="#DejaVuSans-30" x="1130.265625"/>
     <use xlink:href="#DejaVuSans-20" x="1193.888672"/>
     <use xlink:href="#DejaVuSans-74" x="1225.675781"/>
     <use xlink:href="#DejaVuSans-6f" x="1264.884766"/>
     <use xlink:href="#DejaVuSans-20" x="1326.066406"/>
     <use xlink:href="#DejaVuSans-32" x="1357.853516"/>
     <use xlink:href="#DejaVuSans-30" x="1421.476562"/>
     <use xlink:href="#DejaVuSans-31" x="1485.099609"/>
     <use xlink:href="#DejaVuSans-36" x="1548.722656"/>
     <use xlink:href="#DejaVuSans-2d" x="1612.345703"/>
     <use xlink:href="#DejaVuSans-30" x="1648.429688"/>
     <use xlink:href="#DejaVuSans-31" x="1712.052734"/>
     <use xlink:href="#DejaVuSans-2d" x="1775.675781"/>
     <use xlink:href="#DejaVuSans-32" x="1811.759766"/>
     <use xlink:href="#DejaVuSans-32" x="1875.382812"/>
    </g>
   </g>
   <g id="legend_1">
    <g id="patch_7">
     <path d="M 687.340937 73.11175 
L 986.26125 73.11175 
Q 988.26125 73.11175 988.26125 71.11175 
L 988.26125 42.7555 
Q 988.26125 40.7555 986.26125 40.7555 
L 687.340937 40.7555 
Q 685.340937 40.7555 685.340937 42.7555 
L 685.340937 71.11175 
Q 685.340937 73.11175 687.340937 73.11175 
z
" style="fill: #ffffff; opacity: 0.8; stroke: #cccccc; stroke-linejoin: miter"/>
    </g>
    <g id="line2d_21">
     <path d="M 689.340937 48.853937 
L 699.340937 48.853937 
L 709.340937 48.853937 
" style="fill: none; stroke: #111111; stroke-width: 2; stroke-linecap: square"/>
    </g>
    <g id="text_11">
     <!-- Actual price -->
     <g transform="translate(717.340937 52.353937) scale(0.1 -0.1)">
      <defs>
       <path id="DejaVuSans-41" d="M 2188 4044 
L 1331 1722 
L 3047 1722 
L 2188 4044 
z
M 1831 4666 
L 2547 4666 
L 4325 0 
L 3669 0 
L 3244 1197 
L 1141 1197 
L 716 0 
L 50 0 
L 1831 4666 
z
" transform="scale(0.015625)"/>
       <path id="DejaVuSans-75" d="M 544 1381 
L 544 3500 
L 1119 3500 
L 1119 1403 
Q 1119 906 1312 657 
Q 1506 409 1894 409 
Q 2359 409 2629 706 
Q 2900 1003 2900 1516 
L 2900 3500 
L 3475 3500 
L 3475 0 
L 2900 0 
L 2900 538 
Q 2691 219 2414 64 
Q 2138 -91 1772 -91 
Q 1169 -91 856 284 
Q 544 659 544 1381 
z
M 1991 3584 
L 1991 3584 
z
" transform="scale(0.015625)"/>
      </defs>
      <use xlink:href="#DejaVuSans-41"/>
      <use xlink:href="#DejaVuSans-63" x="66.658203"/>
      <use xlink:href="#DejaVuSans-74" x="121.638672"/>
      <use xlink:href="#DejaVuSans-75" x="160.847656"/>
      <use xlink:href="#DejaVuSans-61" x="224.226562"/>
      <use xlink:href="#DejaVuSans-6c" x="285.505859"/>
      <use xlink:href="#DejaVuSans-20" x="313.289062"/>
      <use xlink:href="#DejaVuSans-70" x="345.076172"/>
      <use xlink:href="#DejaVuSans-72" x="408.552734"/>
      <use xlink:href="#DejaVuSans-69" x="449.666016"/>
      <use xlink:href="#DejaVuSans-63" x="477.449219"/>
      <use xlink:href="#DejaVuSans-65" x="532.429688"/>
     </g>
    </g>
    <g id="line2d_22">
     <path d="M 689.340937 63.532062 
L 699.340937 63.532062 
L 709.340937 63.532062 
" style="fill: none; stroke: #d55e00; stroke-opacity: 0.9; stroke-width: 1.6; stroke-linecap: square"/>
    </g>
    <g id="text_12">
     <!-- MDHGNN -->
     <g transform="translate(717.340937 67.032062) scale(0.1 -0.1)">
      <defs>
       <path id="DejaVuSans-4d" d="M 628 4666 
L 1569 4666 
L 2759 1491 
L 3956 4666 
L 4897 4666 
L 4897 0 
L 4281 0 
L 4281 4097 
L 3078 897 
L 2444 897 
L 1241 4097 
L 1241 0 
L 628 0 
L 628 4666 
z
" transform="scale(0.015625)"/>
       <path id="DejaVuSans-48" d="M 628 4666 
L 1259 4666 
L 1259 2753 
L 3553 2753 
L 3553 4666 
L 4184 4666 
L 4184 0 
L 3553 0 
L 3553 2222 
L 1259 2222 
L 1259 0 
L 628 0 
L 628 4666 
z
" transform="scale(0.015625)"/>
       <path id="DejaVuSans-47" d="M 3809 666 
L 3809 1919 
L 2778 1919 
L 2778 2438 
L 4434 2438 
L 4434 434 
Q 4069 175 3628 42 
Q 3188 -91 2688 -91 
Q 1594 -91 976 548 
Q 359 1188 359 2328 
Q 359 3472 976 4111 
Q 1594 4750 2688 4750 
Q 3144 4750 3555 4637 
Q 3966 4525 4313 4306 
L 4313 3634 
Q 3963 3931 3569 4081 
Q 3175 4231 2741 4231 
Q 1884 4231 1454 3753 
Q 1025 3275 1025 2328 
Q 1025 1384 1454 906 
Q 1884 428 2741 428 
Q 3075 428 3337 486 
Q 3600 544 3809 666 
z
" transform="scale(0.015625)"/>
       <path id="DejaVuSans-4e" d="M 628 4666 
L 1478 4666 
L 3547 763 
L 3547 4666 
L 4159 4666 
L 4159 0 
L 3309 0 
L 1241 3903 
L 1241 0 
L 628 0 
L 628 4666 
z
" transform="scale(0.015625)"/>
      </defs>
      <use xlink:href="#DejaVuSans-4d"/>
      <use xlink:href="#DejaVuSans-44" x="86.279297"/>
      <use xlink:href="#DejaVuSans-48" x="163.28125"/>
      <use xlink:href="#DejaVuSans-47" x="238.476562"/>
      <use xlink:href="#DejaVuSans-4e" x="315.966797"/>
      <use xlink:href="#DejaVuSans-4e" x="390.771484"/>
     </g>
    </g>
    <g id="line2d_23">
     <path d="M 796.73625 48.853937 
L 806.73625 48.853937 
L 816.73625 48.853937 
" style="fill: none; stroke-dasharray: 4.44,1.92; stroke-dashoffset: 0; stroke: #0072b2; stroke-opacity: 0.9; stroke-width: 1.2"/>
    </g>
    <g id="text_13">
     <!-- GRU -->
     <g transform="translate(824.73625 52.353937) scale(0.1 -0.1)">
      <defs>
       <path id="DejaVuSans-52" d="M 2841 2188 
Q 3044 2119 3236 1894 
Q 3428 1669 3622 1275 
L 4263 0 
L 3584 0 
L 2988 1197 
Q 2756 1666 2539 1819 
Q 2322 1972 1947 1972 
L 1259 1972 
L 1259 0 
L 628 0 
L 628 4666 
L 2053 4666 
Q 2853 4666 3247 4331 
Q 3641 3997 3641 3322 
Q 3641 2881 3436 2590 
Q 3231 2300 2841 2188 
z
M 1259 4147 
L 1259 2491 
L 2053 2491 
Q 2509 2491 2742 2702 
Q 2975 2913 2975 3322 
Q 2975 3731 2742 3939 
Q 2509 4147 2053 4147 
L 1259 4147 
z
" transform="scale(0.015625)"/>
      </defs>
      <use xlink:href="#DejaVuSans-47"/>
      <use xlink:href="#DejaVuSans-52" x="77.490234"/>
      <use xlink:href="#DejaVuSans-55" x="146.972656"/>
     </g>
    </g>
    <g id="line2d_24">
     <path d="M 796.73625 63.532062 
L 806.73625 63.532062 
L 816.73625 63.532062 
" style="fill: none; stroke-dasharray: 4.44,1.92; stroke-dashoffset: 0; stroke: #009e73; stroke-opacity: 0.9; stroke-width: 1.2"/>
    </g>
    <g id="text_14">
     <!-- MLP -->
     <g transform="translate(824.73625 67.032062) scale(0.1 -0.1)">
      <defs>
       <path id="DejaVuSans-4c" d="M 628 4666 
L 1259 4666 
L 1259 531 
L 3531 531 
L 3531 0 
L 628 0 
L 628 4666 
z
" transform="scale(0.015625)"/>
       <path id="DejaVuSans-50" d="M 1259 4147 
L 1259 2394 
L 2053 2394 
Q 2494 2394 2734 2622 
Q 2975 2850 2975 3272 
Q 2975 3691 2734 3919 
Q 2494 4147 2053 4147 
L 1259 4147 
z
M 628 4666 
L 2053 4666 
Q 2838 4666 3239 4311 
Q 3641 3956 3641 3272 
Q 3641 2581 3239 2228 
Q 2838 1875 2053 1875 
L 1259 1875 
L 1259 0 
L 628 0 
L 628 4666 
z
" transform="scale(0.015625)"/>
      </defs>
      <use xlink:href="#DejaVuSans-4d"/>
      <use xlink:href="#DejaVuSans-4c" x="86.279297"/>
      <use xlink:href="#DejaVuSans-50" x="141.992188"/>
     </g>
    </g>
    <g id="line2d_25">
     <path d="M 866.751875 48.853937 
L 876.751875 48.853937 
L 886.751875 48.853937 
" style="fill: none; stroke-dasharray: 4.44,1.92; stroke-dashoffset: 0; stroke: #cc79a7; stroke-opacity: 0.9; stroke-width: 1.2"/>
    </g>
    <g id="text_15">
     <!-- Transformer -->
     <g transform="translate(894.751875 52.353937) scale(0.1 -0.1)">
      <defs>
       <path id="DejaVuSans-66" d="M 2375 4863 
L 2375 4384 
L 1825 4384 
Q 1516 4384 1395 4259 
Q 1275 4134 1275 3809 
L 1275 3500 
L 2222 3500 
L 2222 3053 
L 1275 3053 
L 1275 0 
L 697 0 
L 697 3053 
L 147 3053 
L 147 3500 
L 697 3500 
L 697 3744 
Q 697 4328 969 4595 
Q 1241 4863 1831 4863 
L 2375 4863 
z
" transform="scale(0.015625)"/>
       <path id="DejaVuSans-6d" d="M 3328 2828 
Q 3544 3216 3844 3400 
Q 4144 3584 4550 3584 
Q 5097 3584 5394 3201 
Q 5691 2819 5691 2113 
L 5691 0 
L 5113 0 
L 5113 2094 
Q 5113 2597 4934 2840 
Q 4756 3084 4391 3084 
Q 3944 3084 3684 2787 
Q 3425 2491 3425 1978 
L 3425 0 
L 2847 0 
L 2847 2094 
Q 2847 2600 2669 2842 
Q 2491 3084 2119 3084 
Q 1678 3084 1418 2786 
Q 1159 2488 1159 1978 
L 1159 0 
L 581 0 
L 581 3500 
L 1159 3500 
L 1159 2956 
Q 1356 3278 1631 3431 
Q 1906 3584 2284 3584 
Q 2666 3584 2933 3390 
Q 3200 3197 3328 2828 
z
" transform="scale(0.015625)"/>
      </defs>
      <use xlink:href="#DejaVuSans-54"/>
      <use xlink:href="#DejaVuSans-72" x="46.333984"/>
      <use xlink:href="#DejaVuSans-61" x="87.447266"/>
      <use xlink:href="#DejaVuSans-6e" x="148.726562"/>
      <use xlink:href="#DejaVuSans-73" x="212.105469"/>
      <use xlink:href="#DejaVuSans-66" x="264.205078"/>
      <use xlink:href="#DejaVuSans-6f" x="299.410156"/>
      <use xlink:href="#DejaVuSans-72" x="360.591797"/>
      <use xlink:href="#DejaVuSans-6d" x="399.955078"/>
      <use xlink:href="#DejaVuSans-65" x="497.367188"/>
      <use xlink:href="#DejaVuSans-72" x="558.890625"/>
     </g>
    </g>
    <g id="line2d_26">
     <path d="M 866.751875 63.532062 
L 876.751875 63.532062 
L 886.751875 63.532062 
" style="fill: none; stroke-dasharray: 4.44,1.92; stroke-dashoffset: 0; stroke: #7a7a7a; stroke-opacity: 0.9; stroke-width: 1.2"/>
    </g>
    <g id="text_16">
     <!-- Naive persistence -->
     <g transform="translate(894.751875 67.032062) scale(0.1 -0.1)">
      <defs>
       <path id="DejaVuSans-76" d="M 191 3500 
L 800 3500 
L 1894 563 
L 2988 3500 
L 3597 3500 
L 2284 0 
L 1503 0 
L 191 3500 
z
" transform="scale(0.015625)"/>
      </defs>
      <use xlink:href="#DejaVuSans-4e"/>
      <use xlink:href="#DejaVuSans-61" x="74.804688"/>
      <use xlink:href="#DejaVuSans-69" x="136.083984"/>
      <use xlink:href="#DejaVuSans-76" x="163.867188"/>
      <use xlink:href="#DejaVuSans-65" x="223.046875"/>
      <use xlink:href="#DejaVuSans-20" x="284.570312"/>
      <use xlink:href="#DejaVuSans-70" x="316.357422"/>
      <use xlink:href="#DejaVuSans-65" x="379.833984"/>
      <use xlink:href="#DejaVuSans-72" x="441.357422"/>
      <use xlink:href="#DejaVuSans-73" x="482.470703"/>
      <use xlink:href="#DejaVuSans-69" x="534.570312"/>
      <use xlink:href="#DejaVuSans-73" x="562.353516"/>
      <use xlink:href="#DejaVuSans-74" x="614.453125"/>
      <use xlink:href="#DejaVuSans-65" x="653.662109"/>
      <use xlink:href="#DejaVuSans-6e" x="715.185547"/>
      <use xlink:href="#DejaVuSans-63" x="778.564453"/>
      <use xlink:href="#DejaVuSans-65" x="833.544922"/>
     </g>
    </g>
   </g>
  </g>
 </g>
 <defs>
  <clipPath id="p4231d6540d">
   <rect x="43.78125" y="35.7555" width="949.48" height="292.744464"/>
  </clipPath>
 </defs>
</svg>
